<?xml version="1.0" encoding="UTF-8" standalone="no"?>
<!DOCTYPE svg PUBLIC "-//W3C//DTD SVG 1.1//EN" "http://www.w3.org/Graphics/SVG/1.1/DTD/svg11.dtd">
<svg width="100%" height="100%" viewBox="0 0 533 618" version="1.1" xmlns="http://www.w3.org/2000/svg" xmlns:xlink="http://www.w3.org/1999/xlink" xml:space="preserve" xmlns:serif="http://www.serif.com/" style="fill-rule:evenodd;clip-rule:evenodd;stroke-miterlimit:10;">
    <g transform="matrix(1,0,0,1,-2391.1,-7230.57)">
        <g transform="matrix(1,0,0,1,2241,7074.67)">
            <g transform="matrix(1,0,0,1,-2241.23,-7075.71)">
                <path d="M2659.3,7326.18C2659.3,7302.2 2679.71,7281.86 2703.79,7281.86C2728.39,7281.86 2747.23,7302.2 2747.23,7326.18C2747.23,7328.79 2747.23,7331.39 2746.7,7334M2721.58,7367.89C2724.2,7346.51 2742.52,7328.79 2765.02,7328.79C2789.1,7328.79 2808.46,7348.6 2808.46,7373.1C2808.46,7380.4 2806.89,7387.18 2803.75,7393.96M2873.88,7541.51C2873.88,7519.61 2862.89,7501.36 2847.19,7489.89C2851.9,7480.51 2855.56,7469.56 2855.56,7459.13C2855.56,7423.16 2826.26,7394.48 2791.19,7394.48C2755.08,7394.48 2726.29,7423.68 2726.29,7459.13L2726.29,7465.39M2691.23,7493.02C2692.8,7496.67 2695.41,7499.8 2699.08,7502.41C2707.97,7511.27 2720.54,7516.48 2733.1,7515.44C2745.13,7515.44 2756.65,7510.75 2765.02,7501.36C2776.01,7490.41 2780.2,7474.77 2777.58,7460.7M2749.32,7512.31C2754.03,7521.7 2761.88,7529 2771.83,7533.17C2785.96,7539.95 2801.66,7538.38 2814.22,7530.56M2659.3,7431.5C2666.11,7430.46 2673.96,7430.46 2681.28,7433.06C2685.47,7434.11 2688.61,7435.67 2692.27,7438.28M2659.3,7326.18L2659.3,7734.94M2572.43,7334C2571.38,7331.39 2571.38,7328.79 2571.38,7326.18C2571.38,7302.2 2590.74,7281.86 2615.34,7281.86C2639.41,7281.86 2659.3,7302.2 2659.3,7326.18M2500.2,7663.51C2496.01,7665.08 2491.3,7665.6 2486.07,7665.6C2483.45,7665.6 2481.36,7665.6 2478.74,7665.08C2457.81,7661.43 2441.59,7643.18 2441.59,7621.8C2441.59,7605.64 2449.96,7592.61 2462,7584.78M2573.47,7714.09C2567.19,7732.34 2552.54,7745.89 2533.7,7750.06C2530.56,7751.11 2526.37,7751.63 2522.18,7751.63C2491.83,7751.63 2467.75,7727.64 2467.75,7697.4C2467.75,7684.89 2471.94,7673.94 2478.74,7665.08M2533.7,7750.06C2540.5,7778.22 2565.62,7798.55 2595.98,7798.55C2631.04,7798.55 2659.3,7769.87 2659.3,7734.94M2514.86,7393.96C2511.19,7388.22 2509.62,7380.4 2509.62,7373.1C2509.62,7348.6 2528.99,7328.79 2553.06,7328.79C2575.57,7328.79 2594.41,7345.47 2596.5,7367.89M2592.31,7463.3L2592.31,7456.53C2592.31,7420.55 2563.01,7392.4 2527.94,7392.4C2491.83,7392.4 2463.57,7421.59 2463.57,7456.53C2463.57,7468 2466.18,7477.9 2471.94,7487.29C2456.24,7498.76 2445.25,7518.05 2445.25,7538.9C2445.25,7556.63 2452.05,7572.27 2462.52,7583.22C2474.56,7595.73 2491.3,7603.03 2509.62,7603.03C2515.38,7603.03 2520.61,7602.51 2525.32,7600.95M2540.5,7461.22C2537.88,7475.82 2542.07,7490.41 2553.06,7502.41C2562.48,7511.27 2573.47,7515.44 2584.99,7516.48C2597.55,7517.53 2610.11,7512.31 2619.53,7502.93C2621.62,7500.84 2624.24,7497.19 2626.85,7494.06M2504.39,7531.6C2516.95,7538.9 2533.17,7539.95 2547.3,7534.21C2557.25,7530.04 2565.1,7522.22 2569.81,7513.36M2586.03,7752.67C2589.17,7743.28 2588.13,7731.81 2582.37,7722.43C2577.66,7715.13 2569.81,7709.92 2561.43,7708.35C2553.06,7706.79 2544.16,7708.35 2535.79,7713.57C2533.17,7715.13 2531.6,7716.69 2528.99,7719.3M2621.1,7609.29C2609.06,7600.95 2593.36,7598.34 2579.23,7603.03C2567.19,7607.2 2558.29,7615.55 2552.54,7625.97C2546.26,7636.4 2544.69,7649.96 2548.87,7662.47C2550.44,7666.64 2552.54,7669.77 2554.11,7673.42M2609.06,7667.68C2612.72,7665.08 2615.86,7663.51 2620.05,7662.47C2632.61,7658.3 2649.45,7665.86 2657.21,7665.6M2627.9,7438.28C2631.04,7435.67 2634.18,7434.11 2638.37,7433.06C2646.22,7430.46 2653.02,7430.46 2660.35,7431.5" style="fill:none;stroke:rgb(9,3,108);stroke-width:10px;"/>
            </g>
        </g>
    </g>
</svg>
