<?xml version="1.0" encoding="UTF-8" standalone="no"?>
<!DOCTYPE svg PUBLIC "-//W3C//DTD SVG 1.1//EN" "http://www.w3.org/Graphics/SVG/1.1/DTD/svg11.dtd">
<svg width="100%" height="100%" viewBox="0 0 634 497" version="1.1" xmlns="http://www.w3.org/2000/svg" xmlns:xlink="http://www.w3.org/1999/xlink" xml:space="preserve" xmlns:serif="http://www.serif.com/" style="fill-rule:evenodd;clip-rule:evenodd;stroke-miterlimit:10;">
    <g transform="matrix(1,0,0,1,-3119.53,-5545.01)">
        <g transform="matrix(1,0,0,1,3020,5328.67)">
            <g transform="matrix(1.23123,0,0,1.23123,-3813.44,-6668.37)">
                <path d="M3440.46,5908.76C3440.46,5934 3419.94,5954.01 3395.04,5954.01C3369.71,5954.01 3349.62,5934 3349.62,5908.76C3349.62,5883.96 3369.71,5863.51 3395.04,5863.51C3419.94,5863.51 3440.46,5883.96 3440.46,5908.76M3218.9,5632.54L3287.03,5632.54L3329.4,5861.4L3434.03,5861.4M3628.64,5790.7L3652.16,5688.23L3297.52,5688.23M3591,5688.23L3568,5790.7M3522.78,5688.23L3499.78,5790.7M3454.56,5688.23L3431.56,5790.7M3386.34,5688.23L3363.34,5790.7" style="fill:none;stroke:rgb(9,3,108);stroke-width:8.12px;"/>
            </g>
        </g>
    </g>
</svg>
