<?xml version="1.0" encoding="UTF-8" standalone="no"?>
<!DOCTYPE svg PUBLIC "-//W3C//DTD SVG 1.1//EN" "http://www.w3.org/Graphics/SVG/1.1/DTD/svg11.dtd">
<svg width="100%" height="100%" viewBox="0 0 648 558" version="1.1" xmlns="http://www.w3.org/2000/svg" xmlns:xlink="http://www.w3.org/1999/xlink" xml:space="preserve" xmlns:serif="http://www.serif.com/" style="fill-rule:evenodd;clip-rule:evenodd;stroke-miterlimit:10;">
    <g transform="matrix(1,0,0,1,-3891.69,-3184.32)">
        <g transform="matrix(1,0,0,1,3799,2998.72)">
            <g transform="matrix(1,0,0,1,-3796.62,-3046.85)">
                <path d="M4214.27,3640.79L4029.84,3640.79C3979.99,3640.79 3939.56,3600.51 3939.56,3550.85C3939.56,3501.19 3981.65,3461.47 4031.5,3461.47C4038.7,3461.47 4044.79,3462.57 4050.88,3464.22C4049.22,3456.5 4049.22,3448.22 4049.22,3438.84C4049.22,3351.12 4120.11,3282.7 4205.96,3282.7C4288.49,3282.7 4356.06,3346.15 4362.15,3427.26C4368.24,3426.15 4374.33,3426.15 4380.43,3426.15C4432.6,3426.15 4476.35,3463.1 4486.67,3511.35M4212.71,3688.86L4035,3688.86M4215.5,3740L4103.3,3740" style="fill:none;stroke:rgb(9,3,108);stroke-width:10px;"/>
            </g>
        </g>
    </g>
</svg>
