<?xml version="1.0" encoding="UTF-8" standalone="no"?>
<!DOCTYPE svg PUBLIC "-//W3C//DTD SVG 1.1//EN" "http://www.w3.org/Graphics/SVG/1.1/DTD/svg11.dtd">
<svg width="100%" height="100%" viewBox="0 0 613 611" version="1.1" xmlns="http://www.w3.org/2000/svg" xmlns:xlink="http://www.w3.org/1999/xlink" xml:space="preserve" xmlns:serif="http://www.serif.com/" style="fill-rule:evenodd;clip-rule:evenodd;stroke-miterlimit:10;">
    <g transform="matrix(1,0,0,1,-3909.17,-6295.81)">
        <g transform="matrix(1,0,0,1,3799,6136.67)">
            <g transform="matrix(1,0,0,1,-3800.78,-6137.95)">
                <path d="M4215.5,6673.12L4084.59,6735.15L4170.3,6555.65L4350.48,6470.27L4287.37,6602.45M4237.93,6602.45C4237.93,6614.28 4229.15,6623.02 4217.28,6623.02C4205.92,6623.02 4196.63,6614.28 4196.63,6602.45C4196.63,6591.13 4205.92,6581.88 4217.28,6581.88C4229.15,6581.88 4237.93,6591.13 4237.93,6602.45M4217.28,6857.56C4076.33,6857.56 3961.2,6743.38 3961.2,6602.45C3961.2,6462.04 4076.33,6347.34 4217.28,6347.34C4358.74,6347.34 4473.36,6462.04 4473.36,6602.45" style="fill:none;stroke:rgb(9,3,108);stroke-width:10px;"/>
            </g>
        </g>
    </g>
</svg>
