<?xml version="1.0" encoding="UTF-8" standalone="no"?>
<!DOCTYPE svg PUBLIC "-//W3C//DTD SVG 1.1//EN" "http://www.w3.org/Graphics/SVG/1.1/DTD/svg11.dtd">
<svg width="100%" height="100%" viewBox="0 0 634 645" version="1.1" xmlns="http://www.w3.org/2000/svg" xmlns:xlink="http://www.w3.org/1999/xlink" xml:space="preserve" xmlns:serif="http://www.serif.com/" style="fill-rule:evenodd;clip-rule:evenodd;stroke-miterlimit:10;">
    <g transform="matrix(1,0,0,1,-3898.9,-4708.03)">
        <g transform="matrix(1,0,0,1,3799,4565.67)">
            <g transform="matrix(1,0,0,1,-3783.82,-4566.8)">
                <path d="M3933.97,5303.19L4205.32,5303.19M4076.86,4828.26L4076.86,4759.41L4297.49,4759.41L4297.49,4901.36M4200.32,5303.19L4200.32,4922.91L4466.67,4922.91L4466.67,5030.17M4244.63,4978.74L4318.14,4978.74L4318.14,5025.19L4244.63,5025.19L4244.63,4978.74ZM4353.31,4978.74L4424.66,4978.74L4424.66,5025.19L4353.31,5025.19L4353.31,4978.74ZM4026.57,4904.04L4062,4904.04L4062,4940.48L4026.57,4940.48L4026.57,4904.04ZM4098.01,4904.04L4133.45,4904.04L4133.45,4940.48L4098.01,4940.48L4098.01,4904.04ZM4026.57,4973.51L4062,4973.51L4062,5009.95L4026.57,5009.95L4026.57,4973.51ZM4098.01,4973.51L4133.45,4973.51L4133.45,5009.95L4098.01,5009.95L4098.01,4973.51ZM4026.57,5042.98L4062,5042.98L4062,5079.42L4026.57,5079.42L4026.57,5042.98ZM4098.01,5042.98L4133.45,5042.98L4133.45,5079.42L4098.01,5079.42L4098.01,5042.98ZM4040.28,5303.19L4040.28,5195.57L4119.73,5195.57L4119.73,5303.19M4172.89,5303.19L4172.89,4848.81L3987.13,4848.81L3987.13,5303.19" style="fill:none;stroke:rgb(9,3,108);stroke-width:10px;"/>
            </g>
        </g>
    </g>
</svg>
