<?xml version="1.0" encoding="UTF-8" standalone="no"?>
<!DOCTYPE svg PUBLIC "-//W3C//DTD SVG 1.1//EN" "http://www.w3.org/Graphics/SVG/1.1/DTD/svg11.dtd">
<svg width="100%" height="100%" viewBox="0 0 605 531" version="1.1" xmlns="http://www.w3.org/2000/svg" xmlns:xlink="http://www.w3.org/1999/xlink" xml:space="preserve" xmlns:serif="http://www.serif.com/" style="fill-rule:evenodd;clip-rule:evenodd;stroke-miterlimit:10;">
    <g transform="matrix(1,0,0,1,-18.1999,-8265.68)">
        <g transform="matrix(1,0,0,1,-96,8066.67)">
            <g transform="matrix(1,0,0,1,92.7464,-8034.81)">
                <path d="M535.352,8419.31L535.352,8330.65C535.352,8319.27 526.31,8309.32 513.936,8309.32L488.237,8309.32M496.327,8379.96L535.828,8419.31L575.804,8379.96M261.746,8672.05L168.398,8672.05C155.851,8672.05 146.316,8662.05 146.316,8650.05L146.316,8623.55M220.091,8631.55L261.746,8673.05L220.091,8714.55M253.257,8284.07L71.703,8284.07L71.703,8508.06L323.754,8508.06L323.754,8284.07L71.703,8284.07M253.257,8284.07L253.257,8334.57L148.991,8334.57L148.991,8284.07M98.302,8472.06L297.656,8472.06" style="fill:none;stroke:rgb(9,3,108);stroke-width:10px;"/>
            </g>
        </g>
    </g>
</svg>
