<?xml version="1.0" encoding="UTF-8" standalone="no"?>
<!DOCTYPE svg PUBLIC "-//W3C//DTD SVG 1.1//EN" "http://www.w3.org/Graphics/SVG/1.1/DTD/svg11.dtd">
<svg width="100%" height="100%" viewBox="0 0 631 661" version="1.1" xmlns="http://www.w3.org/2000/svg" xmlns:xlink="http://www.w3.org/1999/xlink" xml:space="preserve" xmlns:serif="http://www.serif.com/" style="fill-rule:evenodd;clip-rule:evenodd;stroke-miterlimit:10;">
    <g transform="matrix(1,0,0,1,-2331.13,-4701.48)">
        <g transform="matrix(1,0,0,1,2241,4565.67)">
            <g transform="matrix(1,0,0,1,-2241,-4565.67)">
                <path d="M2657.5,5311.41L2381.38,5311.41L2381.38,5032.7L2422.16,5032.7L2562.04,4921.56L2562.04,5031.57L2721.18,4930.02L2721.18,5031.57L2774.98,5031.57L2804.43,4751.73L2883.72,4751.73L2910.89,5031.37M2427.82,5136.51L2477.77,5136.51L2477.77,5207.04L2427.82,5207.04L2427.82,5136.51ZM2516.95,5136.51L2567.39,5136.51L2567.39,5207.04L2516.95,5207.04L2516.95,5136.51ZM2607.06,5136.51L2657.5,5136.51L2657.5,5207.04L2607.06,5207.04L2607.06,5136.51Z" style="fill:none;stroke:rgb(9,3,108);stroke-width:10px;"/>
            </g>
        </g>
    </g>
</svg>
