<?xml version="1.0" encoding="UTF-8" standalone="no"?>
<!DOCTYPE svg PUBLIC "-//W3C//DTD SVG 1.1//EN" "http://www.w3.org/Graphics/SVG/1.1/DTD/svg11.dtd">
<svg width="100%" height="100%" viewBox="0 0 678 676" version="1.1" xmlns="http://www.w3.org/2000/svg" xmlns:xlink="http://www.w3.org/1999/xlink" xml:space="preserve" xmlns:serif="http://www.serif.com/" style="fill-rule:evenodd;clip-rule:evenodd;stroke-miterlimit:10;">
    <g transform="matrix(1,0,0,1,-2318.92,-1544.75)">
        <g transform="matrix(1,0,0,1,2241,1418.83)">
            <g id="gear" transform="matrix(1,0,0,1,96,144)">
                <path d="M320.5,566.978C308.874,566.978 297.247,566.397 286.202,564.653L273.995,607.089L212.956,590.231L225.164,547.795C205.399,539.075 185.634,527.449 169.358,514.079L136.804,546.632L92.042,501.29L124.596,469.317C110.644,453.04 99.599,432.113 92.042,412.929L48.444,423.974L32.167,362.355L76.347,351.31C75.184,340.265 74.022,330.964 74.022,320.5C74.022,308.874 75.184,296.666 78.672,286.202L35.073,273.995L51.931,212.956L94.949,225.164C103.087,205.399 115.295,185.634 128.084,169.358L96.693,136.804L142.036,92.042L174.008,124.596C190.285,110.644 210.05,100.181 229.815,92.042L218.188,48.444L279.808,32.167L290.853,76.347C301.317,75.184 310.618,74.022 320.5,74.022C332.708,74.022 344.915,75.184 355.96,78.091L367.005,34.492L428.625,50.769L416.417,93.786C436.182,101.925 455.366,114.132 472.224,127.503L504.778,96.693L549.539,142.036L516.985,174.008C530.937,190.285 541.401,210.05 549.539,229.815L593.138,218.188L608.833,279.808L565.235,290.853C566.397,301.317 566.978,310.618 566.978,320.5M321.977,423.9C262.891,423.9 215.623,379.586 215.623,320.5C215.623,264.368 262.891,217.1 321.977,217.1C378.109,217.1 425.377,264.368 425.377,320.5" style="fill:none;stroke:rgb(9,3,108);stroke-width:10px;"/>
            </g>
        </g>
    </g>
</svg>
