<?xml version="1.0" encoding="UTF-8" standalone="no"?>
<!DOCTYPE svg PUBLIC "-//W3C//DTD SVG 1.1//EN" "http://www.w3.org/Graphics/SVG/1.1/DTD/svg11.dtd">
<svg width="100%" height="100%" viewBox="0 0 693 650" version="1.1" xmlns="http://www.w3.org/2000/svg" xmlns:xlink="http://www.w3.org/1999/xlink" xml:space="preserve" xmlns:serif="http://www.serif.com/" style="fill-rule:evenodd;clip-rule:evenodd;stroke-miterlimit:10;">
    <g transform="matrix(1,0,0,1,-753.348,-4709.93)">
        <g transform="matrix(1,0,0,1,683,4565.67)">
            <g transform="matrix(1,0,0,1,-683,-4565.67)">
                <path d="M1099.49,5309.27C1006.05,5252.14 893.924,5149.45 850.318,5063.76C788.023,4949.51 788.023,4852.25 850.318,4795.13C912.612,4738 1037.2,4738 1099.49,4894.2C1161.79,4738 1286.38,4738 1348.67,4795.13C1404.77,4846.57 1410.35,4930.54 1365.42,5030.17M854.35,4904.5C854.35,4854.55 894.901,4814 944.85,4814" style="fill:none;stroke:rgb(9,3,108);stroke-width:10px;"/>
            </g>
        </g>
    </g>
</svg>
