<?xml version="1.0" encoding="UTF-8" standalone="no"?>
<!DOCTYPE svg PUBLIC "-//W3C//DTD SVG 1.1//EN" "http://www.w3.org/Graphics/SVG/1.1/DTD/svg11.dtd">
<svg width="100%" height="100%" viewBox="0 0 611 610" version="1.1" xmlns="http://www.w3.org/2000/svg" xmlns:xlink="http://www.w3.org/1999/xlink" xml:space="preserve" xmlns:serif="http://www.serif.com/" style="fill-rule:evenodd;clip-rule:evenodd;stroke-miterlimit:10;">
    <g transform="matrix(1,0,0,1,-1573.47,-7234.58)">
        <g transform="matrix(1,0,0,1,1462,7074.67)">
            <g transform="matrix(1,0,0,1,-1459.08,-7081.21)">
                <path d="M1630.79,7456.22L2130.36,7456.22L1880.31,7291.37L1630.79,7456.22ZM1688.05,7745.62L1688.05,7456.22M1744.25,7456.22L1744.25,7745.62M1851.94,7745.62L1851.94,7456.22M1909.2,7456.22L1909.2,7545.7M2016.89,7545.7L2016.89,7456.22M2073.1,7456.22L2073.1,7545.7M1878.5,7800.04L1620.81,7800.04L1620.81,7745.62L1878.5,7745.62" style="fill:none;stroke:rgb(9,3,108);stroke-width:10px;"/>
            </g>
        </g>
    </g>
</svg>
