<?xml version="1.0" encoding="UTF-8" standalone="no"?>
<!DOCTYPE svg PUBLIC "-//W3C//DTD SVG 1.1//EN" "http://www.w3.org/Graphics/SVG/1.1/DTD/svg11.dtd">
<svg width="100%" height="100%" viewBox="0 0 667 665" version="1.1" xmlns="http://www.w3.org/2000/svg" xmlns:xlink="http://www.w3.org/1999/xlink" xml:space="preserve" xmlns:serif="http://www.serif.com/" style="fill-rule:evenodd;clip-rule:evenodd;stroke-miterlimit:10;">
    <g transform="matrix(1,0,0,1,-3883.66,-8200.07)">
        <g transform="matrix(1,0,0,1,3799,8066.67)">
            <g transform="matrix(1,0,0,1,-3799,-8066.67)">
                <path d="M3958.16,8439.69L4476.01,8439.69M4217.08,8625.78L3958.16,8625.78M4352.76,8532.18C4352.76,8381.88 4291.97,8259.65 4216.81,8259.65C4142.2,8259.65 4081.4,8381.88 4081.4,8532.18C4081.4,8683.04 4142.2,8805.27 4216.81,8805.27M4491.08,8532.46C4491.22,8409.5 4407.28,8297.85 4282.02,8267.36C4135.01,8231.57 3986.9,8321.32 3950.97,8467.77C3915.05,8614.22 4005.14,8761.77 4152.14,8797.56C4173.15,8803.07 4195.25,8805.27 4216.81,8805.27" style="fill:none;stroke:rgb(6,31,121);stroke-width:11.83px;"/>
            </g>
        </g>
    </g>
</svg>
