<?xml version="1.0" encoding="UTF-8" standalone="no"?>
<!DOCTYPE svg PUBLIC "-//W3C//DTD SVG 1.1//EN" "http://www.w3.org/Graphics/SVG/1.1/DTD/svg11.dtd">
<svg width="100%" height="100%" viewBox="0 0 657 666" version="1.1" xmlns="http://www.w3.org/2000/svg" xmlns:xlink="http://www.w3.org/1999/xlink" xml:space="preserve" xmlns:serif="http://www.serif.com/" style="fill-rule:evenodd;clip-rule:evenodd;stroke-miterlimit:10;">
    <g transform="matrix(1,0,0,1,-771.044,-2340.29)">
        <g transform="matrix(1,0,0,1,683,2208.78)">
            <g transform="matrix(1,0,0,1,-679.367,-2210.2)">
                <path d="M817.66,2391.96L817.66,2957.44L1099.5,2957.44M969.865,2677.55C969.865,2700.92 950.983,2719.73 927.523,2719.73C904.635,2719.73 885.752,2700.92 885.752,2677.55C885.752,2654.75 904.635,2635.94 927.523,2635.94C950.983,2635.94 969.865,2654.75 969.865,2677.55M971.01,2834.31C971.01,2857.68 952.127,2876.49 928.667,2876.49C905.207,2876.49 886.324,2857.68 886.324,2834.31C886.324,2811.51 905.207,2792.7 928.667,2792.7C952.127,2792.7 971.01,2811.51 971.01,2834.31M1122.64,2459.8C1122.64,2483.17 1103.76,2501.41 1080.87,2501.41C1057.41,2501.41 1038.53,2483.17 1038.53,2459.8C1038.53,2436.43 1057.41,2417.62 1080.87,2417.62C1103.76,2417.62 1122.64,2436.43 1122.64,2459.8M1271.99,2512.81C1271.99,2535.61 1253.1,2554.42 1229.64,2554.42C1206.76,2554.42 1187.87,2535.61 1187.87,2512.81C1187.87,2489.44 1206.76,2470.63 1229.64,2470.63C1253.1,2470.63 1271.99,2489.44 1271.99,2512.81M817.66,2533.33L898.34,2647.34M948.694,2641.07L1051.12,2490.01M1101.47,2496.28L1167.15,2671.65M971.01,2832.6L1095.86,2875.91M817.66,2957.44L899.485,2864.52M1271.99,2512.81L1374.07,2512.81M1166.54,2673.28L1212.48,2551" style="fill:none;stroke:rgb(9,3,108);stroke-width:10px;"/>
            </g>
        </g>
    </g>
</svg>
