<?xml version="1.0" encoding="UTF-8" standalone="no"?>
<!DOCTYPE svg PUBLIC "-//W3C//DTD SVG 1.1//EN" "http://www.w3.org/Graphics/SVG/1.1/DTD/svg11.dtd">
<svg width="100%" height="100%" viewBox="0 0 611 665" version="1.1" xmlns="http://www.w3.org/2000/svg" xmlns:xlink="http://www.w3.org/1999/xlink" xml:space="preserve" xmlns:serif="http://www.serif.com/" style="fill-rule:evenodd;clip-rule:evenodd;stroke-miterlimit:10;">
    <g transform="matrix(1,0,0,1,-796.373,-3132.62)">
        <g transform="matrix(1,0,0,1,683,2998.72)">
            <g transform="matrix(0.901005,0,0,1,-601.441,-1490.17)">
                <path d="M1130,2237.86L849.123,2237.86L849.123,1674.31L1414.81,1674.31L1414.81,1954.67M909.569,1933.36L1130,1933.36M909.569,1978.81L1130,1978.81M1216.36,1954.67L1216.36,1913.48L1301.9,1913.48L1301.9,1954.67M909.569,2136.17L1062.96,2136.17M1110.3,2136.17L1130,2136.17M909.569,2090.72L1130,2090.72M909.569,1776.57L1130,1776.57M909.569,1822.02L1002.52,1822.02M1058.15,1822.02L1130,1822.02M1216.36,1840.76L1216.36,1756.12L1300.76,1756.12M1261.98,1805.54L1289.35,1833.38L1354.93,1768.05" style="fill:none;stroke:rgb(9,3,108);stroke-width:10.51px;"/>
            </g>
        </g>
    </g>
</svg>
