<?xml version="1.0" encoding="UTF-8" standalone="no"?>
<!DOCTYPE svg PUBLIC "-//W3C//DTD SVG 1.1//EN" "http://www.w3.org/Graphics/SVG/1.1/DTD/svg11.dtd">
<svg width="100%" height="100%" viewBox="0 0 694 692" version="1.1" xmlns="http://www.w3.org/2000/svg" xmlns:xlink="http://www.w3.org/1999/xlink" xml:space="preserve" xmlns:serif="http://www.serif.com/" style="fill-rule:evenodd;clip-rule:evenodd;stroke-miterlimit:10;">
    <g transform="matrix(1,0,0,1,-3087.19,-3909.12)">
        <g transform="matrix(1,0,0,1,3020,3788.67)">
            <g transform="matrix(1,0,0,1,-3020,-3788.67)">
                <path d="M3317.91,4418.37L3269.51,4370.15L3137.44,4501.72L3186.44,4549.94L3317.91,4418.37ZM3329.26,4359.43L3294.61,4395.15M3259.94,4193.93C3259.94,4302.87 3335.16,4394.87 3436.5,4421.04M3723.61,4251.68C3728.34,4233.19 3730.85,4213.84 3730.85,4193.93C3730.85,4064.74 3625.08,3959.37 3495.4,3959.37C3365.72,3959.37 3259.94,4064.74 3259.94,4193.93" style="fill:none;stroke:rgb(9,3,108);stroke-width:10px;"/>
            </g>
        </g>
    </g>
</svg>
