<?xml version="1.0" encoding="UTF-8" standalone="no"?>
<!DOCTYPE svg PUBLIC "-//W3C//DTD SVG 1.1//EN" "http://www.w3.org/Graphics/SVG/1.1/DTD/svg11.dtd">
<svg width="100%" height="100%" viewBox="0 0 598 596" version="1.1" xmlns="http://www.w3.org/2000/svg" xmlns:xlink="http://www.w3.org/1999/xlink" xml:space="preserve" xmlns:serif="http://www.serif.com/" style="fill-rule:evenodd;clip-rule:evenodd;stroke-miterlimit:10;">
    <g transform="matrix(1,0,0,1,-21.8025,-6303.25)">
        <g transform="matrix(1,0,0,1,-96,6136.67)">
            <g transform="matrix(1,0,0,1,88.9481,-6114.83)">
                <path d="M308.613,6446.61C308.613,6510.06 193.228,6612.44 193.228,6612.44C193.228,6612.44 79.104,6510.06 79.104,6446.61C79.104,6383.17 130.806,6331.67 194.489,6331.67C258.172,6331.67 308.613,6383.17 308.613,6446.61M225.385,6446.61C225.385,6463.57 211.513,6477.39 194.489,6477.39C176.834,6477.39 162.963,6463.57 162.963,6446.61C162.963,6429.03 176.834,6415.21 194.489,6415.21C211.513,6415.21 225.385,6429.03 225.385,6446.61M327.552,6776.25C267.192,6776.25 196.357,6712.24 196.357,6652.52M298,6351L576,6351L576,6579.33M327.552,6827L79.104,6827L79.104,6521" style="fill:none;stroke:rgb(9,3,108);stroke-width:10px;"/>
            </g>
        </g>
    </g>
</svg>
