<?xml version="1.0" encoding="UTF-8" standalone="no"?>
<!DOCTYPE svg PUBLIC "-//W3C//DTD SVG 1.1//EN" "http://www.w3.org/Graphics/SVG/1.1/DTD/svg11.dtd">
<svg width="100%" height="100%" viewBox="0 0 555 681" version="1.1" xmlns="http://www.w3.org/2000/svg" xmlns:xlink="http://www.w3.org/1999/xlink" xml:space="preserve" xmlns:serif="http://www.serif.com/" style="fill-rule:evenodd;clip-rule:evenodd;stroke-miterlimit:10;">
    <g transform="matrix(1,0,0,1,-2380.33,-2333.2)">
        <g transform="matrix(1,0,0,1,2241,2208.78)">
            <g transform="matrix(1.09119,0,0,1.09119,133.83,-641.051)">
                <path d="M259.047,1278.77L51.087,1278.77L51.087,775.04L467.007,775.04L467.007,1014.53M111.887,747.548L141.398,747.548L86.808,747.548L111.887,747.548L111.887,805.471M258.725,747.548L234.009,747.548L282.713,747.548L258.725,747.548L258.725,805.471M404.108,747.548L431.004,747.548L380.847,747.548L404.108,747.548L404.108,805.471M234.009,805.471L282.713,805.471M380.847,805.471L431.004,805.471M86.808,805.471L141.398,805.471" style="fill:none;stroke:rgb(9,3,108);stroke-width:9.16px;"/>
            </g>
        </g>
    </g>
</svg>
