<?xml version="1.0" encoding="UTF-8" standalone="no"?>
<!DOCTYPE svg PUBLIC "-//W3C//DTD SVG 1.1//EN" "http://www.w3.org/Graphics/SVG/1.1/DTD/svg11.dtd">
<svg width="100%" height="100%" viewBox="0 0 642 678" version="1.1" xmlns="http://www.w3.org/2000/svg" xmlns:xlink="http://www.w3.org/1999/xlink" xml:space="preserve" xmlns:serif="http://www.serif.com/" style="fill-rule:evenodd;clip-rule:evenodd;stroke-miterlimit:10;">
    <g transform="matrix(1,0,0,1,-3894.53,-2334.7)">
        <g transform="matrix(1,0,0,1,3799,2208.78)">
            <g id="team" transform="matrix(1,0,0,1,-3795.31,-2208.78)">
                <path d="M4220.82,2961.61L4150.44,2961.61L4131.77,2722.11M4319.29,2673.28L4312.66,2589.57C4309.74,2554.69 4281.15,2528.53 4245.55,2528.53L4171.45,2528.53C4136.44,2528.53 4107.26,2555.27 4104.34,2589.57L4090.34,2766.29L4135.27,2766.29M4267.15,2443.08C4267.15,2474.47 4240.89,2500.63 4208.79,2500.63C4177.28,2500.63 4151.02,2474.47 4151.02,2443.08C4151.02,2411.1 4177.28,2384.94 4208.79,2384.94C4240.89,2384.94 4267.15,2411.1 4267.15,2443.08M4331.12,2553.97L4403.24,2481.85M4043.09,2673.28L3941.09,2673.28M4380.54,2673.28L4482.54,2673.28M4092.51,2553.97L4020.39,2481.85" style="fill:none;stroke:rgb(9,3,108);stroke-width:10px;"/>
            </g>
        </g>
    </g>
</svg>
