<?xml version="1.0" encoding="UTF-8" standalone="no"?>
<!DOCTYPE svg PUBLIC "-//W3C//DTD SVG 1.1//EN" "http://www.w3.org/Graphics/SVG/1.1/DTD/svg11.dtd">
<svg width="100%" height="100%" viewBox="0 0 403 616" version="1.1" xmlns="http://www.w3.org/2000/svg" xmlns:xlink="http://www.w3.org/1999/xlink" xml:space="preserve" xmlns:serif="http://www.serif.com/" style="fill-rule:evenodd;clip-rule:evenodd;stroke-miterlimit:10;">
    <g transform="matrix(1,0,0,1,-900.36,-8224.57)">
        <g transform="matrix(1,0,0,1,683,8066.67)">
            <g transform="matrix(1,0,0,1,-683,-8066.67)">
                <path d="M1099.5,8790.1L974.073,8790.1C960.516,8790.1 950.61,8779.71 950.61,8767.25L950.61,8298.2C950.61,8285.21 961.559,8274.82 974.073,8274.82L1229.04,8274.82C1242.6,8274.82 1252.5,8285.73 1252.5,8298.2L1252.5,8531.17M1101.3,8763.09C1088.78,8763.09 1078.35,8752.7 1078.35,8739.72C1078.35,8726.73 1088.78,8716.34 1101.3,8716.34M950.61,8347.54L1252.5,8347.54M950.61,8688.81L1099.5,8688.81L950.61,8688.81Z" style="fill:none;stroke:rgb(9,3,108);stroke-width:10px;"/>
            </g>
        </g>
    </g>
</svg>
