<?xml version="1.0" encoding="UTF-8" standalone="no"?>
<!DOCTYPE svg PUBLIC "-//W3C//DTD SVG 1.1//EN" "http://www.w3.org/Graphics/SVG/1.1/DTD/svg11.dtd">
<svg width="100%" height="100%" viewBox="0 0 678 676" version="1.1" xmlns="http://www.w3.org/2000/svg" xmlns:xlink="http://www.w3.org/1999/xlink" xml:space="preserve" xmlns:serif="http://www.serif.com/" style="fill-rule:evenodd;clip-rule:evenodd;stroke-miterlimit:10;">
    <g transform="matrix(1,0,0,1,-3098.85,-8194.28)">
        <g transform="matrix(5.90583,0,0,5.90583,3153,8248.45)">
            <g transform="matrix(0.169324,0,0,0.169324,-533.879,-1396.66)">
                <path d="M3286.93,8259.1L3374.25,8259.1L3374.25,8408.86L3344.41,8439.14L3314.01,8468.87L3163.68,8468.87L3163.68,8259.1L3286.93,8259.1M3314.01,8468.87L3314.01,8439.14L3313.46,8408.31L3344.41,8408.86L3374.25,8408.86M3624.61,8259.1L3711.93,8259.1L3711.93,8408.86L3682.08,8439.14L3652.24,8468.87L3501.91,8468.87L3501.91,8259.1L3624.61,8259.1M3652.24,8468.87L3652.24,8408.31L3682.08,8408.86L3711.93,8408.86M3286.93,8596.05L3374.25,8596.05L3374.25,8745.81L3344.41,8775.54L3314.01,8805.27L3163.68,8805.27L3163.68,8596.05L3286.93,8596.05M3314.01,8805.27L3314.01,8775.54L3313.46,8745.81L3374.25,8745.81M3437.81,8254.7L3437.81,8809.67M3716.35,8532.18L3159.26,8532.18" style="fill:none;stroke:rgb(6,31,121);stroke-width:12.02px;"/>
            </g>
        </g>
    </g>
</svg>
