<?xml version="1.0" encoding="UTF-8" standalone="no"?>
<!DOCTYPE svg PUBLIC "-//W3C//DTD SVG 1.1//EN" "http://www.w3.org/Graphics/SVG/1.1/DTD/svg11.dtd">
<svg width="100%" height="100%" viewBox="0 0 526 663" version="1.1" xmlns="http://www.w3.org/2000/svg" xmlns:xlink="http://www.w3.org/1999/xlink" xml:space="preserve" xmlns:serif="http://www.serif.com/" style="fill-rule:evenodd;clip-rule:evenodd;stroke-miterlimit:10;">
    <g transform="matrix(1,0,0,1,-3952.82,-5461.85)">
        <g transform="matrix(1,0,0,1,3799,5328.67)">
            <g transform="matrix(1,0,0,1,-3799.5,-5349)">
                <path d="M4162.96,5749.68C4162.96,5749.68 4152.93,5800.42 4121.71,5807.46C4072.08,5819.52 4003.57,5840.08 4003.57,5927.88L4003.57,6094.57M4428.43,5860.53C4428.59,5814.14 4319.64,5811.48 4304.58,5807.46C4273.36,5800.42 4263.88,5749.68 4263.88,5749.68M4212.59,5771.28C4251.06,5771.28 4271.24,5737.62 4284.95,5706.47C4299.64,5672.31 4305.15,5636.94 4290.46,5588.21C4272.34,5532.44 4222.2,5532.44 4211.05,5532.44C4200.46,5532.44 4150.41,5532.44 4132.3,5588.21C4117.11,5636.44 4125.81,5672.31 4140.5,5706.47C4153.72,5737.62 4174.67,5771.28 4212.59,5771.28M4137.88,5798.92L4212.59,5839.61L4288.41,5798.92M4089,5963L4089,6094.57" style="fill:none;stroke:rgb(9,3,108);stroke-width:10px;"/>
            </g>
        </g>
    </g>
</svg>
