<?xml version="1.0" encoding="UTF-8" standalone="no"?>
<!DOCTYPE svg PUBLIC "-//W3C//DTD SVG 1.1//EN" "http://www.w3.org/Graphics/SVG/1.1/DTD/svg11.dtd">
<svg width="100%" height="100%" viewBox="0 0 572 665" version="1.1" xmlns="http://www.w3.org/2000/svg" xmlns:xlink="http://www.w3.org/1999/xlink" xml:space="preserve" xmlns:serif="http://www.serif.com/" style="fill-rule:evenodd;clip-rule:evenodd;stroke-miterlimit:10;">
    <g transform="matrix(1,0,0,1,-34.9594,-3921.13)">
        <g transform="matrix(1,0,0,1,-96,3788.67)">
            <g transform="matrix(1,0,0,1,96,-3788.67)">
                <path d="M555.791,4253.17L555.791,4110.59C509.911,4095.25 476.431,4075.94 476.431,3998.11L476.431,3996.41C425.591,3978.8 372.89,3970.84 319.57,3971.41C265.63,3970.84 213.549,3978.8 162.709,3996.41L162.709,3998.11C162.709,4075.94 129.849,4095.25 85.209,4110.02L85.209,4320.78C85.209,4391.79 183.789,4482.69 320.19,4534.95M120.474,4133.9L120.474,4309.51C120.474,4368.67 204.279,4451.4 320.236,4494.95" style="fill:none;stroke:rgb(9,3,108);stroke-width:10px;"/>
            </g>
        </g>
    </g>
</svg>
