<?xml version="1.0" encoding="UTF-8" standalone="no"?>
<!DOCTYPE svg PUBLIC "-//W3C//DTD SVG 1.1//EN" "http://www.w3.org/Graphics/SVG/1.1/DTD/svg11.dtd">
<svg width="100%" height="100%" viewBox="0 0 606 618" version="1.1" xmlns="http://www.w3.org/2000/svg" xmlns:xlink="http://www.w3.org/1999/xlink" xml:space="preserve" xmlns:serif="http://www.serif.com/" style="fill-rule:evenodd;clip-rule:evenodd;stroke-miterlimit:10;">
    <g transform="matrix(1,0,0,1,-3133.55,-7230.57)">
        <g transform="matrix(1,0,0,1,3020,7074.67)">
            <g transform="matrix(1.14966,0,0,1.14966,-3481.8,-8156.67)">
                <path d="M3565.56,7471.78L3565.56,7498.89M3283.57,7723.61L3283.57,7555.54L3380.26,7555.54L3380.26,7723.61M3229.77,7471.78L3229.77,7723.61M3223.84,7274.18L3185.03,7409.49C3179.64,7425.6 3183.95,7443.86 3196.35,7456.74C3205.51,7466.94 3218.45,7471.78 3232.46,7471.78C3245.4,7471.78 3257.26,7466.94 3266.96,7457.28L3288.52,7435.8L3311.16,7274.18L3223.84,7274.18ZM3311.16,7274.18L3397.39,7274.18L3397.39,7434.19L3392,7443.86C3383.38,7458.35 3367.75,7467.48 3350.5,7467.48L3337.57,7467.48C3323.01,7467.48 3309,7461.04 3300.38,7449.76L3288.52,7435.26M3482.55,7274.18L3569.87,7274.18L3608.68,7409.49C3613.53,7425.6 3609.22,7443.86 3597.36,7456.74C3587.66,7466.94 3574.72,7472.85 3561.25,7472.85C3548.31,7472.85 3535.91,7467.48 3526.75,7458.35L3505.19,7436.88M3397.39,7434.19C3403.32,7451.37 3426.5,7467.48 3443.75,7467.48L3455.6,7467.48C3470.7,7467.48 3483.63,7461.04 3492.79,7450.3L3505.19,7435.26L3482.55,7274.18L3396.32,7274.18L3396.32,7434.19M3398.83,7723.61L3171.02,7723.61" style="fill:none;stroke:rgb(9,3,108);stroke-width:8.7px;"/>
            </g>
        </g>
    </g>
</svg>
