<?xml version="1.0" encoding="UTF-8" standalone="no"?>
<!DOCTYPE svg PUBLIC "-//W3C//DTD SVG 1.1//EN" "http://www.w3.org/Graphics/SVG/1.1/DTD/svg11.dtd">
<svg width="100%" height="100%" viewBox="0 0 653 653" version="1.1" xmlns="http://www.w3.org/2000/svg" xmlns:xlink="http://www.w3.org/1999/xlink" xml:space="preserve" xmlns:serif="http://www.serif.com/" style="fill-rule:evenodd;clip-rule:evenodd;stroke-miterlimit:10;">
    <g transform="matrix(1,0,0,1,-3889.06,-3926.94)">
        <g transform="matrix(1,0,0,1,3799,3788.67)">
            <g transform="matrix(1,0,0,1,-3801.2,-3790.05)">
                <path d="M3941.51,4383.64L4215.5,4383.64M3941.51,4237.86L4493.89,4237.86M3941.51,4089.86L4493.89,4089.86M4425.19,4163.86L4240.88,4163.86M4051.54,4163.86C4051.54,4176.1 4041.49,4186.12 4029.2,4186.12C4016.91,4186.12 4006.86,4176.1 4006.86,4163.86C4006.86,4151.62 4016.91,4141.6 4029.2,4141.6C4041.49,4141.6 4051.54,4151.62 4051.54,4163.86M4051.54,4310.75C4051.54,4322.99 4041.49,4333.01 4029.2,4333.01C4016.91,4333.01 4006.86,4322.99 4006.86,4310.75C4006.86,4298.51 4016.91,4288.5 4029.2,4288.5C4041.49,4288.5 4051.54,4298.51 4051.54,4310.75M4051.54,4457.64C4051.54,4469.89 4041.49,4479.9 4029.2,4479.9C4016.91,4479.9 4006.86,4469.89 4006.86,4457.64C4006.86,4445.4 4016.91,4435.39 4029.2,4435.39C4041.49,4435.39 4051.54,4445.4 4051.54,4457.64M4215.5,4530.53L3941.51,4530.53L3941.51,4090.97L3995.13,3978.58L4440.28,3978.58L4493.89,4090.97L4493.89,4253.17" style="fill:none;stroke:rgb(9,3,108);stroke-width:10px;"/>
            </g>
        </g>
    </g>
</svg>
