<?xml version="1.0" encoding="UTF-8" standalone="no"?>
<!DOCTYPE svg PUBLIC "-//W3C//DTD SVG 1.1//EN" "http://www.w3.org/Graphics/SVG/1.1/DTD/svg11.dtd">
<svg width="100%" height="100%" viewBox="0 0 577 704" version="1.1" xmlns="http://www.w3.org/2000/svg" xmlns:xlink="http://www.w3.org/1999/xlink" xml:space="preserve" xmlns:serif="http://www.serif.com/" style="fill-rule:evenodd;clip-rule:evenodd;stroke-miterlimit:10;">
    <g transform="matrix(1,0,0,1,-1590.37,-3111.34)">
        <g transform="matrix(1,0,0,1,1462,2998.72)">
            <g transform="matrix(1.3227,0,0,1.18925,-2015.3,-1820.29)">
                <path d="M1944.21,1741.47L2018.37,1741.47L2018.37,1921.21M1841.44,2174.84L1658.67,2174.84L1658.67,1741.47L1730.5,1741.47M1724.66,1849.47L1951.8,1849.47M1725.83,1920.44L1952.97,1920.44M1724.66,1993.15L1838.52,1993.15M1724.66,2065.28L1839.69,2065.28M1877.06,1707.73C1878.81,1686.2 1862.46,1668.75 1840.86,1667.59C1819.25,1667.01 1800.57,1682.71 1799.4,1704.82L1799.4,1708.89L1730.5,1708.89L1730.5,1783.93L1944.21,1783.93L1944.21,1707.73L1877.06,1707.73Z" style="fill:none;stroke:rgb(9,3,108);stroke-width:7.95px;"/>
            </g>
        </g>
    </g>
</svg>
