<?xml version="1.0" encoding="UTF-8" standalone="no"?>
<!DOCTYPE svg PUBLIC "-//W3C//DTD SVG 1.1//EN" "http://www.w3.org/Graphics/SVG/1.1/DTD/svg11.dtd">
<svg width="100%" height="100%" viewBox="0 0 615 547" version="1.1" xmlns="http://www.w3.org/2000/svg" xmlns:xlink="http://www.w3.org/1999/xlink" xml:space="preserve" xmlns:serif="http://www.serif.com/" style="fill-rule:evenodd;clip-rule:evenodd;stroke-miterlimit:10;">
    <g transform="matrix(1,0,0,1,-1571.48,-5520.13)">
        <g transform="matrix(1,0,0,1,1462,5328.67)">
            <g transform="matrix(1,0,0,1,-1463.78,-5329.95)">
                <path d="M1744.65,5973.92L1647.85,5973.92C1635.42,5973.92 1624.55,5963.61 1624.55,5950.72L1624.55,5922.35M1701.69,5930.6L1744.65,5973.92L1701.69,6017.24M2017.98,5615.5L2114.27,5615.5C2127.21,5615.5 2137.05,5626.33 2137.05,5638.71L2137.05,5666.04M2060.95,5657.79L2017.98,5614.98L2060.95,5571.66M1847.15,5821.27L1847.15,5575.28L1656.13,5575.28L1656.13,5821.27M1691.85,5677.39L1727.05,5677.39L1727.05,5710.39L1691.85,5710.39L1691.85,5677.39ZM1691.85,5608.28L1727.05,5608.28L1727.05,5641.29L1691.85,5641.29L1691.85,5608.28ZM1775.19,5608.28L1810.91,5608.28L1810.91,5641.29L1775.19,5641.29L1775.19,5608.28ZM1775.19,5677.39L1810.91,5677.39L1810.91,5710.39L1775.19,5710.39L1775.19,5677.39ZM1716.7,5821.27L1716.7,5744.94L1786.07,5744.94L1786.07,5821.27M1623.52,5821.27L1878.73,5821.27" style="fill:none;stroke:rgb(9,3,108);stroke-width:10px;"/>
            </g>
        </g>
    </g>
</svg>
