<?xml version="1.0" encoding="UTF-8" standalone="no"?>
<!DOCTYPE svg PUBLIC "-//W3C//DTD SVG 1.1//EN" "http://www.w3.org/Graphics/SVG/1.1/DTD/svg11.dtd">
<svg width="100%" height="100%" viewBox="0 0 524 661" version="1.1" xmlns="http://www.w3.org/2000/svg" xmlns:xlink="http://www.w3.org/1999/xlink" xml:space="preserve" xmlns:serif="http://www.serif.com/" style="fill-rule:evenodd;clip-rule:evenodd;stroke-miterlimit:10;">
    <g transform="matrix(1,0,0,1,-3956.45,-7210.48)">
        <g transform="matrix(1,0,0,1,3799,7074.67)">
            <g transform="matrix(1,0,0,1,-3799,-7074.67)">
                <path d="M4217.45,7765.69C4202.16,7765.69 4189.7,7753.28 4189.7,7737.48C4189.7,7722.24 4202.16,7709.83 4217.45,7709.83M4215.5,7820.41L4031.69,7820.41C4017.53,7820.41 4006.77,7809.13 4006.77,7795.59L4006.77,7286.12C4005.64,7272.58 4017.53,7260.73 4031.69,7260.73L4404.34,7260.73C4419.07,7260.73 4429.83,7272.58 4429.83,7286.12L4429.83,7539.17M4215.5,7653.41L4057.18,7653.41L4057.18,7308.13L4378.86,7308.13L4378.86,7539.17" style="fill:none;stroke:rgb(9,3,108);stroke-width:10px;"/>
            </g>
        </g>
    </g>
</svg>
