<?xml version="1.0" encoding="UTF-8" standalone="no"?>
<!DOCTYPE svg PUBLIC "-//W3C//DTD SVG 1.1//EN" "http://www.w3.org/Graphics/SVG/1.1/DTD/svg11.dtd">
<svg width="100%" height="100%" viewBox="0 0 630 678" version="1.1" xmlns="http://www.w3.org/2000/svg" xmlns:xlink="http://www.w3.org/1999/xlink" xml:space="preserve" xmlns:serif="http://www.serif.com/" style="fill-rule:evenodd;clip-rule:evenodd;stroke-miterlimit:10;">
    <g transform="matrix(1,0,0,1,-3897.09,-1544.75)">
        <g transform="matrix(1,0,0,1,3799,1418.83)">
            <g id="person" transform="matrix(1,0,0,1,-1274,-764)">
                <path d="M1686.82,1516.83L1632.44,1516.83L1613.77,1277.33M1801.29,1228.5L1794.66,1144.79C1791.74,1109.91 1763.15,1083.75 1727.55,1083.75L1653.45,1083.75C1618.43,1083.75 1589.26,1110.49 1586.34,1144.79L1572.34,1321.51L1617.27,1321.51M1749.14,998.298C1749.14,1029.69 1722.89,1055.85 1690.79,1055.85C1659.28,1055.85 1633.02,1029.69 1633.02,998.298C1633.02,966.326 1659.28,940.167 1690.79,940.167C1722.89,940.167 1749.14,966.326 1749.14,998.298M1608.12,1409.21L1601.68,1491.83L1484.39,1491.83L1463.77,1277.33M1588.14,1014.24C1588.14,1039.69 1566.86,1060.89 1540.85,1060.89C1515.31,1060.89 1494.02,1039.69 1494.02,1014.24C1494.02,988.328 1515.31,967.125 1540.85,967.125C1566.86,967.125 1588.14,988.328 1588.14,1014.24M1602.34,1088.27C1594.69,1085.35 1586.34,1083.75 1577.55,1083.75L1503.45,1083.75C1468.43,1083.75 1439.26,1110.49 1436.34,1144.79L1422.34,1321.51L1467.27,1321.51M1792.86,1014.24C1792.86,1039.69 1814.14,1060.89 1840.15,1060.89C1865.69,1060.89 1886.98,1039.69 1886.98,1014.24C1886.98,988.328 1865.69,967.125 1840.15,967.125C1814.14,967.125 1792.86,988.328 1792.86,1014.24M1778.66,1088.27C1786.31,1085.35 1794.66,1083.75 1803.45,1083.75L1877.55,1083.75C1912.57,1083.75 1941.74,1110.49 1944.66,1144.79L1951.29,1228.5" style="fill:none;stroke:rgb(9,3,108);stroke-width:10px;"/>
            </g>
        </g>
    </g>
</svg>
