<?xml version="1.0" encoding="UTF-8" standalone="no"?>
<!DOCTYPE svg PUBLIC "-//W3C//DTD SVG 1.1//EN" "http://www.w3.org/Graphics/SVG/1.1/DTD/svg11.dtd">
<svg width="100%" height="100%" viewBox="0 0 621 617" version="1.1" xmlns="http://www.w3.org/2000/svg" xmlns:xlink="http://www.w3.org/1999/xlink" xml:space="preserve" xmlns:serif="http://www.serif.com/" style="fill-rule:evenodd;clip-rule:evenodd;stroke-miterlimit:10;">
    <g transform="matrix(1,0,0,1,-804.1,-1561.07)">
        <g transform="matrix(1,0,0,1,683,1418.83)">
            <g transform="matrix(1,0,0,1,-683,-1418.83)">
                <path d="M1113.87,1960.07C1113.87,1960.07 1022.7,2053.4 970.155,2107.41C944.333,2133.95 901.943,2134.7 875.191,2109.1C875.19,2109.1 875.19,2109.1 875.189,2109.1C861.997,2096.47 854.48,2079.04 854.351,2060.78C854.222,2042.53 861.492,2024.99 874.503,2012.18C943.703,1944.06 1060.87,1828.7 1060.87,1828.7C1047.58,1791.74 1047.58,1750.36 1062.53,1713.39C1096.31,1630.07 1190.47,1589.79 1273.55,1622.9L1174.96,1719.46L1267.45,1810.5L1361.06,1708.97C1378.22,1747.6 1378.22,1792.84 1362.16,1832.57C1353.91,1852.79 1342.08,1870.44 1327.7,1885.08M929,2033C941.142,2033 951,2042.86 951,2055C951,2067.14 941.142,2077 929,2077C916.858,2077 907,2067.14 907,2055C907,2042.86 916.858,2033 929,2033Z" style="fill:none;stroke:rgb(9,3,108);stroke-width:10px;"/>
            </g>
        </g>
    </g>
</svg>
