<?xml version="1.0" encoding="UTF-8" standalone="no"?>
<!DOCTYPE svg PUBLIC "-//W3C//DTD SVG 1.1//EN" "http://www.w3.org/Graphics/SVG/1.1/DTD/svg11.dtd">
<svg width="100%" height="100%" viewBox="0 0 608 611" version="1.1" xmlns="http://www.w3.org/2000/svg" xmlns:xlink="http://www.w3.org/1999/xlink" xml:space="preserve" xmlns:serif="http://www.serif.com/" style="fill-rule:evenodd;clip-rule:evenodd;stroke-miterlimit:10;">
    <g transform="matrix(1,0,0,1,-2354.5,-8227.62)">
        <g transform="matrix(1,0,0,1,2241,8066.67)">
            <g transform="matrix(1,0,0,1,-2241,-8066.67)">
                <path d="M2659.25,8313.81L2659.25,8282M2908.1,8531.17C2892.37,8408.7 2786.37,8313.81 2659.25,8313.81C2521.4,8313.81 2408.89,8425.39 2408.89,8562.72C2408.89,8562.72 2471.22,8515.76 2534.57,8560.7C2534.57,8560.7 2584.92,8534.91 2659.25,8534.45L2659.25,8734.38C2660.26,8760.63 2639.99,8782.34 2614.14,8783.86C2588.29,8784.87 2565.99,8764.67 2564.47,8738.42L2564.47,8734.38M2534.57,8560.19C2534.57,8498.09 2565.99,8312.3 2660.26,8312.3M2659.25,8313.81C2741.61,8313.81 2775.61,8453.74 2782.88,8531.17" style="fill:none;stroke:rgb(6,31,121);stroke-width:10.82px;"/>
            </g>
        </g>
    </g>
</svg>
