<?xml version="1.0" encoding="UTF-8" standalone="no"?>
<!DOCTYPE svg PUBLIC "-//W3C//DTD SVG 1.1//EN" "http://www.w3.org/Graphics/SVG/1.1/DTD/svg11.dtd">
<svg width="100%" height="100%" viewBox="0 0 659 617" version="1.1" xmlns="http://www.w3.org/2000/svg" xmlns:xlink="http://www.w3.org/1999/xlink" xml:space="preserve" xmlns:serif="http://www.serif.com/" style="fill-rule:evenodd;clip-rule:evenodd;stroke-miterlimit:10;">
    <g transform="matrix(1,0,0,1,-1547.1,-4723.1)">
        <g transform="matrix(1,0,0,1,1462,4565.67)">
            <g transform="matrix(1,0,0,1,-1462,-4565.67)">
                <path d="M2039.35,4872.35L2039.35,4977.13M1940.35,4977.35L1940.35,5029.74M1819.35,5078.35L1819.35,5185.93M1713.35,5185.35L1713.35,5289.01M1819.35,4977.35L2152.31,4977.35M1931.35,4872.35L2152.39,4872.35M1713.35,5078.35L1878.5,5078.35M1597.35,5185.35L1878.5,5185.35M2155.28,5027.73L2155.28,4773.35L1932,4773.35L1932,4872.52L1820.07,4872.52L1820.07,4977.3L1713.21,4977.3L1713.21,5078.15L1597.35,5078.15L1597.35,5289.39L1878.5,5289.39" style="fill:none;stroke:rgb(9,3,108);stroke-width:10px;"/>
            </g>
        </g>
    </g>
</svg>
