<?xml version="1.0" encoding="UTF-8" standalone="no"?>
<!DOCTYPE svg PUBLIC "-//W3C//DTD SVG 1.1//EN" "http://www.w3.org/Graphics/SVG/1.1/DTD/svg11.dtd">
<svg width="100%" height="100%" viewBox="0 0 662 657" version="1.1" xmlns="http://www.w3.org/2000/svg" xmlns:xlink="http://www.w3.org/1999/xlink" xml:space="preserve" xmlns:serif="http://www.serif.com/" style="fill-rule:evenodd;clip-rule:evenodd;stroke-miterlimit:10;">
    <g transform="matrix(1,0,0,1,-1549.87,-2346.29)">
        <g transform="matrix(1,0,0,1,1462,2208.78)">
            <g transform="matrix(1,0,0,1,96,-561)">
                <path d="M320.5,1304.48L42.117,1304.48L42.117,748.762L602.776,748.762L602.776,1025.5M42.117,867.564L602.776,867.564M243.887,867.564L243.887,1304.48M132.546,808.444C132.546,820.831 122.938,830.966 109.939,830.966C97.505,830.966 87.332,820.831 87.332,808.444C87.332,796.058 97.505,785.923 109.939,785.923C122.938,785.923 132.546,796.058 132.546,808.444M210.541,808.444C210.541,820.831 200.368,830.966 187.934,830.966C175.5,830.966 165.327,820.831 165.327,808.444C165.327,796.058 175.5,785.923 187.934,785.923C200.368,785.923 210.541,796.058 210.541,808.444" style="fill:none;stroke:rgb(9,3,108);stroke-width:10px;"/>
            </g>
        </g>
    </g>
</svg>
