<?xml version="1.0" encoding="UTF-8" standalone="no"?>
<!DOCTYPE svg PUBLIC "-//W3C//DTD SVG 1.1//EN" "http://www.w3.org/Graphics/SVG/1.1/DTD/svg11.dtd">
<svg width="100%" height="100%" viewBox="0 0 585 584" version="1.1" xmlns="http://www.w3.org/2000/svg" xmlns:xlink="http://www.w3.org/1999/xlink" xml:space="preserve" xmlns:serif="http://www.serif.com/" style="fill-rule:evenodd;clip-rule:evenodd;stroke-miterlimit:10;">
    <g transform="matrix(1,0,0,1,-808.693,-9451.81)">
        <g transform="matrix(1,0,0,1,683,9277.67)">
            <g transform="matrix(1,0,0,1,-683,-9277.67)">
                <path d="M1144.62,9742.17C1144.49,9733.95 1151.98,9727.33 1149.04,9725.38C1142.21,9719.05 1138.79,9717.11 1130.49,9712.24C1127.56,9710.3 1116.32,9721.49 1113.88,9723.92C1110.95,9726.84 1117.16,9741.91 1109.88,9742.17C1091.44,9742.82 1087.51,9716.13 1086.53,9710.78C1086.04,9708.84 1085.55,9704.94 1082.13,9703C1075.3,9699.1 1067.97,9699.1 1061.62,9705.43C1056.25,9709.81 1034.76,9730.24 1033.3,9730.24C1031.83,9730.24 1027.44,9725.38 1021.09,9721C1018.64,9718.57 1014.25,9718.57 1011.81,9721.49C1009.37,9724.41 1010.83,9728.3 1012.78,9730.24C1015.71,9732.68 1023.53,9739.49 1026.95,9742.41C1030.85,9745.81 1033.79,9745.33 1035.74,9743.38C1038.18,9741.43 1039.64,9738.51 1043.55,9739.49C1046.97,9739.98 1059.18,9741.92 1063.09,9746.3C1069.92,9753.6 1068.95,9757.49 1064.07,9762.84C1060.16,9767.22 1040.13,9787.17 1039.16,9792.03C1036.71,9800.79 1050.88,9806.14 1046.97,9817.33C1043.55,9827.55 1039.16,9827.07 1033.3,9829.01C1028.41,9830.96 1024.02,9830.96 1019.62,9839.72C1019.13,9840.2 1011.32,9852.36 1003.02,9865.01C998.133,9872.31 994.225,9880.58 980.062,9873.77C968.341,9867.93 966.876,9866.96 965.899,9861.61C964.922,9855.77 964.922,9853.34 964.434,9849.45C962.969,9838.74 962.969,9835.82 961.992,9828.04C961.504,9823.17 960.527,9814.42 958.573,9810.52C952.713,9800.79 947.34,9797.87 947.34,9790.09C947.829,9783.28 943.922,9776.47 939.038,9775.49C933.665,9774.52 910.223,9773.55 906.316,9770.14C892.641,9757.49 886.292,9752.14 880.92,9746.3C876.036,9740.95 909.734,9676.73 916.572,9672.35C923.898,9667.48 935.131,9677.7 950.271,9679.64C957.108,9680.62 959.55,9689.38 966.387,9688.89C971.271,9688.89 971.76,9683.05 977.62,9684.02C986.9,9685 999.598,9687.92 999.598,9679.16C1000.09,9669.43 995.691,9668.94 989.83,9668.94C984.946,9669.43 982.993,9669.91 973.225,9666.02C962.969,9661.16 963.945,9653.86 953.689,9651.42C952.713,9650.94 944.898,9648.99 937.573,9652.88C930.247,9656.78 924.386,9659.7 919.502,9660.67C913.642,9661.16 910.223,9654.83 906.316,9642.67M1101.18,9984.7C967.853,9984.7 858.942,9876.69 858.942,9743.38C858.942,9610.56 967.853,9502.06 1101.18,9502.06C1235,9502.06 1343.42,9610.56 1343.42,9743.38M1191.56,9742.17C1192.05,9737.3 1185.67,9737.06 1184.7,9729.27C1183.72,9722.95 1185.67,9716.62 1188.12,9713.7C1203.74,9695.7 1248.67,9649.48 1243.79,9645.1C1235,9637.8 1227.67,9630.99 1224.26,9630.02C1212.05,9625.64 1203.74,9629.04 1200.81,9624.18C1199.35,9620.77 1200.81,9615.42 1203.26,9613.47C1205.7,9611.53 1223.28,9612.01 1225.72,9611.53C1233.05,9611.53 1245.26,9630.02 1251.12,9628.56C1255.02,9627.58 1263.33,9618.83 1269.68,9609.58C1277.98,9596.45 1253.07,9583.31 1251.12,9582.34C1245.26,9578.93 1240.86,9578.93 1228.65,9578.93C1207.16,9578.93 1198.86,9580.88 1187.14,9577.47C1177.86,9574.55 1175.42,9567.25 1171.02,9566.77C1131.46,9565.79 1070.9,9564.82 1032.32,9564.82C1023.04,9564.82 1024.02,9576.5 1015.23,9580.88C996.667,9589.63 977.132,9571.63 960.527,9584.77C950.271,9593.04 903.874,9635.37 906.316,9642.67" style="fill:none;stroke:rgb(9,3,108);stroke-width:10px;"/>
            </g>
        </g>
    </g>
</svg>
