<?xml version="1.0" encoding="UTF-8" standalone="no"?>
<!DOCTYPE svg PUBLIC "-//W3C//DTD SVG 1.1//EN" "http://www.w3.org/Graphics/SVG/1.1/DTD/svg11.dtd">
<svg width="100%" height="100%" viewBox="0 0 585 584" version="1.1" xmlns="http://www.w3.org/2000/svg" xmlns:xlink="http://www.w3.org/1999/xlink" xml:space="preserve" xmlns:serif="http://www.serif.com/" style="fill-rule:evenodd;clip-rule:evenodd;stroke-miterlimit:10;">
    <g transform="matrix(1,0,0,1,-1587.09,-9451.45)">
        <g transform="matrix(1,0,0,1,1462,9277.67)">
            <g transform="matrix(1,0,0,1,-1462,-9277.67)">
                <path d="M1640.28,9707.02C1641.25,9706.05 1641.74,9705.56 1642.23,9705.08C1649.07,9699.24 1655.9,9698.75 1663.23,9703.13C1666.16,9704.59 1667.14,9708.48 1667.62,9710.43C1668.6,9715.78 1676.41,9741.57 1678.37,9746.92C1679.83,9750.81 1691.07,9751.3 1690.58,9742.54C1690.58,9734.27 1692.04,9726.48 1694.97,9723.56C1697.42,9721.13 1708.16,9710.43 1711.58,9711.89C1719.39,9716.75 1722.81,9719.18 1730.14,9725.02C1732.58,9727.46 1732.58,9730.38 1726.23,9740.59C1718.42,9754.22 1717.93,9758.11 1721.35,9762C1730.14,9770.27 1741.86,9785.35 1746.26,9787.79C1750.65,9789.73 1756.02,9787.3 1754.56,9781.95C1753.58,9776.11 1749.18,9772.7 1753.58,9761.51C1757.98,9751.3 1771.16,9751.3 1771.65,9743.51C1772.14,9738.16 1766.77,9736.7 1765.79,9729.4C1764.81,9722.59 1766.77,9716.75 1769.21,9713.83C1784.84,9695.83 1829.77,9649.12 1824.4,9644.74C1816.09,9637.45 1808.28,9630.64 1805.35,9629.66C1793.14,9625.28 1784.84,9628.69 1781.91,9623.82C1779.95,9620.42 1781.42,9615.55 1784.35,9613.12C1786.79,9611.17 1804.37,9611.66 1806.82,9611.66C1814.14,9611.17 1826.35,9630.15 1831.72,9628.69C1836.12,9627.23 1844.42,9618.47 1850.28,9609.23C1859.07,9596.58 1834.16,9583.44 1832.21,9581.98C1825.86,9579.06 1821.47,9579.06 1809.26,9579.06L1806.33,9579.06C1787.28,9579.06 1779.47,9580.52 1768.23,9577.11C1767.26,9577.11 1766.28,9576.63 1765.79,9576.63C1765.3,9576.14 1764.81,9576.14 1764.33,9575.66C1763.84,9575.66 1763.35,9575.17 1762.86,9575.17C1759.93,9572.74 1757.49,9570.3 1756.02,9568.84C1755.53,9568.36 1755.05,9568.36 1755.05,9567.87L1754.07,9567.87L1753.58,9567.39C1753.09,9566.9 1753.09,9566.9 1752.6,9566.9L1751.63,9566.9C1740.88,9566.41 1728.67,9566.41 1715.49,9565.93M2046.12,9567.87L2021.71,9567.87C2009.5,9567.87 2013.89,9582.47 2006.57,9582.47C1998.26,9581.98 1928.91,9581.49 1923.05,9581.49C1916.7,9581.49 1894.24,9612.63 1895.21,9619.44C1896.68,9625.28 1904.49,9623.82 1908.89,9623.34C1918.65,9622.36 1916.7,9612.15 1920.12,9611.17C1924.03,9610.2 1936.24,9607.77 1938.68,9607.28C1942.1,9606.79 1947.47,9625.77 1948.45,9626.74C1949.91,9627.72 1960.66,9630.64 1961.63,9634.53C1963.59,9639.88 1959.19,9644.26 1957.73,9647.18C1957.24,9648.15 1950.89,9657.88 1950.89,9661.29C1950.4,9667.12 1951.38,9690.48 1956.26,9695.83C1959.19,9699.24 1997.29,9734.27 2001.68,9737.67C2002.88,9738.72 2004.86,9740.35 2007.08,9742.17C2008.06,9742.96 2009.43,9744.14 2010.99,9745.57M2101.8,9646.2C2097.41,9648.64 2093.01,9648.64 2091.54,9649.12C2085.68,9650.1 2083.73,9650.1 2078.36,9651.07C2074.45,9652.04 2071.03,9653.5 2066.15,9658.37C2055.89,9669.07 2049.54,9674.91 2039.78,9684.64C2034.89,9689.51 2033.91,9690.97 2029.52,9692.43C2026.1,9693.89 2014.38,9690.97 2007.05,9689.99C2001.68,9688.53 1997.29,9686.59 1995.82,9692.91C1995.33,9697.29 1994.36,9705.56 1993.87,9708.97C1993.38,9710.91 1997.77,9714.81 2000.22,9717.24C2002.17,9718.7 2015.36,9707.02 2018.29,9709.94C2021.71,9713.83 2014.38,9722.59 2019.26,9729.4C2021.25,9732.04 2027.96,9737.81 2033.13,9742.17L2047.38,9742.17C2051.41,9735.56 2066.04,9739.49 2068.2,9742.17M1833.68,9808.22C1826.35,9811.63 1776.05,9835.95 1770.19,9839.36C1765.79,9841.79 1767.74,9853.96 1768.23,9858.82C1768.72,9862.23 1770.19,9875.36 1774.09,9873.9C1778.98,9871.96 1790.21,9867.58 1795.58,9865.15C1800.47,9862.71 1807.79,9863.2 1813.65,9869.04C1818.05,9873.9 1820.49,9877.31 1826.84,9883.64C1832.7,9888.99 1842.95,9877.31 1853.21,9866.12C1862,9857.36 1869.82,9848.6 1867.38,9844.23C1863.47,9838.39 1856.63,9827.2 1854.19,9823.3C1850.77,9818.44 1843.93,9803.84 1833.68,9808.22M1809.26,9579.06C1788.26,9578.58 1776.54,9579.55 1768.23,9577.11C1760.42,9575.66 1756.51,9566.9 1751.63,9566.9M1879.58,9984.35C1746.26,9984.35 1637.34,9876.34 1637.34,9743.02C1637.34,9610.2 1746.26,9501.7 1879.58,9501.7C2013.4,9501.7 2121.82,9610.2 2121.82,9743.02" style="fill:none;stroke:rgb(9,3,108);stroke-width:10px;"/>
            </g>
        </g>
    </g>
</svg>
