<?xml version="1.0" encoding="UTF-8" standalone="no"?>
<!DOCTYPE svg PUBLIC "-//W3C//DTD SVG 1.1//EN" "http://www.w3.org/Graphics/SVG/1.1/DTD/svg11.dtd">
<svg width="100%" height="100%" viewBox="0 0 585 584" version="1.1" xmlns="http://www.w3.org/2000/svg" xmlns:xlink="http://www.w3.org/1999/xlink" xml:space="preserve" xmlns:serif="http://www.serif.com/" style="fill-rule:evenodd;clip-rule:evenodd;stroke-miterlimit:10;">
    <g transform="matrix(1,0,0,1,-29.095,-9451.45)">
        <g transform="matrix(1,0,0,1,-96,9277.67)">
            <g transform="matrix(1,0,0,1,96,-9277.67)">
                <path d="M390.935,9556.68C383.61,9556.68 375.795,9575.17 379.214,9575.17C382.144,9575.66 388.005,9575.66 391.424,9575.66C394.354,9575.66 390.447,9600.47 391.912,9603.88C392.889,9606.79 395.819,9609.71 398.75,9609.71C406.564,9609.71 409.982,9599.01 413.401,9597.06C416.82,9594.63 472.008,9556.68 468.101,9556.68L390.935,9556.68M513.032,9595.12C495.939,9610.69 468.589,9636.96 470.542,9642.31C474.45,9654.48 477.868,9660.8 483.729,9660.31C488.613,9659.34 494.473,9656.42 501.799,9652.53C509.125,9648.64 516.939,9650.58 517.916,9651.07C528.172,9653.5 527.195,9661.29 537.451,9665.67C545.754,9669.07 548.684,9669.07 552.103,9669.07M444.854,9742.17C447.391,9727.11 474.718,9675.89 480.799,9671.99C488.124,9667.61 499.357,9677.34 514.497,9679.29C521.335,9680.26 524.265,9689.02 530.614,9688.53C535.498,9688.53 535.986,9682.69 541.847,9683.67C546.731,9684.15 552.591,9685.13 556.987,9684.64M339.397,9742.17C337.979,9740.95 336.297,9739.48 334.282,9737.67C329.726,9733.36 324.851,9735.93 320.5,9739.5C315.523,9743.59 311.231,9748.99 308.886,9746.92C305.468,9744 292.281,9733.29 289.351,9729.4C284.467,9722.59 291.793,9713.83 288.374,9709.94C285.444,9707.02 272.257,9718.7 270.304,9717.24C267.862,9714.81 263.466,9710.91 263.955,9708.97C264.443,9705.56 265.42,9697.29 265.908,9692.91C267.373,9686.59 271.769,9688.53 277.141,9689.51C284.467,9690.97 296.188,9693.89 299.607,9692.43C304.002,9690.97 304.979,9689.51 309.863,9684.64C319.631,9674.91 325.98,9668.59 336.236,9658.37C341.12,9653.5 344.539,9651.56 348.446,9651.07C354.306,9650.1 356.26,9650.1 361.632,9649.12C363.586,9648.64 372.377,9648.15 376.772,9642.8C380.191,9637.93 387.517,9631.12 382.144,9627.72C377.26,9624.31 373.842,9620.42 368.958,9617.5C366.028,9615.07 365.539,9607.77 367.981,9604.85C370.423,9601.93 375.795,9597.55 377.749,9595.6C379.702,9593.17 359.19,9568.84 353.818,9568.36C337.213,9567.87 298.142,9567.87 291.793,9567.87C279.583,9567.87 283.979,9582.47 276.653,9582.47C268.35,9581.98 198.999,9581.49 193.627,9581.49C186.79,9581.49 164.324,9612.63 165.789,9619.44L165.3,9619.44C166.766,9625.28 174.58,9623.82 178.975,9623.34C188.743,9622.85 186.79,9612.15 190.208,9611.17C194.115,9610.2 206.325,9607.77 208.767,9607.28C212.186,9606.79 217.558,9625.77 218.535,9626.74C220,9627.72 230.744,9630.64 231.721,9634.53C233.675,9639.88 229.279,9644.26 227.814,9647.18C227.326,9648.15 220.977,9657.88 220.977,9661.29C220.488,9667.12 221.465,9690.48 226.349,9695.83C229.279,9699.72 267.373,9734.27 271.769,9737.67C275.676,9741.08 287.886,9750.81 289.839,9752.27C293.258,9755.19 297.165,9760.54 296.188,9765.89C295.211,9770.76 294.723,9788.76 294.235,9794.11C294.235,9797.03 299.607,9803.36 303.514,9807.25C307.91,9811.14 316.212,9817.95 318.654,9820.87M321.584,9984.35C188.255,9984.35 79.344,9876.34 79.344,9743.02C79.344,9610.2 188.255,9501.7 321.584,9501.7C455.402,9501.7 563.824,9610.2 563.824,9743.02" style="fill:none;stroke:rgb(9,3,108);stroke-width:10px;"/>
            </g>
        </g>
    </g>
</svg>
