<?xml version="1.0" encoding="UTF-8" standalone="no"?>
<!DOCTYPE svg PUBLIC "-//W3C//DTD SVG 1.1//EN" "http://www.w3.org/Graphics/SVG/1.1/DTD/svg11.dtd">
<svg width="100%" height="100%" viewBox="0 0 386 387" version="1.1" xmlns="http://www.w3.org/2000/svg" xmlns:xlink="http://www.w3.org/1999/xlink" xml:space="preserve" xmlns:serif="http://www.serif.com/" style="fill-rule:evenodd;clip-rule:evenodd;stroke-miterlimit:10;">
    <g transform="matrix(1,0,0,1,-5288.94,-2772.45)">
        <g transform="matrix(2.28571,0,0,2.28571,-1275.07,2806.23)">
            <g transform="matrix(0.4375,0,0,0.4375,557.844,-1227.72)">
                <path d="M5623.77,3075.46L5339.19,3075.46M5586.68,3108.57L5624.07,3075.46L5588.76,3042.65M5373.32,2886.56C5329.99,2929.72 5329.99,2999.78 5373.32,3042.94C5416.35,3086.1 5486.68,3086.1 5530,3043.24C5573.33,3000.08 5573.62,2930.01 5530.3,2886.85C5506.26,2862.91 5472.73,2851.38 5438.9,2855.22M5475.4,2822.7L5438.9,2855.22L5476.29,2888.33" style="fill:none;stroke:rgb(9,3,108);stroke-width:10px;"/>
            </g>
        </g>
    </g>
</svg>
