<?xml version="1.0" encoding="UTF-8" standalone="no"?>
<!DOCTYPE svg PUBLIC "-//W3C//DTD SVG 1.1//EN" "http://www.w3.org/Graphics/SVG/1.1/DTD/svg11.dtd">
<svg width="100%" height="100%" viewBox="0 0 373 356" version="1.1" xmlns="http://www.w3.org/2000/svg" xmlns:xlink="http://www.w3.org/1999/xlink" xml:space="preserve" xmlns:serif="http://www.serif.com/" style="fill-rule:evenodd;clip-rule:evenodd;stroke-miterlimit:10;">
    <g transform="matrix(1,0,0,1,-6532.55,-3248.04)">
        <g transform="matrix(2.28571,0,0,2.28571,-38.6786,3265.23)">
            <g transform="matrix(0.4375,0,0,0.4375,16.9219,-1428.54)">
                <path d="M6582.8,3417.17C6582.8,3371.26 6606.11,3330.83 6640.94,3305.69C6653.56,3296.94 6673.86,3294.76 6682.09,3305.69C6693.88,3320.99 6672.49,3342.85 6682.09,3355.69C6706.77,3385.47 6758.33,3326.73 6818.95,3355.69C6862.56,3377.55 6856.25,3434.38 6851.04,3454.33C6834.85,3511.7 6782.19,3553.24 6719.39,3553.24C6644.24,3553.78 6582.8,3492.58 6582.8,3417.17M6809.9,3408.15C6809.9,3423.18 6797.55,3435.2 6782.47,3435.2C6767.66,3435.2 6755.32,3423.18 6755.32,3408.15C6755.32,3393.12 6767.66,3381.1 6782.47,3381.1C6797.55,3381.1 6809.9,3393.12 6809.9,3408.15M6655.21,3408.15C6655.21,3417.99 6647.25,3425.91 6637.38,3425.91C6627.51,3425.91 6619.28,3417.99 6619.28,3408.15C6619.28,3398.31 6627.51,3390.12 6637.38,3390.12C6647.25,3390.12 6655.21,3398.31 6655.21,3408.15M6673.31,3470.99C6673.31,3480.83 6665.36,3489.03 6655.21,3489.03C6645.33,3489.03 6637.38,3480.83 6637.38,3470.99C6637.38,3461.16 6645.33,3453.23 6655.21,3453.23C6665.36,3453.23 6673.31,3461.16 6673.31,3470.99M6736.94,3498.04C6736.94,3508.15 6728.99,3516.08 6718.84,3516.08C6708.96,3516.08 6701.01,3508.15 6701.01,3498.04C6701.01,3488.21 6708.96,3480.28 6718.84,3480.28C6728.99,3480.28 6736.94,3488.21 6736.94,3498.04" style="fill:none;stroke:rgb(9,3,108);stroke-width:10px;"/>
            </g>
        </g>
    </g>
</svg>
