<?xml version="1.0" encoding="UTF-8" standalone="no"?>
<!DOCTYPE svg PUBLIC "-//W3C//DTD SVG 1.1//EN" "http://www.w3.org/Graphics/SVG/1.1/DTD/svg11.dtd">
<svg width="100%" height="100%" viewBox="0 0 388 354" version="1.1" xmlns="http://www.w3.org/2000/svg" xmlns:xlink="http://www.w3.org/1999/xlink" xml:space="preserve" xmlns:serif="http://www.serif.com/" style="fill-rule:evenodd;clip-rule:evenodd;stroke-miterlimit:10;">
    <g transform="matrix(1,0,0,1,-791.435,-5081.56)">
        <g transform="matrix(2.28571,0,0,2.28571,-5772.57,5097.23)">
            <g transform="matrix(0.4375,0,0,0.4375,2525.5,-2230.04)">
                <path d="M1001.75,5257.95C1001.75,5267.16 994.241,5274.64 984.995,5274.64C976.038,5274.64 968.526,5267.16 968.526,5257.95C968.526,5249.02 976.038,5241.54 984.995,5241.54C994.241,5241.54 1001.75,5249.02 1001.75,5257.95M1025.45,5226.57C1078.9,5293.93 1104.04,5362.72 1081.79,5380.28C1059.54,5397.84 998.286,5357.25 944.833,5289.61C891.381,5222.25 866.243,5153.46 888.491,5135.9C910.739,5118.34 971.993,5158.93 1025.45,5226.57M1083.52,5137.05C1105.48,5154.9 1079.19,5223.41 1025.16,5290.19C970.837,5356.96 909.006,5396.97 886.758,5379.13C864.799,5361.28 891.092,5292.78 945.122,5226C999.442,5159.22 1061.27,5119.21 1083.52,5137.05M1128.31,5257.95C1128.31,5286.44 1064.16,5309.18 984.995,5309.18C906.116,5309.18 841.684,5286.44 841.684,5257.95C841.684,5229.74 906.116,5207 984.995,5207C1064.16,5207 1128.31,5229.74 1128.31,5257.95" style="fill:none;stroke:rgb(9,3,108);stroke-width:10px;"/>
            </g>
        </g>
    </g>
</svg>
