<?xml version="1.0" encoding="UTF-8" standalone="no"?>
<!DOCTYPE svg PUBLIC "-//W3C//DTD SVG 1.1//EN" "http://www.w3.org/Graphics/SVG/1.1/DTD/svg11.dtd">
<svg width="100%" height="100%" viewBox="0 0 355 327" version="1.1" xmlns="http://www.w3.org/2000/svg" xmlns:xlink="http://www.w3.org/1999/xlink" xml:space="preserve" xmlns:serif="http://www.serif.com/" style="fill-rule:evenodd;clip-rule:evenodd;stroke-miterlimit:10;">
    <g transform="matrix(1,0,0,1,-6541.69,-2804.57)">
        <g transform="matrix(2.28571,0,0,2.28571,-38.6786,2806.23)">
            <g transform="matrix(0.4375,0,0,0.4375,16.9219,-1227.72)">
                <path d="M6623.9,2854.82L6623.9,3002.83M6655.35,2854.82L6655.35,2976.59M6813.9,2854.82L6813.9,2976.59M6655.35,2992.13L6655.35,3002.83M6813.9,2992.13L6813.9,3002.83M6687.06,2854.82L6687.06,3002.83M6718.77,2854.82L6718.77,3002.83M6750.74,2854.82L6750.74,3002.83M6782.19,2854.82L6782.19,3002.83M6620,3043L6627.13,3035.87L6627.13,3076M6652,3043L6659.13,3035.87L6659.13,3076M6807,3043L6814.13,3035.87L6814.13,3076M6692,3043C6693.29,3022.26 6724.72,3029.83 6717.89,3045L6698,3070L6724,3070M6750.19,3043C6751.48,3022.26 6782.92,3029.83 6776.09,3045L6754.19,3070L6782.19,3070M6591.94,2854.82L6591.94,3080.53M6845.61,2854.82L6845.61,3080.53" style="fill:none;stroke:rgb(9,3,108);stroke-width:10px;"/>
            </g>
        </g>
    </g>
</svg>
