<?xml version="1.0" encoding="UTF-8" standalone="no"?>
<!DOCTYPE svg PUBLIC "-//W3C//DTD SVG 1.1//EN" "http://www.w3.org/Graphics/SVG/1.1/DTD/svg11.dtd">
<svg width="100%" height="100%" viewBox="0 0 377 376" version="1.1" xmlns="http://www.w3.org/2000/svg" xmlns:xlink="http://www.w3.org/1999/xlink" xml:space="preserve" xmlns:serif="http://www.serif.com/" style="fill-rule:evenodd;clip-rule:evenodd;stroke-miterlimit:10;">
    <g transform="matrix(1,0,0,1,-5706.02,-2779.01)">
        <g transform="matrix(2.28571,0,0,2.28571,-863.071,2806.23)">
            <g transform="matrix(0.4375,0,0,0.4375,377.594,-1227.72)">
                <path d="M5894.46,2829.26L5894.46,3104.58M6032.65,2966.92L5756.27,2966.92M5799.18,3066.56C5826.76,3040.19 5842.08,3004.39 5842.08,2966.92C5842.08,2929.73 5826.76,2893.37 5799.18,2867.56M5990.02,3066.56C5934.58,3014.66 5932.91,2926.95 5985,2872C5986.4,2870.61 5988.07,2868.95 5990.02,2867.01M6032.65,2966.92C6032.65,3042.97 5970.8,3104.58 5894.46,3104.58C5818.4,3104.58 5756.27,3042.97 5756.27,2966.92C5756.27,2891.15 5818.4,2829.26 5894.46,2829.26C5970.8,2829.26 6032.65,2891.15 6032.65,2966.92" style="fill:none;stroke:rgb(9,3,108);stroke-width:10px;"/>
            </g>
        </g>
    </g>
</svg>
