<?xml version="1.0" encoding="UTF-8" standalone="no"?>
<!DOCTYPE svg PUBLIC "-//W3C//DTD SVG 1.1//EN" "http://www.w3.org/Graphics/SVG/1.1/DTD/svg11.dtd">
<svg width="100%" height="100%" viewBox="0 0 392 251" version="1.1" xmlns="http://www.w3.org/2000/svg" xmlns:xlink="http://www.w3.org/1999/xlink" xml:space="preserve" xmlns:serif="http://www.serif.com/" style="fill-rule:evenodd;clip-rule:evenodd;stroke-miterlimit:10;">
    <g transform="matrix(1,0,0,1,-5698.59,-1579.04)">
        <g transform="matrix(2.28571,0,0,2.28571,-863.071,1543.5)">
            <g transform="matrix(0.473257,0,0,0.473257,166.829,-736.226)">
                <path d="M5759.84,1634.97L6029.03,1634.97L6029.03,1773.92L5759.84,1773.92L5759.84,1634.97ZM5994.84,1634.97C5994.84,1654.43 6010.57,1669.3 6029.03,1669.3M6029.03,1739.32C6009.49,1739.32 5994.84,1755 5994.84,1773.38M5794.31,1773.38C5794.31,1753.91 5778.57,1739.32 5759.84,1739.32M5759.84,1669.3C5779.38,1669.3 5794.31,1653.62 5794.31,1634.97M5894.5,1656.13C5921.27,1656.13 5943,1677.86 5943,1704.63C5943,1731.39 5921.27,1753.13 5894.5,1753.13C5867.73,1753.13 5846,1731.39 5846,1704.63C5846,1677.86 5867.73,1656.13 5894.5,1656.13ZM5784,1689L5820,1689M5969,1689L6005,1689M5784,1713L5820,1713M5969,1713L6005,1713" style="fill:none;stroke:rgb(9,3,108);stroke-width:9.24px;"/>
            </g>
        </g>
    </g>
</svg>
