<?xml version="1.0" encoding="UTF-8" standalone="no"?>
<!DOCTYPE svg PUBLIC "-//W3C//DTD SVG 1.1//EN" "http://www.w3.org/Graphics/SVG/1.1/DTD/svg11.dtd">
<svg width="100%" height="100%" viewBox="0 0 372 323" version="1.1" xmlns="http://www.w3.org/2000/svg" xmlns:xlink="http://www.w3.org/1999/xlink" xml:space="preserve" xmlns:serif="http://www.serif.com/" style="fill-rule:evenodd;clip-rule:evenodd;stroke-miterlimit:10;">
    <g transform="matrix(1,0,0,1,-1623.58,-5537.62)">
        <g transform="matrix(2.28571,0,0,2.28571,-4948.18,5538.23)">
            <g transform="matrix(0.4375,0,0,0.4375,2164.83,-2422.97)">
                <path d="M1876.35,5698.22C1890.84,5685.15 1912.15,5687.33 1925.27,5701.21C1926.64,5702.57 1928.83,5704.75 1929.64,5706.39M1788.89,5662.55C1789.17,5636.69 1807.2,5614.09 1832.08,5607.01M1764.3,5746.14C1762.93,5742.05 1762.11,5738.79 1762.11,5734.7C1762.11,5720 1771.4,5706.39 1785.34,5700.67M1796.27,5634.51C1786.71,5639.41 1775.23,5640.23 1764.84,5637.23M1765.66,5719.46C1765.66,5719.46 1760.74,5703.94 1730.13,5695.5M1824.69,5759.48C1824.69,5759.48 1849.29,5724.36 1879.9,5732.25M1889.74,5770.91C1895.48,5768.74 1899.85,5764.38 1902.04,5759.21C1921.44,5758.39 1936.2,5741.78 1934.84,5722.45C1934.56,5717.01 1932.65,5711.29 1929.64,5706.39C1944.13,5697.4 1948.78,5678.61 1939.76,5663.64C1934.02,5654.65 1924.45,5649.48 1913.52,5648.94C1907.23,5623.34 1882.36,5604.01 1852.57,5604.01C1845.74,5604.01 1838.63,5605.37 1832.08,5607.01C1820.32,5587.95 1794.9,5582.23 1775.77,5593.94C1768.67,5598.3 1763.48,5604.56 1759.92,5611.36C1756.1,5610.28 1752,5609.73 1748.17,5609.73C1726.85,5609.73 1709.36,5627.16 1709.36,5648.39C1689.96,5648.12 1674.38,5663.37 1673.83,5682.43C1673.83,5693.32 1678.75,5703.94 1687.5,5710.47C1684.76,5715.1 1683.4,5720.27 1684.76,5725.72C1686.13,5730.35 1688.59,5734.7 1692.69,5737.7C1697.34,5742.6 1704.44,5744.23 1711,5742.6C1722.75,5758.39 1745.16,5761.39 1760.47,5749.68C1761.84,5748.59 1762.93,5747.5 1764.3,5746.14C1770.85,5764.93 1791.9,5774.73 1810.76,5768.19C1815.95,5766.56 1820.87,5763.56 1824.69,5759.48C1830.71,5771.73 1843.55,5779.08 1856.94,5779.08L1861.32,5779.08L1884.55,5809.58C1884.55,5809.58 1896.3,5784.8 1887.56,5771.46L1889.74,5770.91ZM1897.67,5646.76C1890.84,5659.83 1890.29,5675.89 1896.85,5688.96" style="fill:none;stroke:rgb(9,3,108);stroke-width:10px;"/>
            </g>
        </g>
    </g>
</svg>
