<?xml version="1.0" encoding="UTF-8" standalone="no"?>
<!DOCTYPE svg PUBLIC "-//W3C//DTD SVG 1.1//EN" "http://www.w3.org/Graphics/SVG/1.1/DTD/svg11.dtd">
<svg width="100%" height="100%" viewBox="0 0 335 379" version="1.1" xmlns="http://www.w3.org/2000/svg" xmlns:xlink="http://www.w3.org/1999/xlink" xml:space="preserve" xmlns:serif="http://www.serif.com/" style="fill-rule:evenodd;clip-rule:evenodd;stroke-miterlimit:10;">
    <g transform="matrix(1,0,0,1,-2053.68,-5509.35)">
        <g transform="matrix(3.00408,0,0,3.00408,2076,5554.18)">
            <g transform="matrix(0.33288,0,0,0.33288,-691.059,-1848.88)">
                <path d="M2220.87,5583.41C2220.87,5570.52 2231.83,5559.6 2244.77,5559.6C2257.98,5559.6 2268.1,5570.52 2268.1,5583.41C2268.1,5584.81 2268.1,5586.21 2267.82,5587.61M2326.57,5722.32C2333.32,5726.52 2337.53,5734.08 2337.53,5742.2C2337.53,5753.68 2328.82,5763.48 2317.58,5765.44C2316.73,5765.72 2315.33,5765.72 2314.2,5765.72C2311.39,5765.72 2308.58,5765.44 2306.33,5764.6M2317.58,5765.44C2321.23,5770.2 2323.48,5776.09 2323.48,5782.81C2323.48,5799.05 2310.55,5811.93 2294.24,5811.93C2291.99,5811.93 2290.31,5811.65 2288.06,5811.09C2277.66,5808.85 2269.5,5801.29 2266.41,5791.77M2220.87,5803.53C2220.87,5822.3 2236.33,5837.42 2255.17,5837.42C2271.47,5837.42 2284.97,5826.22 2288.34,5811.65M2254.32,5605.81C2255.73,5594.33 2265.57,5584.81 2277.66,5584.81C2290.59,5584.81 2300.99,5595.45 2300.99,5608.61C2300.99,5612.53 2300.15,5616.17 2298.46,5619.81M2292.84,5732.12C2295.65,5733.24 2298.74,5733.52 2301.55,5733.52C2311.39,5733.52 2320.39,5729.6 2326.57,5722.88C2332.47,5716.43 2336.13,5708.03 2336.13,5699.07C2336.13,5687.31 2330.23,5677.51 2321.79,5671.35C2324.32,5666.3 2326.29,5660.42 2326.29,5654.82C2326.29,5635.5 2310.55,5620.09 2291.71,5620.09C2272.32,5620.09 2256.85,5635.78 2256.85,5654.82L2256.85,5658.18M2238.02,5673.03C2238.86,5674.98 2240.27,5676.67 2242.24,5678.07C2247.01,5682.83 2253.76,5685.63 2260.51,5685.07C2266.97,5685.07 2273.16,5682.55 2277.66,5677.51C2283.56,5671.62 2285.81,5663.22 2284.4,5655.66M2269.22,5683.39C2271.75,5688.43 2275.97,5692.35 2281.31,5694.59C2288.9,5698.23 2297.34,5697.39 2304.08,5693.19M2290.59,5794.57C2289.74,5793.73 2288.34,5792.33 2287.22,5791.49C2283,5788.69 2277.66,5787.85 2273.16,5788.69C2268.66,5789.53 2264.72,5792.33 2261.91,5796.25C2258.82,5801.29 2257.98,5807.17 2260.23,5812.49M2277.66,5769.36C2279.06,5767.68 2279.91,5765.72 2280.47,5763.48C2282.72,5756.76 2281.59,5749.76 2278.5,5743.88C2275.97,5738.56 2270.35,5734.08 2264.16,5731.84C2256.01,5729.04 2247.86,5730.44 2241.67,5734.92M2220.87,5766.84C2221.43,5766.28 2221.99,5766.28 2222.28,5765.72C2228.18,5762.64 2235.49,5761.8 2242.24,5764.04C2244.49,5764.88 2246.17,5765.72 2247.86,5766.84M2220.87,5639.98C2224.53,5639.42 2228.74,5639.42 2232.68,5640.82C2234.93,5641.38 2236.61,5642.22 2238.58,5643.62M2220.87,5583.41L2220.87,5803.53M2174.2,5587.61C2173.64,5586.21 2173.64,5584.81 2173.64,5583.41C2173.64,5570.52 2184.04,5559.6 2197.26,5559.6C2210.19,5559.6 2220.87,5570.52 2220.87,5583.41M2135.41,5764.6C2133.16,5765.44 2130.63,5765.72 2127.82,5765.72C2126.41,5765.72 2125.29,5765.72 2123.88,5765.44C2112.64,5763.48 2103.93,5753.68 2103.93,5742.2C2103.93,5733.52 2108.42,5726.52 2114.89,5722.32M2174.77,5791.77C2171.39,5801.57 2163.52,5808.85 2153.4,5811.09C2151.72,5811.65 2149.47,5811.93 2147.22,5811.93C2130.91,5811.93 2117.98,5799.05 2117.98,5782.81C2117.98,5776.09 2120.23,5770.2 2123.88,5765.44M2153.4,5811.09C2157.06,5826.22 2170.55,5837.14 2186.86,5837.14C2205.69,5837.14 2220.87,5821.73 2220.87,5802.97M2143.28,5619.81C2141.31,5616.73 2140.47,5612.53 2140.47,5608.61C2140.47,5595.45 2150.87,5584.81 2163.8,5584.81C2175.89,5584.81 2186.01,5593.77 2187.14,5605.81M2184.89,5657.06L2184.89,5653.42C2184.89,5634.1 2169.14,5618.97 2150.31,5618.97C2130.91,5618.97 2115.73,5634.66 2115.73,5653.42C2115.73,5659.58 2117.14,5664.9 2120.23,5669.94C2111.8,5676.11 2105.89,5686.47 2105.89,5697.67C2105.89,5707.19 2109.55,5715.59 2115.17,5721.48C2121.64,5728.2 2130.63,5732.12 2140.47,5732.12C2143.56,5732.12 2146.37,5731.84 2148.9,5731M2157.06,5655.94C2155.65,5663.78 2157.9,5671.62 2163.8,5678.07C2168.86,5682.83 2174.77,5685.07 2180.95,5685.63C2187.7,5686.19 2194.45,5683.39 2199.51,5678.35C2200.63,5677.23 2202.03,5675.27 2203.44,5673.59M2137.66,5693.75C2144.41,5697.67 2153.12,5698.23 2160.71,5695.15C2166.05,5692.91 2170.27,5688.71 2172.8,5683.95M2181.51,5812.49C2183.2,5807.45 2182.64,5801.29 2179.55,5796.25C2177.02,5792.33 2172.8,5789.53 2168.3,5788.69C2163.8,5787.85 2159.02,5788.69 2154.53,5791.49C2153.12,5792.33 2152.28,5793.17 2150.87,5794.57M2200.35,5735.48C2193.88,5731 2185.45,5729.6 2177.86,5732.12C2171.39,5734.36 2166.61,5738.84 2163.52,5744.44C2160.15,5750.04 2159.3,5757.32 2161.55,5764.04C2162.4,5766.28 2163.52,5767.96 2164.37,5769.92M2193.88,5766.84C2195.85,5765.44 2197.54,5764.6 2199.79,5764.04C2206.53,5761.8 2213.84,5762.64 2219.75,5765.72C2220.03,5766.28 2220.59,5766.28 2220.87,5766.84M2204,5643.62C2205.69,5642.22 2207.38,5641.38 2209.63,5640.82C2213.84,5639.42 2217.5,5639.42 2221.43,5639.98" style="fill:none;stroke:rgb(9,3,108);stroke-width:10px;"/>
            </g>
        </g>
    </g>
</svg>
