<?xml version="1.0" encoding="UTF-8" standalone="no"?>
<!DOCTYPE svg PUBLIC "-//W3C//DTD SVG 1.1//EN" "http://www.w3.org/Graphics/SVG/1.1/DTD/svg11.dtd">
<svg width="100%" height="100%" viewBox="0 0 375 375" version="1.1" xmlns="http://www.w3.org/2000/svg" xmlns:xlink="http://www.w3.org/1999/xlink" xml:space="preserve" xmlns:serif="http://www.serif.com/" style="fill-rule:evenodd;clip-rule:evenodd;stroke-miterlimit:10;">
    <g transform="matrix(1,0,0,1,-2034.28,-6929.9)">
        <g transform="matrix(2.28571,0,0,2.28571,-4536.18,6956.23)">
            <g transform="matrix(0.4375,0,0,0.4375,1984.58,-3043.35)">
                <path d="M2295.53,7090.72C2293.87,7095.13 2291.1,7099.55 2287.78,7102.85L2274.77,7116.36L2273.38,7107.82L2264.8,7107.27L2277.81,7094.03L2278.37,7093.48M2294.42,7062.87C2288.05,7048.81 2273.11,7040.26 2257.05,7042.47C2249.3,7043.57 2241.83,7047.43 2236.57,7053.22L2222.45,7068.66L2230.48,7069.77L2231.86,7078.31L2245.98,7063.42C2254.01,7054.6 2268.12,7054.32 2276.7,7062.32C2279.2,7064.8 2281.13,7067.83 2282.24,7071.14M2250.41,7074.73C2251.24,7076.66 2252.35,7078.31 2253.73,7079.97C2261.48,7089.62 2273.66,7094.86 2286.67,7093.2C2294.42,7092.1 2301.89,7088.52 2307.43,7082.45L2347.01,7041.36C2360.85,7026.75 2360.57,7004.41 2345.9,6990.9C2331.51,6976.84 2309.09,6977.39 2295.53,6992.01L2255.95,7032.82C2252.62,7036.4 2249.58,7040.54 2247.92,7044.95M2265.63,7042.47L2265.91,7041.91L2305.49,7001.66C2314.35,6993.66 2328.19,6994.76 2336.21,7003.86C2342.86,7011.86 2343.13,7023.44 2336.77,7031.71L2298.02,7072.52C2289.71,7081.35 2275.87,7081.62 2267.29,7073.62C2265.91,7072.25 2264.53,7070.87 2263.42,7069.21M2162.94,7155.52C2163.22,7159.93 2164.88,7164.07 2167.93,7167.65C2175.95,7176.48 2189.24,7177.58 2198.37,7169.86L2210,7157.73L2211.93,7165.72L2220.24,7166.83L2207.78,7179.79C2203.36,7184.47 2197.54,7187.78 2191.73,7189.44C2180.11,7192.47 2167.65,7189.44 2158.24,7180.61C2151.32,7174.55 2147.72,7166.27 2147.17,7158M2149.93,7142.28C2151.6,7138.15 2153.81,7134.56 2157.13,7131.26L2170.97,7116.64L2172.35,7125.19L2181.21,7126.02L2167.37,7140.08C2167.1,7140.91 2166.54,7141.18 2166.26,7142.01M2189.51,7159.66C2188.68,7157.73 2187.58,7156.07 2186.19,7154.42C2178.44,7145.04 2166.54,7139.8 2153.81,7141.46C2146.06,7142.28 2138.86,7146.15 2133.6,7151.94L2094.58,7192.47C2080.74,7206.81 2081.29,7228.59 2095.68,7242.1C2109.8,7255.61 2131.94,7255.06 2145.23,7241L2184.26,7200.74C2187.3,7197.43 2190.35,7193.3 2192.01,7188.89M2174.57,7191.37L2174.01,7191.92L2135.54,7231.35C2126.41,7239.07 2113.12,7237.97 2105.1,7229.14C2098.45,7221.42 2098.18,7209.84 2104.54,7201.85L2142.74,7161.59C2150.76,7153.04 2164.6,7152.76 2172.91,7160.76C2174.29,7162.14 2175.4,7163.52 2176.51,7164.9M2203.63,7051.01L2201.97,6980.15M2179.83,7056.81L2086.55,6981.25M2170.69,7085.76L2084.89,7081.9M2288.33,7139.25L2357.53,7139.53M2283.07,7162.69L2358.36,7253.68M2254.84,7172.07L2259.82,7253.13" style="fill:none;stroke:rgb(9,3,108);stroke-width:10px;"/>
            </g>
        </g>
    </g>
</svg>
