<?xml version="1.0" encoding="UTF-8" standalone="no"?>
<!DOCTYPE svg PUBLIC "-//W3C//DTD SVG 1.1//EN" "http://www.w3.org/Graphics/SVG/1.1/DTD/svg11.dtd">
<svg width="100%" height="100%" viewBox="0 0 342 342" version="1.1" xmlns="http://www.w3.org/2000/svg" xmlns:xlink="http://www.w3.org/1999/xlink" xml:space="preserve" xmlns:serif="http://www.serif.com/" style="fill-rule:evenodd;clip-rule:evenodd;stroke-miterlimit:10;">
    <g transform="matrix(1,0,0,1,-6963.02,-1959.25)">
        <g transform="matrix(2.28571,0,0,2.28571,373.321,1966.5)">
            <g transform="matrix(0.4375,0,0,0.4375,-163.328,-860.344)">
                <path d="M7190.75,2187.13C7159.39,2218.48 7108.11,2218.39 7076.4,2186.68C7044.69,2154.97 7044.83,2103.92 7076.19,2072.56C7107.77,2040.97 7158.83,2040.84 7190.53,2072.54C7222.24,2104.25 7222.34,2155.54 7190.75,2187.13M7155.8,2152.18C7143.58,2164.4 7123.48,2164.13 7111.22,2151.86C7098.95,2139.6 7098.91,2119.73 7111.13,2107.51C7123.58,2095.06 7143.45,2095.09 7155.72,2107.36C7167.99,2119.63 7168.25,2139.73 7155.8,2152.18M7246.3,2242.21C7238.23,2250.28 7224.83,2250.26 7216.73,2242.16L7202.61,2228.04C7161.32,2256.84 7106.33,2256.73 7065.16,2227.55C7064.47,2228.7 7063.78,2229.39 7062.85,2230.31L7049.02,2244.15C7040.72,2252.45 7027.55,2252.19 7019.45,2244.09C7011.35,2235.99 7011.09,2222.82 7019.39,2214.52L7033.23,2200.69C7033.92,2200 7034.61,2199.3 7035.77,2198.61C7006.58,2157.44 7006.24,2102.23 7035.27,2060.7L7021.15,2046.58C7012.82,2038.25 7013.03,2025.08 7021.1,2017.01C7029.17,2008.94 7042.34,2008.74 7050.67,2017.07L7064.79,2031.19C7106.08,2002.39 7161.06,2002.49 7202.47,2031.45C7203.16,2030.76 7218.38,2015.54 7218.38,2015.54C7226.45,2007.47 7239.85,2007.49 7247.95,2015.59C7251.88,2019.53 7253.97,2024.85 7253.98,2030.39C7254.23,2036.16 7251.92,2041.24 7248.01,2045.16L7233.94,2059.23C7233.48,2060.15 7233.02,2060.61 7232.1,2061.07C7260.82,2102.71 7260.92,2157.23 7232.12,2198.52L7246.24,2212.64C7254.57,2220.51 7254.6,2233.91 7246.53,2241.98L7246.3,2242.21Z" style="fill:none;stroke:rgb(9,3,108);stroke-width:10px;"/>
            </g>
        </g>
    </g>
</svg>
