<?xml version="1.0" encoding="UTF-8" standalone="no"?>
<!DOCTYPE svg PUBLIC "-//W3C//DTD SVG 1.1//EN" "http://www.w3.org/Graphics/SVG/1.1/DTD/svg11.dtd">
<svg width="100%" height="100%" viewBox="0 0 351 368" version="1.1" xmlns="http://www.w3.org/2000/svg" xmlns:xlink="http://www.w3.org/1999/xlink" xml:space="preserve" xmlns:serif="http://www.serif.com/" style="fill-rule:evenodd;clip-rule:evenodd;stroke-miterlimit:10;">
    <g transform="matrix(1,0,0,1,-397.922,-4597.28)">
        <g transform="matrix(2.28571,0,0,2.28571,-6184.57,4620.23)">
            <g transform="matrix(0.4375,0,0,0.4375,2705.75,-2021.35)">
                <path d="M492.226,4823.92L449.849,4894.91C444.721,4904.59 452.008,4915.35 462.805,4913.46L572.93,4887.65L683.054,4914.27C693.851,4916.15 701.408,4904.86 696.01,4895.98L653.904,4825M680.085,4754.28C680.085,4813.17 632.311,4861.03 572.93,4861.03C513.819,4861.03 466.044,4813.17 466.044,4754.28C466.044,4695.39 513.819,4647.53 572.93,4647.53C632.311,4647.53 680.085,4695.39 680.085,4754.28M635.55,4762.88C635.55,4797.3 607.749,4825.27 572.93,4825.27C538.381,4825.27 510.31,4797.3 510.31,4762.88C510.31,4728.47 538.381,4700.5 572.93,4700.5C607.749,4700.5 635.55,4728.47 635.55,4762.88M586.425,4762.88C586.425,4770.41 580.487,4776.33 572.93,4776.33C565.642,4776.33 559.704,4770.41 559.704,4762.88C559.704,4755.62 565.642,4749.71 572.93,4749.71C580.487,4749.71 586.425,4755.62 586.425,4762.88" style="fill:none;stroke:rgb(9,3,108);stroke-width:10px;"/>
            </g>
        </g>
    </g>
</svg>
