<?xml version="1.0" encoding="UTF-8" standalone="no"?>
<!DOCTYPE svg PUBLIC "-//W3C//DTD SVG 1.1//EN" "http://www.w3.org/Graphics/SVG/1.1/DTD/svg11.dtd">
<svg width="100%" height="100%" viewBox="0 0 382 281" version="1.1" xmlns="http://www.w3.org/2000/svg" xmlns:xlink="http://www.w3.org/1999/xlink" xml:space="preserve" xmlns:serif="http://www.serif.com/" style="fill-rule:evenodd;clip-rule:evenodd;stroke-miterlimit:10;">
    <g transform="matrix(1,0,0,1,-6116.21,-1986.71)">
        <g transform="matrix(2.28571,0,0,2.28571,-450.679,1966.5)">
            <g transform="matrix(0.4375,0,0,0.4375,197.172,-860.344)">
                <path d="M6166.46,2073.06L6446.99,2073.06M6203.83,2118.18L6258.18,2118.18L6258.18,2172.32L6203.83,2172.32L6203.83,2118.18ZM6352.16,2115.92L6420.1,2115.92M6352.16,2138.48L6420.1,2138.48M6434.82,2217.44L6179.2,2217.44C6172.41,2217.44 6166.46,2211.8 6166.46,2205.04L6166.46,2049.65C6166.46,2042.88 6172.41,2036.96 6179.2,2036.96L6434.25,2036.96C6441.61,2036.96 6446.99,2042.88 6446.99,2049.65L6446.99,2204.47C6447.27,2211.8 6441.61,2217.44 6434.82,2217.44Z" style="fill:none;stroke:rgb(9,3,108);stroke-width:10px;"/>
            </g>
        </g>
    </g>
</svg>
