<?xml version="1.0" encoding="UTF-8" standalone="no"?>
<!DOCTYPE svg PUBLIC "-//W3C//DTD SVG 1.1//EN" "http://www.w3.org/Graphics/SVG/1.1/DTD/svg11.dtd">
<svg width="100%" height="100%" viewBox="0 0 362 322" version="1.1" xmlns="http://www.w3.org/2000/svg" xmlns:xlink="http://www.w3.org/1999/xlink" xml:space="preserve" xmlns:serif="http://www.serif.com/" style="fill-rule:evenodd;clip-rule:evenodd;stroke-miterlimit:10;">
    <g transform="matrix(1,0,0,1,-6536.48,-2363.82)">
        <g transform="matrix(2.28571,0,0,2.28571,-38.6786,2363.23)">
            <g transform="matrix(0.4375,0,0,0.4375,16.9219,-1033.91)">
                <path d="M6656.18,2496.36L6699.59,2452.59L6743,2496.36M6777.73,2496.36L6777.73,2452.59L6830.09,2452.59L6830.09,2496.36M6734.06,2487.45L6764.31,2414.07L6794.57,2427.17L6785.1,2452.59M6777.73,2470.41L6767.21,2496.36M6586.73,2426.65L6630.14,2426.65L6673.55,2600.41L6812.72,2600.41L6847.71,2496.36L6647.24,2496.36M6713.8,2617.45C6713.8,2626.89 6706.17,2634.75 6696.7,2634.75C6686.97,2634.75 6679.34,2626.89 6679.34,2617.45C6679.34,2608.01 6686.97,2600.41 6696.7,2600.41C6706.17,2600.41 6713.8,2608.01 6713.8,2617.45M6806.41,2617.45C6806.41,2626.89 6798.78,2634.75 6789.31,2634.75C6779.57,2634.75 6771.94,2626.89 6771.94,2617.45C6771.94,2608.01 6779.57,2600.41 6789.31,2600.41C6798.78,2600.41 6806.41,2608.01 6806.41,2617.45" style="fill:none;stroke:rgb(9,3,108);stroke-width:10px;"/>
            </g>
        </g>
    </g>
</svg>
