<?xml version="1.0" encoding="UTF-8" standalone="no"?>
<!DOCTYPE svg PUBLIC "-//W3C//DTD SVG 1.1//EN" "http://www.w3.org/Graphics/SVG/1.1/DTD/svg11.dtd">
<svg width="100%" height="100%" viewBox="0 0 364 362" version="1.1" xmlns="http://www.w3.org/2000/svg" xmlns:xlink="http://www.w3.org/1999/xlink" xml:space="preserve" xmlns:serif="http://www.serif.com/" style="fill-rule:evenodd;clip-rule:evenodd;stroke-miterlimit:10;">
    <g transform="matrix(1,0,0,1,-391.505,-5995.51)">
        <g transform="matrix(2.28571,0,0,2.28571,-6184.57,6015.23)">
            <g transform="matrix(0.4375,0,0,0.4375,2705.75,-2631.66)">
                <path d="M610.111,6211.85L677.071,6198.23M610.658,6219.47L678.437,6220.02M609.291,6227.1L676.251,6240.98M536.318,6211.85L469.905,6198.23M536.318,6219.47L467.992,6220.02M537.138,6227.1L470.725,6240.98M609.838,6245.61C609.838,6257.59 602.458,6264.4 592.346,6264.4C582.234,6264.4 573.488,6254.87 573.488,6243.43M572.941,6243.98C572.941,6255.41 564.196,6264.94 554.357,6264.94C544.244,6264.94 536.865,6257.59 536.865,6246.15M577.041,6242.61L594.533,6221.38C596.992,6218.38 594.806,6214.03 590.98,6214.03L555.45,6214.03C551.624,6214.03 549.437,6218.65 552.17,6221.38L569.662,6242.61C571.848,6244.79 575.128,6244.79 577.041,6242.61ZM635.528,6171.55C635.528,6179.45 629.242,6185.71 621.59,6185.71C613.937,6185.71 607.651,6179.45 607.651,6171.55C607.651,6163.93 613.937,6157.67 621.59,6157.67C629.242,6157.67 635.528,6163.93 635.528,6171.55M540.145,6171.55C540.145,6179.45 534.132,6185.71 526.206,6185.71C518.554,6185.71 512.267,6179.45 512.267,6171.55C512.267,6163.93 518.554,6157.67 526.206,6157.67C534.132,6157.67 540.145,6163.93 540.145,6171.55M576.221,6306.33C638.535,6306.33 704.675,6241.8 704.675,6179.45C704.675,6164.74 699.755,6153.04 695.929,6142.42L695.109,6139.97L695.109,6139.42L661.766,6045.76L615.03,6112.74L613.391,6114.92C604.918,6109.75 592.346,6108.38 574.855,6108.38L572.121,6108.38C554.63,6108.93 542.058,6110.29 533.585,6114.92L531.946,6112.74L484.39,6045.76L451.594,6139.97L451.594,6140.24L450.5,6142.96C446.674,6153.31 441.755,6165.02 441.755,6179.99C441.755,6242.34 507.895,6306.6 570.482,6306.6L576.221,6306.6L576.221,6306.33Z" style="fill:none;stroke:rgb(9,3,108);stroke-width:10px;"/>
            </g>
        </g>
    </g>
</svg>
