<?xml version="1.0" encoding="UTF-8" standalone="no"?>
<!DOCTYPE svg PUBLIC "-//W3C//DTD SVG 1.1//EN" "http://www.w3.org/Graphics/SVG/1.1/DTD/svg11.dtd">
<svg width="100%" height="100%" viewBox="0 0 334 381" version="1.1" xmlns="http://www.w3.org/2000/svg" xmlns:xlink="http://www.w3.org/1999/xlink" xml:space="preserve" xmlns:serif="http://www.serif.com/" style="fill-rule:evenodd;clip-rule:evenodd;stroke-miterlimit:10;">
    <g transform="matrix(1,0,0,1,-818.382,-6926.81)">
        <g transform="matrix(2.28571,0,0,2.28571,-5772.57,6956.23)">
            <g transform="matrix(0.4375,0,0,0.4375,2525.5,-3043.35)">
                <path d="M910.81,7135.54L868.632,7222.97L912.508,7218.17L936.569,7256.81L977.332,7169.95M1059.42,7135.54L1101.6,7222.97L1057.44,7218.17L1033.66,7256.81L992.901,7169.95M1082.07,7073.79C1082.07,7127.08 1038.76,7170.23 984.975,7170.23C931.474,7170.23 888.164,7127.08 888.164,7073.79C888.164,7020.49 931.474,6977.06 984.975,6977.06C1038.76,6977.06 1082.07,7020.49 1082.07,7073.79M936.569,7062.51L970.255,7057.99L985.541,7027.82L999.978,7058.28L1033.66,7062.79L1009.04,7086.48L1014.42,7119.19L984.692,7103.4L954.686,7118.91L961.197,7086.48L936.569,7062.51Z" style="fill:none;stroke:rgb(9,3,108);stroke-width:10px;"/>
            </g>
        </g>
    </g>
</svg>
