<?xml version="1.0" encoding="UTF-8" standalone="no"?>
<!DOCTYPE svg PUBLIC "-//W3C//DTD SVG 1.1//EN" "http://www.w3.org/Graphics/SVG/1.1/DTD/svg11.dtd">
<svg width="100%" height="100%" viewBox="0 0 348 347" version="1.1" xmlns="http://www.w3.org/2000/svg" xmlns:xlink="http://www.w3.org/1999/xlink" xml:space="preserve" xmlns:serif="http://www.serif.com/" style="fill-rule:evenodd;clip-rule:evenodd;stroke-miterlimit:10;">
    <g transform="matrix(1,0,0,1,-1223.23,-6502.61)">
        <g transform="matrix(2.28571,0,0,2.28571,-5360.18,6515.23)">
            <g transform="matrix(0.4375,0,0,0.4375,2345.08,-2850.41)">
                <path d="M1429.71,6669.63C1420.97,6649.24 1399.75,6636.55 1377.03,6639.29C1365.8,6640.53 1355.06,6645.75 1347.07,6653.96L1288.65,6712.16C1268.42,6732.56 1268.42,6764.39 1288.65,6784.29C1309.12,6804.19 1341.08,6804.44 1361.05,6784.29L1418.97,6726.59C1423.72,6721.61 1428.21,6715.64 1430.46,6709.43M1405.74,6712.66L1404.99,6713.41L1347.32,6769.37C1334.34,6780.56 1314.61,6778.57 1303.38,6765.39C1293.89,6753.95 1293.89,6737.28 1303.38,6725.59L1360.3,6668.89C1372.29,6656.45 1392.26,6656.45 1404.24,6668.39C1407.74,6671.87 1410.49,6676.35 1412.23,6681.07M1366.29,6685.05C1367.29,6687.79 1369.04,6690.28 1371.04,6692.76C1381.77,6706.69 1399,6714.65 1417.73,6712.66C1428.96,6711.42 1439.7,6706.19 1447.68,6697.74L1505.61,6640.03C1526.08,6619.89 1526.08,6588.05 1505.61,6568.15C1485.13,6547.76 1453.18,6547.76 1433.2,6568.15L1375.28,6625.36C1370.54,6630.08 1366.29,6636.05 1363.8,6642.52M1389.01,6639.29L1389.76,6638.54L1447.19,6582.33C1460.42,6571.39 1480.14,6573.38 1491.13,6586.31C1500.86,6598 1500.86,6614.66 1491.13,6626.11L1434.45,6683.56C1422.47,6695.75 1402.5,6695.75 1390.51,6683.81C1388.51,6681.82 1387.02,6679.83 1385.27,6677.59" style="fill:none;stroke:rgb(9,3,108);stroke-width:10px;"/>
            </g>
        </g>
    </g>
</svg>
