<?xml version="1.0" encoding="UTF-8" standalone="no"?>
<!DOCTYPE svg PUBLIC "-//W3C//DTD SVG 1.1//EN" "http://www.w3.org/Graphics/SVG/1.1/DTD/svg11.dtd">
<svg width="100%" height="100%" viewBox="0 0 382 359" version="1.1" xmlns="http://www.w3.org/2000/svg" xmlns:xlink="http://www.w3.org/1999/xlink" xml:space="preserve" xmlns:serif="http://www.serif.com/" style="fill-rule:evenodd;clip-rule:evenodd;stroke-miterlimit:10;">
    <g transform="matrix(1,0,0,1,-5291.92,-1525.17)">
        <g transform="matrix(2.28571,0,0,2.28571,-1275.07,1543.5)">
            <g transform="matrix(0.4375,0,0,0.4375,557.844,-675.281)">
                <path d="M5558.57,1833.27L5558.57,1739.15L5594.49,1739.15L5594.49,1833.27M5496.05,1833.27L5496.05,1709.84L5531.98,1709.84L5531.98,1833.83M5433.82,1833.27L5433.82,1753.8L5468.9,1753.8L5468.9,1833.83M5370.74,1833.27L5370.74,1674.05L5406.67,1674.05L5406.67,1833.27M5622.78,1833.83L5342.17,1833.83M5593.92,1683.91L5513.87,1614.59L5455.04,1664.75L5370.74,1575.42M5594.49,1633.19L5593.92,1683.91L5542.73,1683.63" style="fill:none;stroke:rgb(9,3,108);stroke-width:10px;"/>
            </g>
        </g>
    </g>
</svg>
