<?xml version="1.0" encoding="UTF-8" standalone="no"?>
<!DOCTYPE svg PUBLIC "-//W3C//DTD SVG 1.1//EN" "http://www.w3.org/Graphics/SVG/1.1/DTD/svg11.dtd">
<svg width="100%" height="100%" viewBox="0 0 291 360" version="1.1" xmlns="http://www.w3.org/2000/svg" xmlns:xlink="http://www.w3.org/1999/xlink" xml:space="preserve" xmlns:serif="http://www.serif.com/" style="fill-rule:evenodd;clip-rule:evenodd;stroke-miterlimit:10;">
    <g transform="matrix(1,0,0,1,-4924.34,-1946.96)">
        <g transform="matrix(2.79533,0,0,2.79533,4935,1992.16)">
            <g transform="matrix(0.35774,0,0,0.35774,-1765.45,-712.677)">
                <path d="M5035.54,2104.83L5104.33,2104.83M4987.4,2066L5152.46,2066M5130.49,2225.49L5104.33,2104.83L5152.46,2066L5152.46,1997.21L5121.86,1997.21L5121.86,2027.7L5087.59,2027.7L5087.59,1997.21L5052.28,1997.21L5052.28,2027.7L5018.01,2027.7L5018.01,1997.21L4987.4,1997.21L4987.4,2066L5035.54,2104.83L5009.12,2225.49M4974.59,2225.49L5165.02,2225.49L5165.02,2255.72L4974.59,2255.72L4974.59,2225.49Z" style="fill:none;stroke:rgb(9,3,108);stroke-width:10px;"/>
            </g>
        </g>
    </g>
</svg>
