<?xml version="1.0" encoding="UTF-8" standalone="no"?>
<!DOCTYPE svg PUBLIC "-//W3C//DTD SVG 1.1//EN" "http://www.w3.org/Graphics/SVG/1.1/DTD/svg11.dtd">
<svg width="100%" height="100%" viewBox="0 0 383 306" version="1.1" xmlns="http://www.w3.org/2000/svg" xmlns:xlink="http://www.w3.org/1999/xlink" xml:space="preserve" xmlns:serif="http://www.serif.com/" style="fill-rule:evenodd;clip-rule:evenodd;stroke-miterlimit:10;">
    <g transform="matrix(1,0,0,1,-793.55,-7825.75)">
        <g transform="matrix(2.28571,0,0,2.28571,-5772.57,7818.23)">
            <g transform="matrix(0.4375,0,0,0.4375,2525.5,-3420.47)">
                <path d="M843.8,8081.02L1126.16,8081.02M897.596,7897.27L925.491,7897.27L925.491,7925.06L897.596,7925.06L897.596,7897.27ZM897.596,7944.62L925.491,7944.62L925.491,7972.13L897.596,7972.13L897.596,7944.62ZM946.27,7897.27L974.164,7897.27L974.164,7925.06L946.27,7925.06L946.27,7897.27ZM1088.02,8081.02L1088.02,7973.55L1014.58,7917.69L942.285,7973.55L942.285,8081.02M984.98,8081.02L984.98,8018.63L1045.32,8018.63L1045.32,8081.02M882.226,8081.02L882.226,7876L989.535,7876L989.535,7915.42M984.98,7989.43L1045.32,7989.43" style="fill:none;stroke:rgb(9,3,108);stroke-width:10px;"/>
            </g>
        </g>
    </g>
</svg>
