<?xml version="1.0" encoding="UTF-8" standalone="no"?>
<!DOCTYPE svg PUBLIC "-//W3C//DTD SVG 1.1//EN" "http://www.w3.org/Graphics/SVG/1.1/DTD/svg11.dtd">
<svg width="100%" height="100%" viewBox="0 0 400 373" version="1.1" xmlns="http://www.w3.org/2000/svg" xmlns:xlink="http://www.w3.org/1999/xlink" xml:space="preserve" xmlns:serif="http://www.serif.com/" style="fill-rule:evenodd;clip-rule:evenodd;stroke-miterlimit:10;">
    <g transform="matrix(1,0,0,1,-5693.37,-1939.08)">
        <g transform="matrix(2.28571,0,0,2.28571,-863.071,1966.5)">
            <g transform="matrix(0.4375,0,0,0.4375,377.594,-860.344)">
                <path d="M5907.28,2016.7L5757.68,2164.53C5736.31,2189.42 5739.92,2226.9 5764.31,2247.89C5786.58,2266.18 5818.79,2266.18 5840.46,2247.89L6027.68,2066.77C6046.04,2050.28 6046.94,2022.09 6030.69,2003.8C6014.43,1985.51 5985.84,1984.61 5967.48,2000.8C5966.58,2002 5965.67,2002.9 5964.77,2003.8L5882.4,2083.9M5886.8,2079.63L5813.37,2151.03C5801.03,2163.63 5801.03,2183.72 5813.37,2196.31C5826.01,2208.61 5846.18,2208.61 5858.82,2196.31L5967.48,2082.37" style="fill:none;stroke:rgb(9,3,108);stroke-width:10px;"/>
            </g>
        </g>
    </g>
</svg>
