<?xml version="1.0" encoding="UTF-8" standalone="no"?>
<!DOCTYPE svg PUBLIC "-//W3C//DTD SVG 1.1//EN" "http://www.w3.org/Graphics/SVG/1.1/DTD/svg11.dtd">
<svg width="100%" height="100%" viewBox="0 0 361 382" version="1.1" xmlns="http://www.w3.org/2000/svg" xmlns:xlink="http://www.w3.org/1999/xlink" xml:space="preserve" xmlns:serif="http://www.serif.com/" style="fill-rule:evenodd;clip-rule:evenodd;stroke-miterlimit:10;">
    <g transform="matrix(1,0,0,1,-2041.04,-7788.04)">
        <g transform="matrix(2.28571,0,0,2.28571,-4536.18,7818.23)">
            <g transform="matrix(0.4375,0,0,0.4375,1984.58,-3420.47)">
                <path d="M2325.27,7863.24L2348.04,7886.49M2313.6,7897.84L2336.65,7875.15M2351.74,7989.99C2351.74,8061.74 2293.39,8119.58 2221.37,8119.58C2149.64,8119.58 2091.29,8061.74 2091.29,7989.99C2091.29,7918.25 2149.64,7860.12 2221.37,7860.12C2293.39,7860.12 2351.74,7918.25 2351.74,7989.99M2221.37,7978.65L2221.37,7903.23M2232.47,7989.43C2232.47,7995.38 2227.64,8000.49 2221.37,8000.49C2215.4,8000.49 2210.56,7995.38 2210.56,7989.43C2210.56,7983.47 2215.4,7978.65 2221.37,7978.65C2227.64,7978.65 2232.47,7983.47 2232.47,7989.43M2330.39,7989.99C2330.39,8049.83 2281.72,8098.32 2221.37,8098.32C2161.32,8098.32 2112.64,8049.83 2112.64,7989.99C2112.64,7930.16 2161.32,7881.39 2221.37,7881.39C2281.72,7881.39 2330.39,7930.16 2330.39,7989.99M2232.47,7860.69L2232.47,7838.29L2210.56,7838.29L2210.56,7860.69" style="fill:none;stroke:rgb(9,3,108);stroke-width:10px;"/>
            </g>
        </g>
    </g>
</svg>
