<?xml version="1.0" encoding="UTF-8" standalone="no"?>
<!DOCTYPE svg PUBLIC "-//W3C//DTD SVG 1.1//EN" "http://www.w3.org/Graphics/SVG/1.1/DTD/svg11.dtd">
<svg width="100%" height="100%" viewBox="0 0 390 289" version="1.1" xmlns="http://www.w3.org/2000/svg" xmlns:xlink="http://www.w3.org/1999/xlink" xml:space="preserve" xmlns:serif="http://www.serif.com/" style="fill-rule:evenodd;clip-rule:evenodd;stroke-miterlimit:10;">
    <g transform="matrix(1,0,0,1,-4874.21,-3280.09)">
        <g transform="matrix(2.28571,0,0,2.28571,-1687.07,3265.23)">
            <g transform="matrix(0.4375,0,0,0.4375,738.094,-1428.54)">
                <path d="M5090,3353C5108.74,3353.81 5129.02,3372.32 5132,3392.45M5164.92,3424.31C5161.14,3424.31 5157.94,3424.89 5154.73,3425.76C5155.61,3421.7 5155.61,3417.35 5155.61,3412.41C5155.61,3366.3 5118.34,3330.34 5073.22,3330.34C5029.84,3330.34 4994.33,3363.69 4991.12,3406.32C4987.92,3405.74 4984.72,3405.74 4981.52,3405.74C4950.08,3405.74 4924.46,3431.27 4924.46,3462.01C4924.46,3492.75 4950.08,3518.56 4981.52,3518.56L5165.8,3518.56C5192,3518.56 5213.25,3497.39 5213.25,3471.29C5213.25,3445.19 5191.12,3424.31 5164.92,3424.31Z" style="fill:none;stroke:rgb(9,3,108);stroke-width:10px;"/>
            </g>
        </g>
    </g>
</svg>
