<?xml version="1.0" encoding="UTF-8" standalone="no"?>
<!DOCTYPE svg PUBLIC "-//W3C//DTD SVG 1.1//EN" "http://www.w3.org/Graphics/SVG/1.1/DTD/svg11.dtd">
<svg width="100%" height="100%" viewBox="0 0 390 400" version="1.1" xmlns="http://www.w3.org/2000/svg" xmlns:xlink="http://www.w3.org/1999/xlink" xml:space="preserve" xmlns:serif="http://www.serif.com/" style="fill-rule:evenodd;clip-rule:evenodd;stroke-miterlimit:10;">
    <g transform="matrix(1,0,0,1,-4874.64,-1503.54)">
        <g transform="matrix(2.28571,0,0,2.28571,-1687.07,1543.5)">
            <g transform="matrix(0.612602,0,0,0.612602,1385.95,-237.475)">
                <path d="M2590.59,398.643L2590.89,429.051C2598.53,431.987 2605.67,436.107 2612.03,441.261L2638.52,426.315C2651.79,439.586 2661.33,456.116 2666.19,474.245L2640.01,489.707C2641.29,497.796 2641.29,506.037 2640.01,514.126L2666.19,529.589C2661.33,547.717 2651.79,564.247 2638.52,577.518L2612.03,562.572C2605.67,567.726 2598.53,571.847 2590.89,574.782L2590.59,605.19C2572.46,610.048 2553.37,610.048 2535.24,605.19L2534.95,574.782C2527.3,571.847 2520.16,567.726 2513.8,562.572L2487.32,577.518C2474.04,564.247 2464.5,547.717 2459.64,529.589L2485.83,514.126C2484.55,506.037 2484.55,497.796 2485.83,489.707L2459.64,474.245C2464.5,456.116 2474.04,439.586 2487.32,426.315L2513.8,441.261C2520.16,436.107 2527.3,431.987 2534.95,429.051L2535.24,398.643C2553.37,393.786 2572.46,393.786 2590.59,398.643ZM2562.92,464.496C2583.57,464.496 2600.34,481.264 2600.34,501.917C2600.34,522.57 2583.57,539.337 2562.92,539.337C2542.26,539.337 2525.5,522.57 2525.5,501.917C2525.5,481.264 2542.26,464.496 2562.92,464.496Z" style="fill:none;stroke:rgb(9,3,108);stroke-width:7.14px;"/>
            </g>
        </g>
    </g>
</svg>
