<?xml version="1.0" encoding="UTF-8" standalone="no"?>
<!DOCTYPE svg PUBLIC "-//W3C//DTD SVG 1.1//EN" "http://www.w3.org/Graphics/SVG/1.1/DTD/svg11.dtd">
<svg width="100%" height="100%" viewBox="0 0 360 359" version="1.1" xmlns="http://www.w3.org/2000/svg" xmlns:xlink="http://www.w3.org/1999/xlink" xml:space="preserve" xmlns:serif="http://www.serif.com/" style="fill-rule:evenodd;clip-rule:evenodd;stroke-miterlimit:10;">
    <g transform="matrix(1,0,0,1,-393.368,-6937.84)">
        <g transform="matrix(2.28571,0,0,2.28571,-6184.57,6956.23)">
            <g transform="matrix(0.4375,0,0,0.4375,2705.75,-3043.35)">
                <path d="M702.178,7010.16C702.178,7022.36 667.512,7032.23 624.766,7032.23C582.02,7032.23 547.094,7022.36 547.094,7010.16C547.094,6997.95 582.02,6988.09 624.766,6988.09C667.512,6988.09 702.178,6997.95 702.178,7010.16M547.094,7043.39C547.094,7055.6 582.281,7065.46 624.766,7065.46C667.252,7065.46 702.178,7055.6 702.178,7043.39M547.094,7077.93C547.094,7089.87 582.281,7100 624.766,7100C667.252,7100 702.178,7089.87 702.178,7077.93M607.303,7133.49C612.516,7134.01 618.511,7134.01 624.766,7134.01C667.252,7134.01 702.178,7124.15 702.178,7111.94M624.766,7168.55C667.252,7168.55 702.178,7158.42 702.178,7146.48M547.094,7112.46L547.094,7010.16M702.178,7010.16L702.178,7181.01C702.178,7192.96 667.252,7203.08 624.766,7203.08M598.962,7155.31C598.962,7167.51 564.036,7177.12 521.29,7177.12C478.544,7177.12 443.617,7167.51 443.617,7155.31C443.617,7143.1 478.544,7133.24 521.29,7133.24C564.036,7133.24 598.962,7143.1 598.962,7155.31M443.617,7189.58C443.617,7201.78 478.283,7211.65 521.29,7211.65C564.296,7211.65 598.962,7201.78 598.962,7189.58M598.962,7155.31L598.962,7223.86C598.962,7235.8 563.775,7245.67 521.29,7245.67C478.805,7245.67 443.617,7235.8 443.617,7223.86L443.617,7155.31" style="fill:none;stroke:rgb(9,3,108);stroke-width:10px;"/>
            </g>
        </g>
    </g>
</svg>
