<?xml version="1.0" encoding="UTF-8" standalone="no"?>
<!DOCTYPE svg PUBLIC "-//W3C//DTD SVG 1.1//EN" "http://www.w3.org/Graphics/SVG/1.1/DTD/svg11.dtd">
<svg width="100%" height="100%" viewBox="0 0 352 351" version="1.1" xmlns="http://www.w3.org/2000/svg" xmlns:xlink="http://www.w3.org/1999/xlink" xml:space="preserve" xmlns:serif="http://www.serif.com/" style="fill-rule:evenodd;clip-rule:evenodd;stroke-miterlimit:10;">
    <g transform="matrix(1,0,0,1,-1221.36,-6941.43)">
        <g transform="matrix(2.28571,0,0,2.28571,-5360.18,6956.23)">
            <g transform="matrix(0.4375,0,0,0.4375,2345.08,-3043.35)">
                <path d="M1476.06,7134.78L1522.92,7134.78L1522.92,7213.77L1476.06,7213.77L1476.06,7134.78ZM1499.62,7134.78L1499.62,7106.51M1499.62,7242.04L1499.62,7213.77M1407.91,7049.98L1455.03,7049.98L1455.03,7175.41L1407.91,7175.41L1407.91,7049.98ZM1431.47,7049.98L1431.47,7021.2M1431.47,7203.68L1431.47,7175.41M1339.76,7100.7L1386.88,7100.7L1386.88,7200.15L1339.76,7200.15L1339.76,7100.7ZM1363.32,7228.92L1363.32,7200.15M1363.32,7100.7L1363.32,7072.44M1271.61,7020.45L1318.73,7020.45L1318.73,7151.18L1271.61,7151.18L1271.61,7020.45ZM1295.17,7020.45L1295.17,6991.68M1295.17,7179.45L1295.17,7150.93" style="fill:none;stroke:rgb(9,3,108);stroke-width:10px;"/>
            </g>
        </g>
    </g>
</svg>
