<?xml version="1.0" encoding="UTF-8" standalone="no"?>
<!DOCTYPE svg PUBLIC "-//W3C//DTD SVG 1.1//EN" "http://www.w3.org/Graphics/SVG/1.1/DTD/svg11.dtd">
<svg width="100%" height="100%" viewBox="0 0 349 375" version="1.1" xmlns="http://www.w3.org/2000/svg" xmlns:xlink="http://www.w3.org/1999/xlink" xml:space="preserve" xmlns:serif="http://www.serif.com/" style="fill-rule:evenodd;clip-rule:evenodd;stroke-miterlimit:10;">
    <g transform="matrix(1,0,0,1,-5720.57,-3675.69)">
        <g transform="matrix(2.28571,0,0,2.28571,-863.071,3702.23)">
            <g transform="matrix(0.4375,0,0,0.4375,377.594,-1619.72)">
                <path d="M5894.45,3999.89L5894.45,3963.44M5857.86,3999.89L5857.86,3963.44M5931.32,3999.89L5931.32,3963.44M5872,3858.5C5872,3878.93 5855.37,3895.23 5835.13,3895.23C5814.9,3895.23 5798.26,3878.93 5798.26,3858.5C5798.26,3838.34 5814.9,3822.05 5835.13,3822.05C5855.37,3822.05 5872,3838.34 5872,3858.5M5990.93,3858.5C5990.93,3878.93 5974.29,3895.23 5954.06,3895.23C5933.82,3895.23 5917.19,3878.93 5917.19,3858.5C5917.19,3838.34 5933.82,3822.05 5954.06,3822.05C5974.29,3822.05 5990.93,3838.34 5990.93,3858.5M6018.37,3849.39C6018.37,3781.17 5962.93,3725.94 5894.45,3725.94C5826.26,3725.94 5770.82,3781.17 5770.82,3849.39C5770.82,3888.6 5789.39,3925.88 5821.27,3948.8L5821.27,3981.39C5821.27,3991.61 5829.86,3999.62 5839.57,3999.62L5949.62,3999.62C5959.88,3999.62 5967.64,3991.06 5967.64,3981.39L5967.64,3948.25C5999.8,3925.88 6018.37,3888.6 6018.37,3849.39Z" style="fill:none;stroke:rgb(9,3,108);stroke-width:10px;"/>
            </g>
        </g>
    </g>
</svg>
