<?xml version="1.0" encoding="UTF-8" standalone="no"?>
<!DOCTYPE svg PUBLIC "-//W3C//DTD SVG 1.1//EN" "http://www.w3.org/Graphics/SVG/1.1/DTD/svg11.dtd">
<svg width="100%" height="100%" viewBox="0 0 360 359" version="1.1" xmlns="http://www.w3.org/2000/svg" xmlns:xlink="http://www.w3.org/1999/xlink" xml:space="preserve" xmlns:serif="http://www.serif.com/" style="fill-rule:evenodd;clip-rule:evenodd;stroke-miterlimit:10;">
    <g transform="matrix(1,0,0,1,-5714.81,-3246.78)">
        <g transform="matrix(2.28571,0,0,2.28571,-863.071,3265.23)">
            <g transform="matrix(0.4375,0,0,0.4375,377.594,-1428.54)">
                <path d="M5952.55,3537.06L6006,3483.81M5841.98,3319.89L5788.53,3373.14M5823.21,3408.21L5765.06,3350.28L5818.52,3297.03L5876.67,3354.96M5965.32,3443.54L6006,3483.81L6015.13,3546.15L5952.55,3537.06L5912.13,3496.53M5765.32,3492.38L5961.68,3297.03L6024.26,3359.37L5827.9,3554.72L5765.32,3492.38ZM5863.11,3394.7L5889.97,3421.46M5836.51,3421.46L5854.5,3439.39M5917.08,3341.71L5943.68,3368.21M5889.97,3368.21L5907.96,3386.13M5809.91,3448.48L5836.51,3474.97" style="fill:none;stroke:rgb(9,3,108);stroke-width:10px;"/>
            </g>
        </g>
    </g>
</svg>
