<?xml version="1.0" encoding="UTF-8" standalone="no"?>
<!DOCTYPE svg PUBLIC "-//W3C//DTD SVG 1.1//EN" "http://www.w3.org/Graphics/SVG/1.1/DTD/svg11.dtd">
<svg width="100%" height="100%" viewBox="0 0 330 390" version="1.1" xmlns="http://www.w3.org/2000/svg" xmlns:xlink="http://www.w3.org/1999/xlink" xml:space="preserve" xmlns:serif="http://www.serif.com/" style="fill-rule:evenodd;clip-rule:evenodd;stroke-miterlimit:10;">
    <g transform="matrix(1,0,0,1,-408.551,-7784.01)">
        <g transform="matrix(2.28571,0,0,2.28571,-6184.57,7818.23)">
            <g transform="matrix(0.4375,0,0,0.4375,2705.75,-3420.47)">
                <path d="M497.748,7936.07L648.562,7936.07L686.045,7992.67L572.716,8123.66L459.679,7992.67L497.748,7936.07ZM686.045,7992.67L459.679,7992.67M497.748,7936.07L535.525,7992.67L572.716,7938.4L610.492,7992.67L648.562,7936.07M610.492,7992.67L572.716,8118.11L535.525,7992.67M572.716,7834.26L572.716,7890.27M687.51,7870.72L647.097,7910.98M458.801,7870.72L498.627,7910.98" style="fill:none;stroke:rgb(9,3,108);stroke-width:10px;"/>
            </g>
        </g>
    </g>
</svg>
