<?xml version="1.0" encoding="UTF-8" standalone="no"?>
<!DOCTYPE svg PUBLIC "-//W3C//DTD SVG 1.1//EN" "http://www.w3.org/Graphics/SVG/1.1/DTD/svg11.dtd">
<svg width="100%" height="100%" viewBox="0 0 377 375" version="1.1" xmlns="http://www.w3.org/2000/svg" xmlns:xlink="http://www.w3.org/1999/xlink" xml:space="preserve" xmlns:serif="http://www.serif.com/" style="fill-rule:evenodd;clip-rule:evenodd;stroke-miterlimit:10;">
    <g transform="matrix(1,0,0,1,-2033.38,-5988.46)">
        <g transform="matrix(3.06671,0,0,3.06671,2073.49,6028.6)">
            <g transform="matrix(0.326082,0,0,0.326082,-676.128,-1965.82)">
                <path d="M2290.83,6147.64L2318.95,6079.02L2250.08,6107.04M2250.08,6245.13L2318.95,6273.15L2290.83,6204.53M2152.22,6204.53L2124.1,6273.15L2192.97,6245.13M2192.97,6107.04L2124.1,6079.02L2152.22,6147.64M2262.42,6216.82L2359.13,6175.94L2262.42,6135.35L2221.38,6038.71L2180.63,6135.35L2083.63,6175.94L2180.63,6216.82L2221.38,6313.17L2262.42,6216.82ZM2241.76,6175.94C2241.76,6187.09 2232.57,6196.24 2221.38,6196.24C2210.48,6196.24 2201.29,6187.09 2201.29,6175.94C2201.29,6165.08 2210.48,6155.93 2221.38,6155.93C2232.57,6155.93 2241.76,6165.08 2241.76,6175.94" style="fill:none;stroke:rgb(9,3,108);stroke-width:10px;"/>
            </g>
        </g>
    </g>
</svg>
