<?xml version="1.0" encoding="UTF-8" standalone="no"?>
<!DOCTYPE svg PUBLIC "-//W3C//DTD SVG 1.1//EN" "http://www.w3.org/Graphics/SVG/1.1/DTD/svg11.dtd">
<svg width="100%" height="100%" viewBox="0 0 330 352" version="1.1" xmlns="http://www.w3.org/2000/svg" xmlns:xlink="http://www.w3.org/1999/xlink" xml:space="preserve" xmlns:serif="http://www.serif.com/" style="fill-rule:evenodd;clip-rule:evenodd;stroke-miterlimit:10;">
    <g transform="matrix(1,0,0,1,-1232.31,-7803.22)">
        <g transform="matrix(2.28571,0,0,2.28571,-5360.18,7818.23)">
            <g transform="matrix(0.4375,0,0,0.4375,2345.08,-3420.47)">
                <path d="M1482.28,8030.43C1439.14,8073.16 1369.35,8073.16 1326.72,8030.43C1284.09,7987.45 1283.58,7917.93 1326.72,7875.46L1482.28,8030.43ZM1376.96,8059L1399.81,8104.25L1282.56,8104.25L1323.17,8027.15M1408.43,7956.61L1444.98,7920.21M1444.98,7887.09C1463.25,7887.09 1478.47,7902.01 1478.47,7920.71M1444.98,7853.47C1481.77,7853.47 1511.97,7883.55 1511.97,7920.21" style="fill:none;stroke:rgb(9,3,108);stroke-width:10px;"/>
            </g>
        </g>
    </g>
</svg>
