<?xml version="1.0" encoding="UTF-8" standalone="no"?>
<!DOCTYPE svg PUBLIC "-//W3C//DTD SVG 1.1//EN" "http://www.w3.org/Graphics/SVG/1.1/DTD/svg11.dtd">
<svg width="100%" height="100%" viewBox="0 0 446 445" version="1.1" xmlns="http://www.w3.org/2000/svg" xmlns:xlink="http://www.w3.org/1999/xlink" xml:space="preserve" xmlns:serif="http://www.serif.com/" style="fill-rule:evenodd;clip-rule:evenodd;stroke-miterlimit:10;">
    <g transform="matrix(1,0,0,1,-6496.74,-3641.06)">
        <g transform="matrix(2.94146,0,0,2.94146,6576.99,3721.59)">
            <g transform="matrix(0.240393,0.240393,-0.240393,0.240393,-638.327,-2495.73)">
                <path d="M6651.68,3727.45C6651.68,3764.74 6681.96,3794.91 6719.39,3794.91C6757.38,3796 6786.83,3827.54 6786,3864.83C6784.9,3901.3 6755.45,3929.82 6719.39,3930.92C6681.96,3930.92 6651.68,3961.36 6651.68,3998.65M6686.74,3749.98L6750.66,3749.98M6696.82,3830.59L6740.86,3830.59M6696.82,3897.88L6740.86,3897.88M6667.92,3863.46L6770.04,3863.46M6681.92,3975.49L6756.04,3975.49M6750.22,3938.87C6772.79,3950.39 6787.11,3973.97 6787.11,3998.93M6787.11,3726.9C6787.11,3751.58 6774.44,3774.07 6752.42,3786.13M6695.17,3926.53C6659.39,3913.92 6641.77,3874.43 6654.71,3839.33C6661.59,3820.96 6676.18,3805.6 6695.17,3799.02" style="fill:none;stroke:rgb(6,31,121);stroke-width:15.64px;"/>
            </g>
        </g>
    </g>
</svg>
