<?xml version="1.0" encoding="UTF-8" standalone="no"?>
<!DOCTYPE svg PUBLIC "-//W3C//DTD SVG 1.1//EN" "http://www.w3.org/Graphics/SVG/1.1/DTD/svg11.dtd">
<svg width="100%" height="100%" viewBox="0 0 382 351" version="1.1" xmlns="http://www.w3.org/2000/svg" xmlns:xlink="http://www.w3.org/1999/xlink" xml:space="preserve" xmlns:serif="http://www.serif.com/" style="fill-rule:evenodd;clip-rule:evenodd;stroke-miterlimit:10;">
    <g transform="matrix(1,0,0,1,-2030.71,-5082.76)">
        <g transform="matrix(2.28571,0,0,2.28571,-4536.18,5097.23)">
            <g transform="matrix(0.4375,0,0,0.4375,1984.58,-2230.04)">
                <path d="M2246.28,5281.06C2246.28,5291.77 2233.82,5305.87 2220.24,5305.87C2206.65,5305.87 2197.02,5291.77 2197.02,5281.06C2197.02,5270.34 2208.35,5261.32 2221.93,5261.32C2235.52,5261.32 2246.28,5270.34 2246.28,5281.06M2221.37,5307.56C2221.37,5327.02 2208.91,5339.15 2191.93,5339.15C2175.23,5339.15 2160.79,5323.36 2160.79,5304.46M2282.23,5307.56C2282.23,5327.02 2269.49,5339.15 2252.79,5339.15C2236.09,5339.15 2221.93,5323.36 2221.93,5304.46M2318.74,5230.01C2343.37,5360.02 2279.12,5383.42 2221.93,5383.42C2164.75,5383.42 2107.01,5358.32 2125.41,5235.09M2126.26,5319.97C2101.35,5319.97 2080.96,5299.67 2080.96,5274.85C2082.1,5262.44 2085.21,5250.32 2090.02,5239.04L2091.15,5237.63C2121.73,5177.84 2150.88,5133.01 2218.25,5133.01C2285.91,5133.01 2330.63,5183.48 2352.71,5243.27C2357.24,5253.98 2361.77,5266.96 2361.77,5275.13C2361.77,5299.95 2342.81,5320.26 2319.88,5320.26M2213.72,5133.01C2215.14,5140.34 2217.41,5169.95 2217.41,5178.12C2217.41,5233.12 2187.12,5292.9 2121.44,5279.65M2189.66,5230.58C2189.66,5236.78 2184.85,5241.86 2178.34,5241.86C2172.11,5241.86 2167.02,5236.78 2167.02,5230.58C2167.02,5224.37 2172.11,5219.3 2178.34,5219.3C2184.85,5219.3 2189.66,5224.37 2189.66,5230.58M2275.72,5230.58C2275.72,5236.78 2270.91,5241.86 2264.39,5241.86C2258.17,5241.86 2253.07,5236.78 2253.07,5230.58C2253.07,5224.37 2258.17,5219.3 2264.39,5219.3C2270.91,5219.3 2275.72,5224.37 2275.72,5230.58" style="fill:none;stroke:rgb(9,3,108);stroke-width:10px;"/>
            </g>
        </g>
    </g>
</svg>
