<?xml version="1.0" encoding="UTF-8" standalone="no"?>
<!DOCTYPE svg PUBLIC "-//W3C//DTD SVG 1.1//EN" "http://www.w3.org/Graphics/SVG/1.1/DTD/svg11.dtd">
<svg width="100%" height="100%" viewBox="0 0 360 361" version="1.1" xmlns="http://www.w3.org/2000/svg" xmlns:xlink="http://www.w3.org/1999/xlink" xml:space="preserve" xmlns:serif="http://www.serif.com/" style="fill-rule:evenodd;clip-rule:evenodd;stroke-miterlimit:10;">
    <g transform="matrix(1,0,0,1,-6125.64,-3681.43)">
        <g transform="matrix(2.28571,0,0,2.28571,-450.679,3702.23)">
            <g transform="matrix(0.4375,0,0,0.4375,197.172,-1619.72)">
                <path d="M6281.31,3886.36L6175.89,3991.38M6239.82,3991.38L6175.89,3991.38L6175.89,3927.69M6175.89,3731.68L6281.31,3836.45M6175.89,3795.37L6175.89,3731.68L6239.82,3731.68M6434.74,3991.38L6329.58,3886.36M6434.74,3927.69L6434.74,3991.38L6371.07,3991.38M6329.58,3836.45L6434.74,3731.68M6371.07,3731.68L6434.74,3731.68L6434.74,3795.37" style="fill:none;stroke:rgb(9,3,108);stroke-width:10px;"/>
            </g>
        </g>
    </g>
</svg>
