<?xml version="1.0" encoding="UTF-8" standalone="no"?>
<!DOCTYPE svg PUBLIC "-//W3C//DTD SVG 1.1//EN" "http://www.w3.org/Graphics/SVG/1.1/DTD/svg11.dtd">
<svg width="100%" height="100%" viewBox="0 0 337 338" version="1.1" xmlns="http://www.w3.org/2000/svg" xmlns:xlink="http://www.w3.org/1999/xlink" xml:space="preserve" xmlns:serif="http://www.serif.com/" style="fill-rule:evenodd;clip-rule:evenodd;stroke-miterlimit:10;">
    <g transform="matrix(1,0,0,1,-1229.08,-6006.94)">
        <g transform="matrix(2.28571,0,0,2.28571,-5360.18,6015.23)">
            <g transform="matrix(0.4375,0,0,0.4375,2345.08,-2631.66)">
                <path d="M1458.68,6057.19L1492.3,6057.19L1515.35,6294.46L1279.33,6294.46L1279.33,6176.3L1296.62,6176.3L1355.92,6129.18L1355.92,6175.82L1423.39,6132.77L1423.39,6175.82L1446.2,6175.82L1458.68,6057.19ZM1299.02,6220.31L1323.51,6220.31L1323.51,6250.21L1299.02,6250.21L1299.02,6220.31ZM1342.72,6220.31L1367.45,6220.31L1367.45,6250.21L1342.72,6250.21L1342.72,6220.31ZM1386.9,6220.31L1411.63,6220.31L1411.63,6250.21L1386.9,6250.21L1386.9,6220.31Z" style="fill:none;stroke:rgb(9,3,108);stroke-width:10px;"/>
            </g>
        </g>
    </g>
</svg>
