<?xml version="1.0" encoding="UTF-8" standalone="no"?>
<!DOCTYPE svg PUBLIC "-//W3C//DTD SVG 1.1//EN" "http://www.w3.org/Graphics/SVG/1.1/DTD/svg11.dtd">
<svg width="100%" height="100%" viewBox="0 0 359 360" version="1.1" xmlns="http://www.w3.org/2000/svg" xmlns:xlink="http://www.w3.org/1999/xlink" xml:space="preserve" xmlns:serif="http://www.serif.com/" style="fill-rule:evenodd;clip-rule:evenodd;stroke-miterlimit:10;">
    <g transform="matrix(1,0,0,1,-1628.97,-4601.16)">
        <g transform="matrix(2.28571,0,0,2.28571,-4948.18,4620.23)">
            <g transform="matrix(0.4375,0,0,0.4375,2164.83,-2021.35)">
                <path d="M1712.49,4694.37C1685.99,4723.64 1673.4,4764.68 1681.79,4806.49M1883.28,4674.25C1855.21,4655.43 1819.79,4646.8 1783.85,4653.86C1763.65,4658.04 1746.33,4665.88 1731.38,4677.38M1937.06,4755.53C1932.08,4729.91 1919.49,4707.44 1902.17,4690.19M1775.72,4906.33C1804.84,4873.4 1818.74,4827.93 1809.3,4780.88M1843.93,4790.29C1843.4,4785.06 1842.62,4779.84 1841.3,4774.61C1837.89,4757.1 1820.32,4745.86 1802.74,4749.26C1785.16,4752.65 1773.62,4770.16 1777.03,4787.68C1777.81,4795.52 1788.31,4851.19 1743.18,4893M1813.49,4910.52C1832.12,4883.33 1843.4,4850.93 1844.71,4816.95M1746.33,4763.89C1743.97,4773.56 1743.45,4784.02 1745.55,4793.95C1751.58,4824.53 1740.04,4854.58 1717.47,4872.62M1856,4901.89C1875.41,4861.64 1882.49,4814.86 1872.79,4768.07C1870.69,4756.84 1851.27,4706.13 1795.92,4717.37C1780.96,4720.24 1768.37,4728.61 1758.92,4739.59M1787.52,4686.53C1735.84,4698.29 1703.31,4748.73 1713.8,4800.74C1716.95,4818.52 1710.39,4836.29 1697.01,4847.01M1901.64,4872.1C1911.35,4837.07 1912.66,4799.44 1905.06,4761.28C1896.4,4717.11 1857.57,4686.01 1813.49,4683.92" style="fill:none;stroke:rgb(9,3,108);stroke-width:10px;"/>
            </g>
        </g>
    </g>
</svg>
