<?xml version="1.0" encoding="UTF-8" standalone="no"?>
<!DOCTYPE svg PUBLIC "-//W3C//DTD SVG 1.1//EN" "http://www.w3.org/Graphics/SVG/1.1/DTD/svg11.dtd">
<svg width="100%" height="100%" viewBox="0 0 384 346" version="1.1" xmlns="http://www.w3.org/2000/svg" xmlns:xlink="http://www.w3.org/1999/xlink" xml:space="preserve" xmlns:serif="http://www.serif.com/" style="fill-rule:evenodd;clip-rule:evenodd;stroke-miterlimit:10;">
    <g transform="matrix(1,0,0,1,30.641,-8292.59)">
        <g transform="matrix(2.28571,0,0,2.28571,-6596.57,8304.23)">
            <g transform="matrix(0.4375,0,0,0.4375,2886,-3633.1)">
                <path d="M62.647,8587.6L62.647,8505.83L260.171,8505.83L260.171,8587.6M168.962,8532.8L195.185,8532.8L195.185,8561.48L168.962,8561.48L168.962,8532.8ZM126.778,8532.8L153.286,8532.8L153.286,8561.48L126.778,8561.48L126.778,8532.8ZM85.45,8532.8L111.957,8532.8L111.957,8561.48L85.45,8561.48L85.45,8532.8ZM210.291,8561.76L210.291,8531.95L235.374,8531.95L235.374,8561.76L210.291,8561.76ZM160.982,8363.28L160.982,8342.84M109.677,8505.83L109.677,8460.11L145.59,8460.11L145.59,8505.83M176.658,8505.83L176.658,8460.11L212.572,8460.11L212.572,8505.83M81.174,8442.79L240.789,8442.79M240.789,8505.83L240.789,8442.79C240.789,8399.06 205.446,8363.28 160.982,8363.28C116.803,8363.28 81.174,8399.06 81.174,8442.79L81.174,8505.83M19.608,8587.6L302.355,8587.6" style="fill:none;stroke:rgb(9,3,108);stroke-width:10px;"/>
            </g>
        </g>
    </g>
</svg>
