<?xml version="1.0" encoding="UTF-8" standalone="no"?>
<!DOCTYPE svg PUBLIC "-//W3C//DTD SVG 1.1//EN" "http://www.w3.org/Graphics/SVG/1.1/DTD/svg11.dtd">
<svg width="100%" height="100%" viewBox="0 0 364 363" version="1.1" xmlns="http://www.w3.org/2000/svg" xmlns:xlink="http://www.w3.org/1999/xlink" xml:space="preserve" xmlns:serif="http://www.serif.com/" style="fill-rule:evenodd;clip-rule:evenodd;stroke-miterlimit:10;">
    <g transform="matrix(1,0,0,1,-4888.48,-3681.45)">
        <g transform="matrix(2.28571,0,0,2.28571,-1687.07,3702.23)">
            <g transform="matrix(0.4375,0,0,0.4375,738.094,-1619.72)">
                <path d="M5023.69,3851.25C5023.69,3857.6 5018.38,3862.89 5012.01,3862.89C5005.37,3862.89 5000.06,3857.6 5000.06,3851.25C5000.06,3844.64 5005.37,3839.35 5012.01,3839.35C5018.38,3839.35 5023.69,3844.64 5023.69,3851.25M5141.03,3851.25C5141.03,3857.6 5135.73,3862.89 5129.09,3862.89C5122.72,3862.89 5117.14,3857.6 5117.14,3851.25C5117.14,3844.64 5122.72,3839.35 5129.09,3839.35C5135.73,3839.35 5141.03,3844.64 5141.03,3851.25M5202.1,3862.89C5202.1,3935.36 5143.16,3994.07 5070.41,3994.07C4997.94,3994.07 4938.73,3935.36 4938.73,3862.89C4938.73,3790.68 4997.94,3731.7 5070.41,3731.7C5143.16,3731.7 5202.1,3790.68 5202.1,3862.89M5119.27,3909.97C5103.6,3936.68 5069.62,3945.94 5042.01,3930.6C5033.51,3925.57 5026.34,3918.43 5021.3,3909.97" style="fill:none;stroke:rgb(9,3,108);stroke-width:10px;"/>
            </g>
        </g>
    </g>
</svg>
