<?xml version="1.0" encoding="UTF-8" standalone="no"?>
<!DOCTYPE svg PUBLIC "-//W3C//DTD SVG 1.1//EN" "http://www.w3.org/Graphics/SVG/1.1/DTD/svg11.dtd">
<svg width="100%" height="100%" viewBox="0 0 365 365" version="1.1" xmlns="http://www.w3.org/2000/svg" xmlns:xlink="http://www.w3.org/1999/xlink" xml:space="preserve" xmlns:serif="http://www.serif.com/" style="fill-rule:evenodd;clip-rule:evenodd;stroke-miterlimit:10;">
    <g transform="matrix(1,0,0,1,-1627.43,-6493.44)">
        <g transform="matrix(2.28571,0,0,2.28571,-4948.18,6515.23)">
            <g transform="matrix(0.4375,0,0,0.4375,2164.83,-2850.41)">
                <path d="M1718.35,6578.87L1689.18,6585.27M1731.99,6595.4L1708.45,6606.59M1757.14,6611.66L1734.94,6623.65M1789.25,6621.52L1770.79,6636.45M1929.71,6585.27L1900.55,6578.87M1910.45,6606.59L1886.37,6595.4M1884.23,6623.65L1862.02,6611.66M1848.38,6636.45L1829.92,6621.52M1826.97,6561.28C1826.97,6570.88 1819.21,6578.87 1809.31,6578.87C1799.68,6578.87 1791.92,6570.88 1791.92,6561.28C1791.92,6551.69 1799.68,6543.69 1809.31,6543.69C1819.21,6543.69 1826.97,6551.69 1826.97,6561.28M1809.31,6579.14L1809.31,6808.1M1795.4,6795.03C1798.61,6799.3 1804.23,6802.77 1809.31,6803.83M1777.74,6711.34C1769.72,6723.34 1782.83,6739.6 1809.05,6741.99M1778.28,6649.51C1760.62,6658.57 1757.94,6693.49 1809.05,6698.28C1816.81,6698.55 1824.03,6700.41 1831.25,6703.61C1834.73,6705.48 1837.67,6707.88 1840.35,6711.34C1848.38,6723.34 1835.53,6739.6 1809.31,6741.99C1771.86,6745.99 1780.69,6777.44 1809.31,6777.44C1836.07,6777.44 1826.97,6799.57 1809.31,6803.83M1839.82,6649.51C1857.47,6658.57 1860.42,6693.49 1809.31,6698.28M1832.86,6755.32C1836.34,6765.45 1826.97,6777.44 1809.05,6777.44M1848.91,6561.28C1848.91,6583.14 1831.25,6600.46 1809.31,6600.46C1787.64,6600.46 1769.99,6583.14 1769.99,6561.28L1677.68,6561.28C1691.59,6606.86 1745.1,6640.71 1809.31,6640.71C1873.53,6640.71 1927.04,6606.86 1941.22,6561.28L1848.91,6561.28Z" style="fill:none;stroke:rgb(9,3,108);stroke-width:10px;"/>
            </g>
        </g>
    </g>
</svg>
