<?xml version="1.0" encoding="UTF-8" standalone="no"?>
<!DOCTYPE svg PUBLIC "-//W3C//DTD SVG 1.1//EN" "http://www.w3.org/Graphics/SVG/1.1/DTD/svg11.dtd">
<svg width="100%" height="100%" viewBox="0 0 352 331" version="1.1" xmlns="http://www.w3.org/2000/svg" xmlns:xlink="http://www.w3.org/1999/xlink" xml:space="preserve" xmlns:serif="http://www.serif.com/" style="fill-rule:evenodd;clip-rule:evenodd;stroke-miterlimit:10;">
    <g transform="matrix(1,0,0,1,-5717.75,-4175.65)">
        <g transform="matrix(2.28571,0,0,2.28571,-863.071,4179.23)">
            <g transform="matrix(0.4375,0,0,0.4375,377.594,-1828.41)">
                <path d="M5893.5,4270.47C5919.92,4222.26 5972.76,4215.26 5999.18,4239.37C6025.61,4263.47 6025.61,4311.68 5999.18,4359.89C5980.69,4396.04 5933.13,4432.2 5893.5,4456.3L5893.5,4456.3C5853.87,4432.2 5806.31,4396.04 5787.82,4359.89C5761.39,4311.68 5761.39,4263.47 5787.82,4239.37C5814.24,4215.26 5867.08,4222.26 5893.5,4270.47Z" style="fill:none;stroke:rgb(9,3,108);stroke-width:10px;"/>
            </g>
        </g>
    </g>
</svg>
