<?xml version="1.0" encoding="UTF-8" standalone="no"?>
<!DOCTYPE svg PUBLIC "-//W3C//DTD SVG 1.1//EN" "http://www.w3.org/Graphics/SVG/1.1/DTD/svg11.dtd">
<svg width="100%" height="100%" viewBox="0 0 368 361" version="1.1" xmlns="http://www.w3.org/2000/svg" xmlns:xlink="http://www.w3.org/1999/xlink" xml:space="preserve" xmlns:serif="http://www.serif.com/" style="fill-rule:evenodd;clip-rule:evenodd;stroke-miterlimit:10;">
    <g transform="matrix(1,0,0,1,-6124.96,-1530.22)">
        <g transform="matrix(2.28571,0,0,2.28571,-450.679,1543.5)">
            <g transform="matrix(0.4375,0,0,0.4375,197.172,-675.281)">
                <path d="M6406.35,1643.12C6406.35,1656 6395.85,1666.47 6383.18,1666.47C6370.25,1666.47 6359.75,1656 6359.75,1643.12C6359.75,1630.5 6370.25,1620.04 6383.18,1620.04C6395.85,1620.04 6406.35,1630.5 6406.35,1643.12M6338.19,1728.19L6310.18,1759.59L6284.05,1759.59L6271.11,1770.6L6271.11,1793.41L6244.17,1793.41L6244.17,1816.22L6222.62,1816.22L6222.62,1830.72L6213.19,1840.38L6181.4,1840.38L6175.21,1828.3L6175.21,1808.44L6295.9,1688.2L6296.44,1687.94C6279.2,1649.56 6295.9,1605.01 6334.69,1587.3C6373.49,1569.85 6418.48,1587.03 6435.72,1625.14C6452.96,1663.25 6435.99,1708.33 6397.73,1725.51C6378.87,1734.63 6338.19,1728.19 6338.19,1728.19Z" style="fill:none;stroke:rgb(9,3,108);stroke-width:10px;"/>
            </g>
        </g>
    </g>
</svg>
