<?xml version="1.0" encoding="UTF-8" standalone="no"?>
<!DOCTYPE svg PUBLIC "-//W3C//DTD SVG 1.1//EN" "http://www.w3.org/Graphics/SVG/1.1/DTD/svg11.dtd">
<svg width="100%" height="100%" viewBox="0 0 351 367" version="1.1" xmlns="http://www.w3.org/2000/svg" xmlns:xlink="http://www.w3.org/1999/xlink" xml:space="preserve" xmlns:serif="http://www.serif.com/" style="fill-rule:evenodd;clip-rule:evenodd;stroke-miterlimit:10;">
    <g transform="matrix(1,0,0,1,-1220.47,-5073.47)">
        <g transform="matrix(2.28571,0,0,2.28571,-5360.18,5097.23)">
            <g transform="matrix(0.4375,0,0,0.4375,2344.38,-2230.5)">
                <path d="M1423.18,5319.36C1459.55,5304.86 1476.79,5264.88 1462.52,5228.91C1447.97,5192.68 1407.83,5175.51 1371.46,5189.73C1335.36,5203.95 1318.12,5244.21 1332.4,5280.44C1339.67,5298.69 1354.22,5312.92 1372.81,5319.89L1372.81,5362.03L1422.91,5362.03L1423.18,5319.36ZM1364.72,5377.06L1430.19,5377.06M1374.15,5391.01L1420.22,5391.01M1451.74,5176.04L1482.72,5148.4M1340.48,5176.04L1310.04,5148.4M1314.35,5230.52L1272.32,5230.52M1522.32,5230.52L1481.1,5230.52M1398.4,5162.36L1398.4,5124.78" style="fill:none;stroke:rgb(9,3,108);stroke-width:10px;"/>
            </g>
        </g>
    </g>
</svg>
