<?xml version="1.0" encoding="UTF-8" standalone="no"?>
<!DOCTYPE svg PUBLIC "-//W3C//DTD SVG 1.1//EN" "http://www.w3.org/Graphics/SVG/1.1/DTD/svg11.dtd">
<svg width="100%" height="100%" viewBox="0 0 384 325" version="1.1" xmlns="http://www.w3.org/2000/svg" xmlns:xlink="http://www.w3.org/1999/xlink" xml:space="preserve" xmlns:serif="http://www.serif.com/" style="fill-rule:evenodd;clip-rule:evenodd;stroke-miterlimit:10;">
    <g transform="matrix(1,0,0,1,-1617.94,-7816.89)">
        <g transform="matrix(2.28571,0,0,2.28571,-4948.18,7818.23)">
            <g transform="matrix(0.4375,0,0,0.4375,2164.83,-3420.47)">
                <path d="M1742.2,7946.89L1728.82,7957.67C1740.78,7912.87 1786.6,7885.64 1832.14,7897.27C1846.95,7900.96 1860.61,7908.61 1870.86,7919.67L1890.5,7900.11C1846.38,7856.15 1774.93,7856.15 1731.1,7900.11C1716.58,7914.57 1706.05,7932.72 1701.5,7953.13L1692.1,7941.79L1668.19,7955.4L1710.32,8010.7L1760.41,7968.73L1742.2,7946.89ZM1910.99,7945.48L1862.32,7989.43L1881.1,8010.7L1892.77,7999.92C1881.1,8044.72 1834.99,8071.94 1790.02,8060.32C1775.22,8056.63 1761.55,8048.98 1751.31,8037.92L1731.1,8058.05C1775.22,8102 1846.95,8102 1890.5,8058.05C1905.01,8043.59 1915.54,8025.44 1920.1,8005.31L1928.92,8016.65L1951.12,8001.62L1910.99,7945.48ZM1837.84,7978.65C1837.84,7991.7 1827.02,8002.19 1813.93,8002.19C1801.12,8002.19 1790.3,7991.7 1790.3,7978.65C1790.3,7965.61 1801.12,7955.12 1813.93,7955.12C1827.02,7955.12 1837.84,7965.61 1837.84,7978.65" style="fill:none;stroke:rgb(9,3,108);stroke-width:10px;"/>
            </g>
        </g>
    </g>
</svg>
