<?xml version="1.0" encoding="UTF-8" standalone="no"?>
<!DOCTYPE svg PUBLIC "-//W3C//DTD SVG 1.1//EN" "http://www.w3.org/Graphics/SVG/1.1/DTD/svg11.dtd">
<svg width="100%" height="100%" viewBox="0 0 352 351" version="1.1" xmlns="http://www.w3.org/2000/svg" xmlns:xlink="http://www.w3.org/1999/xlink" xml:space="preserve" xmlns:serif="http://www.serif.com/" style="fill-rule:evenodd;clip-rule:evenodd;stroke-miterlimit:10;">
    <g transform="matrix(1,0,0,1,-6955.13,-3687.7)">
        <g transform="matrix(2.28571,0,0,2.28571,373.321,3702.23)">
            <g transform="matrix(0.4375,0,0,0.4375,-163.328,-1619.72)">
                <path d="M7180.06,3932.11L7200.53,3911.71L7256.4,3967.36L7235.67,3987.76L7180.06,3932.11ZM7204.57,3837.17C7204.57,3891.82 7159.83,3936.39 7104.98,3936.39C7050.13,3936.39 7005.38,3891.82 7005.38,3837.17C7005.38,3782.53 7050.13,3737.95 7104.98,3737.95C7159.83,3737.95 7204.57,3782.53 7204.57,3837.17M7175.25,3907.18L7189.91,3922.29" style="fill:none;stroke:rgb(9,3,108);stroke-width:10px;"/>
            </g>
        </g>
    </g>
</svg>
