<?xml version="1.0" encoding="UTF-8" standalone="no"?>
<!DOCTYPE svg PUBLIC "-//W3C//DTD SVG 1.1//EN" "http://www.w3.org/Graphics/SVG/1.1/DTD/svg11.dtd">
<svg width="100%" height="100%" viewBox="0 0 359 359" version="1.1" xmlns="http://www.w3.org/2000/svg" xmlns:xlink="http://www.w3.org/1999/xlink" xml:space="preserve" xmlns:serif="http://www.serif.com/" style="fill-rule:evenodd;clip-rule:evenodd;stroke-miterlimit:10;">
    <g transform="matrix(1,0,0,1,-6951.68,-2345.95)">
        <g transform="matrix(2.28571,0,0,2.28571,373.321,2363.23)">
            <g transform="matrix(0.4375,0,0,0.4375,-163.328,-1033.91)">
                <path d="M7205.9,2397.49L7027.78,2456.99C7011.61,2462.44 7001.96,2473.1 7001.96,2491.02C7001.18,2507.65 7012.4,2522.2 7027.78,2526.35L7204.85,2581.69M7108.89,2551.03L7138.09,2622.48C7143.05,2634.17 7137.05,2647.42 7125.05,2652.36C7113.32,2657.29 7100.02,2651.58 7095.06,2639.37L7052.03,2533.89M7260.14,2489.72C7260.14,2541.42 7239.28,2583.25 7213.46,2583.25C7187.64,2583.25 7166.78,2541.42 7166.78,2489.72C7166.78,2438.28 7187.64,2396.2 7213.46,2396.2C7239.28,2396.2 7260.14,2438.28 7260.14,2489.72M7185.03,2459.07C7202.77,2459.07 7216.33,2472.84 7216.33,2490.24C7216.33,2507.65 7202.77,2520.9 7185.03,2520.9" style="fill:none;stroke:rgb(9,3,108);stroke-width:10px;"/>
            </g>
        </g>
    </g>
</svg>
