<?xml version="1.0" encoding="UTF-8" standalone="no"?>
<!DOCTYPE svg PUBLIC "-//W3C//DTD SVG 1.1//EN" "http://www.w3.org/Graphics/SVG/1.1/DTD/svg11.dtd">
<svg width="100%" height="100%" viewBox="0 0 362 323" version="1.1" xmlns="http://www.w3.org/2000/svg" xmlns:xlink="http://www.w3.org/1999/xlink" xml:space="preserve" xmlns:serif="http://www.serif.com/" style="fill-rule:evenodd;clip-rule:evenodd;stroke-miterlimit:10;">
    <g transform="matrix(1,0,0,1,-6126.06,-2362.77)">
        <g transform="matrix(2.28571,0,0,2.28571,-450.679,2363.23)">
            <g transform="matrix(0.4375,0,0,0.4375,197.172,-1033.91)">
                <path d="M6219.98,2635.01L6393.88,2635.01C6421.51,2611.16 6437.29,2576.56 6437.29,2540.13C6437.29,2469.89 6378.89,2413.02 6306.8,2413.02C6234.98,2413.02 6176.31,2469.89 6176.31,2540.13C6176.57,2576.56 6192.36,2611.16 6219.98,2635.01ZM6200.25,2525.72C6206.3,2472.25 6254.97,2432.41 6310.22,2433.98C6363.1,2435.56 6407.82,2474.61 6413.61,2525.72M6319.16,2528.08C6319.16,2534.63 6313.9,2539.87 6307.32,2539.87C6300.49,2539.87 6295.22,2534.63 6295.22,2528.08C6295.22,2521.26 6300.49,2516.02 6307.32,2516.02C6313.9,2516.02 6319.16,2521.26 6319.16,2528.08M6316.8,2518.9L6359.68,2481.42M6271.81,2600.68L6342.84,2600.68" style="fill:none;stroke:rgb(9,3,108);stroke-width:10px;"/>
            </g>
        </g>
    </g>
</svg>
