<?xml version="1.0" encoding="UTF-8" standalone="no"?>
<!DOCTYPE svg PUBLIC "-//W3C//DTD SVG 1.1//EN" "http://www.w3.org/Graphics/SVG/1.1/DTD/svg11.dtd">
<svg width="100%" height="100%" viewBox="0 0 336 375" version="1.1" xmlns="http://www.w3.org/2000/svg" xmlns:xlink="http://www.w3.org/1999/xlink" xml:space="preserve" xmlns:serif="http://www.serif.com/" style="fill-rule:evenodd;clip-rule:evenodd;stroke-miterlimit:10;">
    <g transform="matrix(1,0,0,1,-6551.06,-1516.96)">
        <g transform="matrix(2.96233,0,0,2.96233,6575.99,1561.87)">
            <g transform="matrix(0.337572,0,0,0.337572,-2219.87,-527.242)">
                <path d="M6836.39,1841.17L6822.25,1724.07L6738.81,1635.7L6757.94,1567.21L6680.04,1567.21L6698.89,1635.7L6615.73,1724.07L6601.31,1841.17L6836.39,1841.17ZM6698.89,1635.7L6738.81,1635.7M6777.62,1616.37L6738.81,1635.7M6777.89,1635.7L6738.81,1635.7M6743.35,1715L6713.35,1715C6708.31,1715 6703.48,1717 6699.91,1720.57C6696.35,1724.13 6694.35,1728.96 6694.35,1734C6694.35,1734 6694.35,1734 6694.35,1734C6694.35,1739.04 6696.35,1743.87 6699.91,1747.43C6703.48,1751 6708.31,1753 6713.35,1753C6717.46,1753 6721.79,1753 6725.85,1753C6735.51,1753 6743.35,1760.84 6743.35,1770.5C6743.35,1770.5 6743.35,1770.5 6743.35,1770.5C6743.35,1780.16 6735.51,1788 6725.85,1788C6711.78,1788 6694.35,1788 6694.35,1788M6712.24,1692L6712.24,1808M6727.24,1692L6727.24,1808" style="fill:none;stroke:rgb(9,3,108);stroke-width:10px;"/>
            </g>
        </g>
    </g>
</svg>
