<?xml version="1.0" encoding="UTF-8" standalone="no"?>
<!DOCTYPE svg PUBLIC "-//W3C//DTD SVG 1.1//EN" "http://www.w3.org/Graphics/SVG/1.1/DTD/svg11.dtd">
<svg width="100%" height="100%" viewBox="0 0 352 358" version="1.1" xmlns="http://www.w3.org/2000/svg" xmlns:xlink="http://www.w3.org/1999/xlink" xml:space="preserve" xmlns:serif="http://www.serif.com/" style="fill-rule:evenodd;clip-rule:evenodd;stroke-miterlimit:10;">
    <g transform="matrix(1,0,0,1,-6954.24,-2788.48)">
        <g transform="matrix(2.28571,0,0,2.28571,373.321,2806.23)">
            <g transform="matrix(0.4375,0,0,0.4375,-163.328,-1227.72)">
                <path d="M7097.66,3049.89L7097.66,2862.71L7254.75,2838.73L7254.75,3025.91M7097.66,2906.28L7254.23,2884.37M7255.01,3029.78C7255.01,3051.44 7234.31,3069.23 7208.43,3069.23C7182.55,3069.23 7161.58,3051.44 7161.58,3029.78C7161.58,3007.87 7182.55,2990.08 7208.43,2990.08C7234.31,2990.08 7255.01,3007.87 7255.01,3029.78M7098.18,3055.56C7098.18,3077.48 7077.21,3095.27 7051.33,3095.27C7025.45,3095.27 7004.49,3077.48 7004.49,3055.56C7004.49,3033.91 7025.45,3016.12 7051.33,3016.12C7077.21,3016.12 7098.18,3033.91 7098.18,3055.56" style="fill:none;stroke:rgb(9,3,108);stroke-width:10px;"/>
            </g>
        </g>
    </g>
</svg>
