<?xml version="1.0" encoding="UTF-8" standalone="no"?>
<!DOCTYPE svg PUBLIC "-//W3C//DTD SVG 1.1//EN" "http://www.w3.org/Graphics/SVG/1.1/DTD/svg11.dtd">
<svg width="100%" height="100%" viewBox="0 0 372 373" version="1.1" xmlns="http://www.w3.org/2000/svg" xmlns:xlink="http://www.w3.org/1999/xlink" xml:space="preserve" xmlns:serif="http://www.serif.com/" style="fill-rule:evenodd;clip-rule:evenodd;stroke-miterlimit:10;">
    <g transform="matrix(1,0,0,1,26.3175,-7791.07)">
        <g transform="matrix(2.28571,0,0,2.28571,-6596.57,7818.23)">
            <g transform="matrix(0.4375,0,0,0.4375,2886,-3420.47)">
                <path d="M56.419,7994.09L56.419,8059.64L159.388,8113.4L262.632,8059.64L262.632,7994.09M262.632,7934.02L295.12,7894.52L193.803,7841.32L159.388,7880.54L262.632,7934.02ZM159.388,8113.4L159.388,7987.5M159.113,7880.54L124.698,7841.32L23.932,7895.07L56.419,7935.39L159.113,7880.54ZM159.388,7987.5L119.467,8029.19L23.932,7975.16L56.419,7935.39L159.388,7987.5ZM262.632,7934.02L295.12,7974.89L200.135,8029.74L159.388,7987.5L262.632,7934.02Z" style="fill:none;stroke:rgb(9,3,108);stroke-width:10px;"/>
            </g>
        </g>
    </g>
</svg>
