<?xml version="1.0" encoding="UTF-8" standalone="no"?>
<!DOCTYPE svg PUBLIC "-//W3C//DTD SVG 1.1//EN" "http://www.w3.org/Graphics/SVG/1.1/DTD/svg11.dtd">
<svg width="100%" height="100%" viewBox="0 0 289 383" version="1.1" xmlns="http://www.w3.org/2000/svg" xmlns:xlink="http://www.w3.org/1999/xlink" xml:space="preserve" xmlns:serif="http://www.serif.com/" style="fill-rule:evenodd;clip-rule:evenodd;stroke-miterlimit:10;">
    <g transform="matrix(1,0,0,1,-6162.28,-3234.85)">
        <g transform="matrix(2.28571,0,0,2.28571,-450.679,3265.23)">
            <g transform="matrix(0.4375,0,0,0.4375,197.172,-1428.54)">
                <path d="M6388.11,3566.78L6225.36,3566.78C6217.95,3566.78 6212.53,3561.1 6212.53,3554.28L6212.53,3297.88C6212.53,3290.78 6218.52,3285.1 6225.36,3285.1L6388.11,3285.1C6395.52,3285.1 6400.93,3291.06 6400.93,3297.88L6400.93,3553.71C6401.5,3561.1 6395.52,3566.78 6388.11,3566.78ZM6240.75,3322.86L6372.72,3322.86L6372.72,3491.81L6240.75,3491.81L6240.75,3322.86ZM6317.14,3529.29C6317.14,3534.69 6312.57,3539.23 6306.88,3539.23C6301.46,3539.23 6296.9,3534.69 6296.9,3529.29C6296.9,3523.62 6301.46,3519.07 6306.88,3519.07C6312.57,3519.07 6317.14,3523.62 6317.14,3529.29M6288.35,3388.46L6269.25,3407.48L6288.35,3425.94M6325.69,3388.46L6344.78,3407.48L6325.69,3425.94" style="fill:none;stroke:rgb(9,3,108);stroke-width:10px;"/>
            </g>
        </g>
    </g>
</svg>
