<?xml version="1.0" encoding="UTF-8" standalone="no"?>
<!DOCTYPE svg PUBLIC "-//W3C//DTD SVG 1.1//EN" "http://www.w3.org/Graphics/SVG/1.1/DTD/svg11.dtd">
<svg width="100%" height="100%" viewBox="0 0 366 365" version="1.1" xmlns="http://www.w3.org/2000/svg" xmlns:xlink="http://www.w3.org/1999/xlink" xml:space="preserve" xmlns:serif="http://www.serif.com/" style="fill-rule:evenodd;clip-rule:evenodd;stroke-miterlimit:10;">
    <g transform="matrix(1,0,0,1,-6534.45,-1943.55)">
        <g transform="matrix(2.28571,0,0,2.28571,-38.6786,1966.5)">
            <g transform="matrix(0.4375,0,0,0.4375,16.9219,-860.344)">
                <path d="M6788.43,2013.77L6737.62,2074.24C6731.2,2072.11 6724.79,2070.78 6717.83,2070.78C6710.88,2070.78 6705,2072.11 6698.58,2074.24L6654.99,2008.98C6697.24,1987.13 6747.78,1989 6788.43,2013.77ZM6793.24,2234.34C6853.4,2192.78 6868.11,2110.47 6826.4,2050C6821.85,2043.07 6816.24,2036.68 6810.62,2030.82L6759.82,2091.29C6778.27,2112.87 6776.39,2144.03 6757.14,2164.01L6793.24,2234.34ZM6736.55,2176.8C6708.47,2187.45 6676.39,2173.07 6665.69,2144.57C6658.47,2125.39 6662.75,2104.34 6676.39,2089.16L6632.8,2023.89C6576.11,2070.24 6568.62,2153.36 6615.15,2209.83C6652.32,2254.85 6715.16,2270.3 6769.71,2246.86L6736.55,2176.8Z" style="fill:none;stroke:rgb(9,3,108);stroke-width:10px;"/>
            </g>
        </g>
    </g>
</svg>
