<?xml version="1.0" encoding="UTF-8" standalone="no"?>
<!DOCTYPE svg PUBLIC "-//W3C//DTD SVG 1.1//EN" "http://www.w3.org/Graphics/SVG/1.1/DTD/svg11.dtd">
<svg width="100%" height="100%" viewBox="0 0 295 383" version="1.1" xmlns="http://www.w3.org/2000/svg" xmlns:xlink="http://www.w3.org/1999/xlink" xml:space="preserve" xmlns:serif="http://www.serif.com/" style="fill-rule:evenodd;clip-rule:evenodd;stroke-miterlimit:10;">
    <g transform="matrix(1,0,0,1,-6571.72,-3671)">
        <g transform="matrix(2.28571,0,0,2.28571,-38.6786,3702.23)">
            <g transform="matrix(0.4375,0,0,0.4375,16.9219,-1619.72)">
                <path d="M6718.88,3721.25C6665.29,3721.25 6621.97,3764.97 6621.97,3818.07C6621.97,3871.17 6685.24,3944.43 6718.88,4002.92C6753.08,3944.71 6816.07,3872.02 6816.07,3818.07C6816.07,3764.41 6772.74,3721.25 6718.88,3721.25M6757.64,3823.47C6757.64,3844.76 6740.54,3862.09 6718.88,3862.09C6697.5,3862.09 6680.11,3844.76 6680.11,3823.47C6680.11,3802.17 6697.5,3784.85 6718.88,3784.85C6740.54,3784.85 6757.64,3802.17 6757.64,3823.47" style="fill:none;stroke:rgb(9,3,108);stroke-width:10px;"/>
            </g>
        </g>
    </g>
</svg>
