<?xml version="1.0" encoding="UTF-8" standalone="no"?>
<!DOCTYPE svg PUBLIC "-//W3C//DTD SVG 1.1//EN" "http://www.w3.org/Graphics/SVG/1.1/DTD/svg11.dtd">
<svg width="100%" height="100%" viewBox="0 0 360 359" version="1.1" xmlns="http://www.w3.org/2000/svg" xmlns:xlink="http://www.w3.org/1999/xlink" xml:space="preserve" xmlns:serif="http://www.serif.com/" style="fill-rule:evenodd;clip-rule:evenodd;stroke-miterlimit:10;">
    <g transform="matrix(1,0,0,1,-392.749,-1946.7)">
        <g transform="matrix(2.28571,0,0,2.28571,-6184.57,1966.5)">
            <g transform="matrix(0.4375,0,0,0.4375,2705.75,-860.344)">
                <path d="M570.974,2255.14L619.045,2207.98C631.413,2195.92 616.94,2184.91 608.519,2184.91C594.572,2185.7 582.467,2174.43 581.678,2160.53C580.889,2146.64 592.204,2134.58 606.151,2133.79C619.835,2133.01 632.203,2144.28 632.992,2158.17L632.992,2160.53C632.992,2169.45 643.518,2183.6 656.149,2171.02L695.712,2131.61M701.938,2125.4L654.571,2079.26C642.203,2066.94 656.676,2056.2 665.097,2056.2C678.78,2056.98 691.148,2045.71 691.938,2031.81C692.727,2017.92 681.412,2005.86 667.465,2005.08C653.518,2004.03 640.887,2015.04 640.097,2029.19L640.097,2031.81C640.097,2040.73 629.571,2054.88 616.94,2042.3L571.942,1996.95C565.693,2003.22 560.965,2007.95 560.965,2007.95L526.153,2042.83C513.785,2054.88 528.259,2065.89 536.679,2065.89C551.416,2064.85 563.521,2075.86 564.31,2090.01C565.1,2104.43 554.31,2117.01 539.837,2117.8C525.627,2118.59 512.996,2107.84 512.206,2093.42L512.206,2090.01C512.206,2081.36 501.68,2066.94 489.049,2079.53L442.998,2125.4M451.206,2133.63L489.312,2171.8C501.68,2184.13 487.207,2194.87 478.786,2194.87C464.05,2193.83 451.945,2204.57 450.366,2218.99C448.524,2233.67 459.84,2245.73 474.313,2247.3C482.207,2248.35 489.839,2245.21 495.365,2238.92C500.365,2233.93 503.786,2226.86 503.259,2219.26C503.259,2210.6 513.785,2196.18 526.417,2208.77L572,2254.18" style="fill:none;stroke:rgb(9,3,108);stroke-width:10px;"/>
            </g>
        </g>
    </g>
</svg>
