<?xml version="1.0" encoding="UTF-8" standalone="no"?>
<!DOCTYPE svg PUBLIC "-//W3C//DTD SVG 1.1//EN" "http://www.w3.org/Graphics/SVG/1.1/DTD/svg11.dtd">
<svg width="100%" height="100%" viewBox="0 0 368 367" version="1.1" xmlns="http://www.w3.org/2000/svg" xmlns:xlink="http://www.w3.org/1999/xlink" xml:space="preserve" xmlns:serif="http://www.serif.com/" style="fill-rule:evenodd;clip-rule:evenodd;stroke-miterlimit:10;">
    <g transform="matrix(1,0,0,1,-5298.53,-4156.51)">
        <g transform="matrix(2.28571,0,0,2.28571,-1275.07,4179.23)">
            <g transform="matrix(0.4375,0,0,0.4375,557.844,-1828.41)">
                <path d="M5616.07,4339.9C5616.07,4413.45 5556.26,4473.04 5482.43,4473.04C5408.87,4473.04 5348.78,4413.45 5348.78,4339.9C5348.78,4266.62 5408.87,4206.76 5482.43,4206.76C5556.26,4206.76 5616.07,4266.62 5616.07,4339.9M5437.16,4300.44C5437.16,4275.48 5457.64,4255.34 5482.43,4255.34C5507.49,4255.34 5527.69,4275.48 5527.69,4300.44C5527.69,4312.52 5523.11,4323.79 5514.49,4332.38C5508.83,4337.75 5498.06,4339.63 5489.97,4352.78C5480.81,4367.55 5482.43,4379.09 5482.43,4386.34M5493.74,4412.91C5493.74,4419.08 5488.62,4424.19 5482.43,4424.19C5476.23,4424.19 5471.38,4419.08 5471.38,4412.91C5471.38,4406.74 5476.23,4401.9 5482.43,4401.9C5488.62,4401.9 5493.74,4406.74 5493.74,4412.91" style="fill:none;stroke:rgb(9,3,108);stroke-width:10px;"/>
            </g>
        </g>
    </g>
</svg>
