<?xml version="1.0" encoding="UTF-8" standalone="no"?>
<!DOCTYPE svg PUBLIC "-//W3C//DTD SVG 1.1//EN" "http://www.w3.org/Graphics/SVG/1.1/DTD/svg11.dtd">
<svg width="100%" height="100%" viewBox="0 0 356 358" version="1.1" xmlns="http://www.w3.org/2000/svg" xmlns:xlink="http://www.w3.org/1999/xlink" xml:space="preserve" xmlns:serif="http://www.serif.com/" style="fill-rule:evenodd;clip-rule:evenodd;stroke-miterlimit:10;">
    <g transform="matrix(1,0,0,1,16.7709,-5517.98)">
        <g transform="matrix(2.28571,0,0,2.28571,-6596.57,5538.23)">
            <g transform="matrix(0.4375,0,0,0.4375,2886,-2422.97)">
                <path d="M144.985,5568.23L193.835,5647.84L181.357,5656.31L240.562,5659.74L261.27,5604.2L243.748,5616.1L207.375,5568.23L144.985,5568.23ZM144.985,5568.23L119.763,5568.23L99.851,5584.37L81.267,5629.59L136.755,5649.96L159.852,5592.83M54.718,5774.8L112.595,5701L125.339,5710.53L107.816,5653.66L48.081,5653.4L65.072,5665.03L33.479,5716.34L54.718,5774.8ZM54.718,5774.8L63.214,5797.54L84.984,5811.03L134.365,5812.88L133.834,5753.64L72.771,5751.79M275.607,5747.29L181.888,5745.97L181.888,5730.63L147.109,5778.23L182.154,5825.58L181.357,5804.68L241.358,5800.19L275.607,5747.29ZM275.607,5747.29L288.35,5726.92L286.226,5701L258.35,5661.33L210.827,5696.77L246.403,5746.76" style="fill:none;stroke:rgb(9,3,108);stroke-width:10px;"/>
            </g>
        </g>
    </g>
</svg>
