<?xml version="1.0" encoding="UTF-8" standalone="no"?>
<!DOCTYPE svg PUBLIC "-//W3C//DTD SVG 1.1//EN" "http://www.w3.org/Graphics/SVG/1.1/DTD/svg11.dtd">
<svg width="100%" height="100%" viewBox="0 0 365 374" version="1.1" xmlns="http://www.w3.org/2000/svg" xmlns:xlink="http://www.w3.org/1999/xlink" xml:space="preserve" xmlns:serif="http://www.serif.com/" style="fill-rule:evenodd;clip-rule:evenodd;stroke-miterlimit:10;">
    <g transform="matrix(1,0,0,1,-1627.03,-7378.15)">
        <g transform="matrix(2.28571,0,0,2.28571,-4948.18,7404.23)">
            <g transform="matrix(0.4375,0,0,0.4375,2164.83,-3239.35)">
                <path d="M1781.16,7587.49C1781.16,7602.35 1769.01,7614.46 1754.09,7614.46C1739.44,7614.46 1727.29,7602.35 1727.29,7587.49C1727.29,7572.62 1739.44,7560.51 1754.09,7560.51C1769.01,7560.51 1781.16,7572.62 1781.16,7587.49M1891.68,7587.49C1891.68,7602.35 1879.52,7614.46 1864.6,7614.46C1849.96,7614.46 1837.8,7602.35 1837.8,7587.49C1837.8,7572.62 1849.96,7560.51 1864.6,7560.51C1879.52,7560.51 1891.68,7572.62 1891.68,7587.49M1743.04,7651.34L1875.65,7651.34M1809.34,7510.42L1809.34,7465M1827.58,7446.56C1827.58,7456.47 1819.57,7464.73 1809.34,7464.73C1799.4,7464.73 1791.39,7456.47 1791.39,7446.56C1791.39,7436.65 1799.4,7428.4 1809.34,7428.4C1819.57,7428.4 1827.58,7436.65 1827.58,7446.56M1941.69,7583.08L1928.42,7583.08L1928.42,7557.48C1928.42,7531.61 1906.6,7509.87 1880.63,7509.87L1738.34,7509.87C1712.09,7509.87 1690.54,7531.61 1690.54,7557.48L1690.54,7583.08L1677.28,7583.08L1677.28,7646.11L1690.54,7646.11L1690.54,7701.44L1928.42,7701.44L1928.42,7646.11L1941.69,7646.11L1941.69,7583.08Z" style="fill:none;stroke:rgb(9,3,108);stroke-width:10px;"/>
            </g>
        </g>
    </g>
</svg>
