<?xml version="1.0" encoding="UTF-8" standalone="no"?>
<!DOCTYPE svg PUBLIC "-//W3C//DTD SVG 1.1//EN" "http://www.w3.org/Graphics/SVG/1.1/DTD/svg11.dtd">
<svg width="100%" height="100%" viewBox="0 0 357 355" version="1.1" xmlns="http://www.w3.org/2000/svg" xmlns:xlink="http://www.w3.org/1999/xlink" xml:space="preserve" xmlns:serif="http://www.serif.com/" style="fill-rule:evenodd;clip-rule:evenodd;stroke-miterlimit:10;">
    <g transform="matrix(1,0,0,1,-1219.22,-7387.52)">
        <g transform="matrix(2.28571,0,0,2.28571,-5360.18,7404.23)">
            <g transform="matrix(0.4375,0,0,0.4375,2345.08,-3239.35)">
                <path d="M1520.97,7441.65C1520.97,7441.65 1468.4,7419.57 1413.51,7480.67C1358.63,7542.02 1310.7,7595.42 1310.7,7595.42L1338.79,7623.4L1366.87,7651.12C1366.87,7651.12 1419.96,7603.12 1481.8,7548.95C1543.64,7494.79 1520.97,7441.65 1520.97,7441.65ZM1370.22,7529.19L1313.28,7510.7L1269.47,7554.34L1331.32,7572.83M1432.84,7592.08L1452.17,7648.3L1408.1,7692.19L1390.07,7630.33M1357.34,7641.88L1334.41,7664.73L1298.08,7628.53L1321.01,7605.69M1303.49,7658.31L1274.88,7687.06" style="fill:none;stroke:rgb(9,3,108);stroke-width:10px;"/>
            </g>
        </g>
    </g>
</svg>
