<?xml version="1.0" encoding="UTF-8" standalone="no"?>
<!DOCTYPE svg PUBLIC "-//W3C//DTD SVG 1.1//EN" "http://www.w3.org/Graphics/SVG/1.1/DTD/svg11.dtd">
<svg width="100%" height="100%" viewBox="0 0 365 364" version="1.1" xmlns="http://www.w3.org/2000/svg" xmlns:xlink="http://www.w3.org/1999/xlink" xml:space="preserve" xmlns:serif="http://www.serif.com/" style="fill-rule:evenodd;clip-rule:evenodd;stroke-miterlimit:10;">
    <g transform="matrix(1,0,0,1,-5300.39,-3681.36)">
        <g transform="matrix(2.28571,0,0,2.28571,-1275.07,3702.23)">
            <g transform="matrix(0.4375,0,0,0.4375,557.844,-1619.72)">
                <path d="M5614.19,3862.89C5614.19,3935.41 5555.21,3994.17 5482.41,3994.17C5409.88,3994.17 5350.64,3935.41 5350.64,3862.89C5350.64,3790.63 5409.88,3731.61 5482.41,3731.61C5555.21,3731.61 5614.19,3790.63 5614.19,3862.89M5531.3,3938.06C5515.62,3911.33 5481.62,3902.06 5453.99,3917.15C5445.48,3922.18 5438.31,3929.59 5433.26,3938.06M5435.65,3851.24C5435.65,3857.6 5430.34,3862.89 5423.97,3862.89C5417.32,3862.89 5412.01,3857.6 5412.01,3851.24C5412.01,3844.63 5417.32,3839.33 5423.97,3839.33C5430.34,3839.33 5435.65,3844.63 5435.65,3851.24M5553.09,3851.24C5553.09,3857.6 5547.77,3862.89 5541.13,3862.89C5534.76,3862.89 5529.18,3857.6 5529.18,3851.24C5529.18,3844.63 5534.76,3839.33 5541.13,3839.33C5547.77,3839.33 5553.09,3844.63 5553.09,3851.24" style="fill:none;stroke:rgb(9,3,108);stroke-width:10px;"/>
            </g>
        </g>
    </g>
</svg>
