<?xml version="1.0" encoding="UTF-8" standalone="no"?>
<!DOCTYPE svg PUBLIC "-//W3C//DTD SVG 1.1//EN" "http://www.w3.org/Graphics/SVG/1.1/DTD/svg11.dtd">
<svg width="100%" height="100%" viewBox="0 0 360 360" version="1.1" xmlns="http://www.w3.org/2000/svg" xmlns:xlink="http://www.w3.org/1999/xlink" xml:space="preserve" xmlns:serif="http://www.serif.com/" style="fill-rule:evenodd;clip-rule:evenodd;stroke-miterlimit:10;">
    <g transform="matrix(1,0,0,1,-4890.41,-2787.37)">
        <g transform="matrix(2.28571,0,0,2.28571,-1687.07,2806.23)">
            <g transform="matrix(0.4375,0,0,0.4375,738.094,-1227.72)">
                <path d="M5023.58,2846.48L5070.4,2876.19L5117.49,2846.48M4940.65,2974.18L4983.82,2938.99L4969.69,2885.31M5037.44,3091.7L5017.04,3040.37L4961.32,3036.98M5179.74,3036.98L5124.03,3040.37L5103.62,3091.7M5171.37,2885.31L5157.25,2938.99L5200.15,2974.18M5070.4,2914.76L5015.99,2954.37L5036.92,3018.22L5103.88,3018.22L5124.81,2954.37L5070.4,2914.76ZM5070.4,2876.19L5070.4,2914.76M5124.81,2954.37L5157.25,2938.99M5103.88,3018.22L5124.03,3040.37M5036.92,3018.22L5017.04,3040.37M4983.82,2938.99L5015.99,2954.37M5200.15,2966.88C5200.15,3038.28 5142.07,3096.13 5070.4,3096.13C4998.99,3096.13 4940.65,3038.28 4940.65,2966.88C4940.65,2895.74 4998.99,2837.62 5070.4,2837.62C5142.07,2837.62 5200.15,2895.74 5200.15,2966.88" style="fill:none;stroke:rgb(9,3,108);stroke-width:10px;"/>
            </g>
        </g>
    </g>
</svg>
