<?xml version="1.0" encoding="UTF-8" standalone="no"?>
<!DOCTYPE svg PUBLIC "-//W3C//DTD SVG 1.1//EN" "http://www.w3.org/Graphics/SVG/1.1/DTD/svg11.dtd">
<svg width="100%" height="100%" viewBox="0 0 366 365" version="1.1" xmlns="http://www.w3.org/2000/svg" xmlns:xlink="http://www.w3.org/1999/xlink" xml:space="preserve" xmlns:serif="http://www.serif.com/" style="fill-rule:evenodd;clip-rule:evenodd;stroke-miterlimit:10;">
    <g transform="matrix(1,0,0,1,-1626.95,-4157.49)">
        <g transform="matrix(2.28571,0,0,2.28571,-4948.18,4179.23)">
            <g transform="matrix(0.4375,0,0,0.4375,2164.83,-1828.41)">
                <path d="M1677.2,4401.71L1941.7,4401.71M1677.2,4331.9L1941.7,4331.9M1677.2,4261.03L1941.7,4261.03M1908.8,4437.14L1820.55,4437.14M1908.8,4366.8L1820.55,4366.8M1908.8,4296.47L1820.55,4296.47M1729.88,4296.47C1729.88,4302.33 1725.07,4307.12 1719.18,4307.12C1713.3,4307.12 1708.49,4302.33 1708.49,4296.47C1708.49,4290.6 1713.3,4285.81 1719.18,4285.81C1725.07,4285.81 1729.88,4290.6 1729.88,4296.47M1729.88,4366.8C1729.88,4372.66 1725.07,4377.46 1719.18,4377.46C1713.3,4377.46 1708.49,4372.66 1708.49,4366.8C1708.49,4360.94 1713.3,4356.15 1719.18,4356.15C1725.07,4356.15 1729.88,4360.94 1729.88,4366.8M1729.88,4437.14C1729.88,4443 1725.07,4447.8 1719.18,4447.8C1713.3,4447.8 1708.49,4443 1708.49,4437.14C1708.49,4431.28 1713.3,4426.48 1719.18,4426.48C1725.07,4426.48 1729.88,4431.28 1729.88,4437.14M1677.2,4261.56L1702.87,4207.74L1916.03,4207.74L1941.7,4261.56L1941.7,4472.04L1677.2,4472.04L1677.2,4261.56Z" style="fill:none;stroke:rgb(9,3,108);stroke-width:10px;"/>
            </g>
        </g>
    </g>
</svg>
