<?xml version="1.0" encoding="UTF-8" standalone="no"?>
<!DOCTYPE svg PUBLIC "-//W3C//DTD SVG 1.1//EN" "http://www.w3.org/Graphics/SVG/1.1/DTD/svg11.dtd">
<svg width="100%" height="100%" viewBox="0 0 361 360" version="1.1" xmlns="http://www.w3.org/2000/svg" xmlns:xlink="http://www.w3.org/1999/xlink" xml:space="preserve" xmlns:serif="http://www.serif.com/" style="fill-rule:evenodd;clip-rule:evenodd;stroke-miterlimit:10;">
    <g transform="matrix(1,0,0,1,-1629.17,-5996.24)">
        <g transform="matrix(2.28571,0,0,2.28571,-4948.18,6015.23)">
            <g transform="matrix(0.4375,0,0,0.4375,2164.83,-2631.66)">
                <path d="M1908.28,6069.45L1885.23,6046.49L1804.06,6074.93L1679.42,6198.57L1729.69,6248.66L1786.78,6305.27L1910.89,6181.36L1939.17,6100.49L1908.28,6069.45ZM1898.33,6102.58C1898.33,6111.97 1890.47,6119.53 1881.04,6119.53C1871.62,6119.53 1863.76,6111.97 1863.76,6102.58C1863.76,6093.19 1871.62,6085.36 1881.04,6085.36C1890.47,6085.36 1898.33,6093.19 1898.33,6102.58" style="fill:none;stroke:rgb(9,3,108);stroke-width:10px;"/>
            </g>
        </g>
    </g>
</svg>
