<?xml version="1.0" encoding="UTF-8" standalone="no"?>
<!DOCTYPE svg PUBLIC "-//W3C//DTD SVG 1.1//EN" "http://www.w3.org/Graphics/SVG/1.1/DTD/svg11.dtd">
<svg width="100%" height="100%" viewBox="0 0 279 368" version="1.1" xmlns="http://www.w3.org/2000/svg" xmlns:xlink="http://www.w3.org/1999/xlink" xml:space="preserve" xmlns:serif="http://www.serif.com/" style="fill-rule:evenodd;clip-rule:evenodd;stroke-miterlimit:10;">
    <g transform="matrix(1,0,0,1,-845.879,-4597.28)">
        <g transform="matrix(2.28571,0,0,2.28571,-5772.57,4620.23)">
            <g transform="matrix(0.4375,0,0,0.4375,2525.5,-2021.35)">
                <path d="M957.399,4812.09L957.399,4838.17M932.297,4744.06C928.518,4737.61 926.628,4729.81 926.628,4722.01C926.628,4698.08 946.602,4678.18 970.894,4678.18C994.916,4678.18 1014.89,4698.08 1014.89,4722.01C1014.89,4731.96 1011.92,4741.1 1006.25,4748.36M926.628,4782.24C908.274,4768.53 896.128,4746.48 896.128,4722.01C896.128,4681.14 929.328,4647.53 970.894,4647.53C1012.19,4647.53 1045.39,4681.14 1045.39,4722.01C1045.39,4734.92 1042.42,4746.48 1036.75,4757.24M986.819,4789.23C989.248,4783.59 994.916,4779.29 1001.12,4779.29C1008.68,4779.29 1015.7,4786.28 1015.7,4793.81L1015.7,4804.29M1015.7,4808.6L1015.7,4802.41C1015.7,4794.88 1023.53,4787.89 1031.36,4787.89C1038.91,4787.89 1045.93,4794.88 1045.93,4802.41L1045.93,4812.9M956.859,4914.27C956.859,4898.14 927.168,4874.74 927.168,4854.58L927.168,4825C927.168,4817.47 932.297,4812.09 940.124,4812.09L957.399,4812.09L957.399,4717.44C957.399,4709.64 964.416,4702.65 971.974,4702.65C979.801,4702.65 986.819,4709.64 986.819,4717.44L986.819,4799.99M1045.93,4810.21C1045.93,4802.41 1052.95,4795.69 1060.51,4795.69C1068.33,4795.69 1074.81,4802.41 1073.46,4810.21L1058.35,4914.27" style="fill:none;stroke:rgb(9,3,108);stroke-width:10px;"/>
            </g>
        </g>
    </g>
</svg>
