<?xml version="1.0" encoding="UTF-8" standalone="no"?>
<!DOCTYPE svg PUBLIC "-//W3C//DTD SVG 1.1//EN" "http://www.w3.org/Graphics/SVG/1.1/DTD/svg11.dtd">
<svg width="100%" height="100%" viewBox="0 0 361 360" version="1.1" xmlns="http://www.w3.org/2000/svg" xmlns:xlink="http://www.w3.org/1999/xlink" xml:space="preserve" xmlns:serif="http://www.serif.com/" style="fill-rule:evenodd;clip-rule:evenodd;stroke-miterlimit:10;">
    <g transform="matrix(1,0,0,1,-1216.92,-4601)">
        <g transform="matrix(2.28571,0,0,2.28571,-5360.18,4620.23)">
            <g transform="matrix(0.4375,0,0,0.4375,2345.08,-2021.35)">
                <path d="M1267.17,4713.97L1267.17,4651.25L1330.13,4651.25M1464.46,4651.25L1527.42,4651.25L1527.42,4713.97M1527.42,4847.79L1527.42,4910.52L1464.46,4910.52M1330.13,4910.52L1267.17,4910.52L1267.17,4847.79M1397.3,4718.15L1397.3,4749.52M1460.26,4780.88L1428.78,4780.88M1397.3,4843.61L1397.3,4812.24M1334.33,4780.88L1365.81,4780.88M1428.78,4780.88C1428.78,4798.39 1414.87,4812.24 1397.3,4812.24C1379.98,4812.24 1365.81,4798.39 1365.81,4780.88C1365.81,4763.63 1379.98,4749.52 1397.3,4749.52C1414.87,4749.52 1428.78,4763.63 1428.78,4780.88" style="fill:none;stroke:rgb(9,3,108);stroke-width:10px;"/>
            </g>
        </g>
    </g>
</svg>
