<?xml version="1.0" encoding="UTF-8" standalone="no"?>
<!DOCTYPE svg PUBLIC "-//W3C//DTD SVG 1.1//EN" "http://www.w3.org/Graphics/SVG/1.1/DTD/svg11.dtd">
<svg width="100%" height="100%" viewBox="0 0 291 361" version="1.1" xmlns="http://www.w3.org/2000/svg" xmlns:xlink="http://www.w3.org/1999/xlink" xml:space="preserve" xmlns:serif="http://www.serif.com/" style="fill-rule:evenodd;clip-rule:evenodd;stroke-miterlimit:10;">
    <g transform="matrix(1,0,0,1,-4925.18,-2343.63)">
        <g transform="matrix(2.28571,0,0,2.28571,-1687.07,2363.23)">
            <g transform="matrix(0.4375,0,0,0.4375,738.094,-1033.91)">
                <path d="M4975.43,2393.88L5165.12,2393.88L5165.12,2432.67L4975.43,2432.67L4975.43,2393.88ZM4975.43,2615.88L5165.12,2615.88L5165.12,2653.88L4975.43,2653.88L4975.43,2615.88ZM5000.95,2432.67C5000.95,2432.67 5002.79,2490.86 5048.57,2523.88C5048.57,2523.88 5002,2563.72 5000.95,2615.88M5139.07,2432.67C5139.07,2432.67 5137.49,2490.86 5091.45,2523.88C5091.45,2523.88 5138.28,2563.72 5139.07,2615.88M5015.42,2565.55L5124.34,2565.55" style="fill:none;stroke:rgb(9,3,108);stroke-width:10px;"/>
            </g>
        </g>
    </g>
</svg>
