<?xml version="1.0" encoding="UTF-8" standalone="no"?>
<!DOCTYPE svg PUBLIC "-//W3C//DTD SVG 1.1//EN" "http://www.w3.org/Graphics/SVG/1.1/DTD/svg11.dtd">
<svg width="100%" height="100%" viewBox="0 0 366 361" version="1.1" xmlns="http://www.w3.org/2000/svg" xmlns:xlink="http://www.w3.org/1999/xlink" xml:space="preserve" xmlns:serif="http://www.serif.com/" style="fill-rule:evenodd;clip-rule:evenodd;stroke-miterlimit:10;">
    <g transform="matrix(1,0,0,1,-2038.47,-6495.31)">
        <g transform="matrix(2.28571,0,0,2.28571,-4536.18,6515.23)">
            <g transform="matrix(0.4375,0,0,0.4375,1984.58,-2850.41)">
                <path d="M2276.97,6687.62L2333.15,6736.13C2348.67,6750.26 2349.47,6773.71 2336.09,6788.64C2335.83,6788.9 2335.29,6789.44 2334.76,6789.97C2320.31,6804.36 2296.76,6804.36 2281.78,6789.97C2281.24,6789.44 2280.98,6788.9 2280.44,6788.64L2232.55,6736.93M2189.74,6627.38L2163.52,6601.26L2163.52,6583.14L2130.62,6550.09L2093.43,6587.67L2126.07,6620.19L2144.8,6620.19L2170.48,6645.78M2354.02,6634.58L2280.44,6560.75C2259.57,6540.49 2226.66,6540.49 2205.53,6560.75L2316.56,6671.63L2354.02,6634.58ZM2257.7,6612.99L2095.57,6750.52C2087.54,6756.92 2086.47,6768.91 2092.89,6776.64C2093.43,6777.18 2093.96,6777.44 2094.23,6777.98L2116.97,6800.63C2124.19,6807.83 2136.23,6807.83 2143.46,6800.63C2143.99,6800.1 2144.26,6799.57 2144.26,6799.57L2282.58,6638.58" style="fill:none;stroke:rgb(9,3,108);stroke-width:10px;"/>
            </g>
        </g>
    </g>
</svg>
