<?xml version="1.0" encoding="UTF-8" standalone="no"?>
<!DOCTYPE svg PUBLIC "-//W3C//DTD SVG 1.1//EN" "http://www.w3.org/Graphics/SVG/1.1/DTD/svg11.dtd">
<svg width="100%" height="100%" viewBox="0 0 352 353" version="1.1" xmlns="http://www.w3.org/2000/svg" xmlns:xlink="http://www.w3.org/1999/xlink" xml:space="preserve" xmlns:serif="http://www.serif.com/" style="fill-rule:evenodd;clip-rule:evenodd;stroke-miterlimit:10;">
    <g transform="matrix(1,0,0,1,-2045.81,-4604.61)">
        <g transform="matrix(2.28571,0,0,2.28571,-4536.18,4620.23)">
            <g transform="matrix(0.4375,0,0,0.4375,1984.58,-2021.35)">
                <path d="M2120.29,4705.41L2126.66,4806.27L2132.78,4906.87L2310.01,4906.87L2316.13,4806.27L2322.51,4705.41M2346.73,4705.41L2096.06,4705.41M2132.78,4705.41L2132.78,4671.63L2310.01,4671.63L2310.01,4705.41M2221.27,4654.86L2221.27,4671.63M2221.27,4881.72L2221.27,4739.2M2263.35,4881.72L2263.35,4739.2M2179.45,4881.72L2179.45,4739.2" style="fill:none;stroke:rgb(9,3,108);stroke-width:10px;"/>
            </g>
        </g>
    </g>
</svg>
