<?xml version="1.0" encoding="UTF-8" standalone="no"?>
<!DOCTYPE svg PUBLIC "-//W3C//DTD SVG 1.1//EN" "http://www.w3.org/Graphics/SVG/1.1/DTD/svg11.dtd">
<svg width="100%" height="100%" viewBox="0 0 303 350" version="1.1" xmlns="http://www.w3.org/2000/svg" xmlns:xlink="http://www.w3.org/1999/xlink" xml:space="preserve" xmlns:serif="http://www.serif.com/" style="fill-rule:evenodd;clip-rule:evenodd;stroke-miterlimit:10;">
    <g transform="matrix(1,0,0,1,-420.329,-5522.64)">
        <g transform="matrix(2.28571,0,0,2.28571,-6184.57,5538.23)">
            <g transform="matrix(0.4375,0,0,0.4375,2705.75,-2422.97)">
                <path d="M562.618,5733.59L554.553,5821.97L599.669,5821.97L589.587,5731.33M659.151,5642.44C652.598,5637.67 645.037,5635.16 637.224,5635.16C635.711,5635.16 632.939,5635.66 631.174,5635.66C635.963,5629.13 639.24,5620.85 639.24,5612.06C639.24,5592.73 625.125,5576.65 606.726,5573.39L605.466,5573.39C604.71,5573.39 603.702,5572.89 603.45,5572.89L596.644,5572.89C588.831,5573.39 581.522,5576.15 575.977,5580.67C554.553,5566.61 526.072,5572.14 511.957,5592.98C506.664,5600.76 504.144,5609.55 504.144,5618.84C504.144,5624.86 505.404,5630.89 507.925,5636.41C485.997,5637.67 469.614,5656.25 470.622,5677.34C471.882,5699.19 490.534,5715.51 511.957,5714.5C518.763,5714 525.064,5711.99 531.113,5708.48C541.699,5730.82 568.415,5740.62 590.847,5730.57C604.71,5724.05 614.287,5711.24 616.808,5696.43C631.679,5707.98 653.354,5705.21 665.2,5690.4C676.795,5675.84 674.022,5654.24 659.151,5642.44" style="fill:none;stroke:rgb(9,3,108);stroke-width:10px;"/>
            </g>
        </g>
    </g>
</svg>
