<?xml version="1.0" encoding="UTF-8" standalone="no"?>
<!DOCTYPE svg PUBLIC "-//W3C//DTD SVG 1.1//EN" "http://www.w3.org/Graphics/SVG/1.1/DTD/svg11.dtd">
<svg width="100%" height="100%" viewBox="0 0 364 276" version="1.1" xmlns="http://www.w3.org/2000/svg" xmlns:xlink="http://www.w3.org/1999/xlink" xml:space="preserve" xmlns:serif="http://www.serif.com/" style="fill-rule:evenodd;clip-rule:evenodd;stroke-miterlimit:10;">
    <g transform="matrix(1,0,0,1,-802.981,-5561.09)">
        <g transform="matrix(2.28571,0,0,2.28571,-5772.57,5538.23)">
            <g transform="matrix(0.4375,0,0,0.4375,2525.5,-2422.97)">
                <path d="M1038.01,5760.25L1011.46,5760.25M1011.46,5655.51L1073.06,5655.51C1082.62,5655.51 1090.32,5663.45 1090.32,5672.7L1090.32,5698.89L1106.51,5704.44C1112.35,5706.56 1116.6,5712.11 1116.6,5718.46L1116.6,5760.25L1081.02,5760.25M897.037,5760.25L853.231,5760.25L853.231,5611.34L1011.46,5611.34L1011.46,5760.25L949.87,5760.25M949.87,5760.25C949.87,5774.8 937.922,5786.7 923.32,5786.7C908.984,5786.7 897.037,5774.8 897.037,5760.25C897.037,5745.97 908.984,5734.07 923.32,5734.07C937.922,5734.07 949.87,5745.97 949.87,5760.25M1081.82,5764.48C1081.82,5776.65 1072,5786.7 1059.78,5786.7C1047.57,5786.7 1037.75,5776.65 1037.75,5764.48C1037.75,5752.58 1047.57,5742.53 1059.78,5742.53C1072,5742.53 1081.82,5752.58 1081.82,5764.48M1090.32,5698.89L1046.51,5698.89L1046.51,5655.51M907.656,5681.7L932.613,5656.84L957.569,5681.7L932.613,5706.56L907.656,5681.7Z" style="fill:none;stroke:rgb(9,3,108);stroke-width:10px;"/>
            </g>
        </g>
    </g>
</svg>
