<?xml version="1.0" encoding="UTF-8" standalone="no"?>
<!DOCTYPE svg PUBLIC "-//W3C//DTD SVG 1.1//EN" "http://www.w3.org/Graphics/SVG/1.1/DTD/svg11.dtd">
<svg width="100%" height="100%" viewBox="0 0 381 381" version="1.1" xmlns="http://www.w3.org/2000/svg" xmlns:xlink="http://www.w3.org/1999/xlink" xml:space="preserve" xmlns:serif="http://www.serif.com/" style="fill-rule:evenodd;clip-rule:evenodd;stroke-miterlimit:10;">
    <g transform="matrix(1,0,0,1,-794.887,-7374.81)">
        <g transform="matrix(2.28571,0,0,2.28571,-5772.57,7404.23)">
            <g transform="matrix(0.4375,0,0,0.4375,2525.5,-3239.35)">
                <path d="M984.975,7566.06L984.975,7677.73C985.541,7692.4 974.218,7704.52 959.781,7705.37C945.345,7705.93 932.889,7694.65 932.04,7679.99L932.04,7677.73M984.975,7442.82L984.975,7425.06M1125.1,7581.85C1125.1,7505.15 1061.97,7442.82 984.975,7442.82C907.979,7442.82 845.137,7505.15 845.137,7581.85C845.137,7581.85 879.955,7555.63 915.339,7580.72C915.339,7580.72 983.277,7548.01 1054.89,7579.6C1054.89,7579.6 1095.94,7554.22 1125.1,7581.85M915.339,7580.44C915.339,7545.76 932.889,7441.98 985.541,7441.98M984.975,7442.82C1037.63,7442.82 1054.89,7545.19 1054.89,7580.44" style="fill:none;stroke:rgb(9,3,108);stroke-width:10px;"/>
            </g>
        </g>
    </g>
</svg>
