<?xml version="1.0" encoding="UTF-8" standalone="no"?>
<!DOCTYPE svg PUBLIC "-//W3C//DTD SVG 1.1//EN" "http://www.w3.org/Graphics/SVG/1.1/DTD/svg11.dtd">
<svg width="100%" height="100%" viewBox="0 0 373 354" version="1.1" xmlns="http://www.w3.org/2000/svg" xmlns:xlink="http://www.w3.org/1999/xlink" xml:space="preserve" xmlns:serif="http://www.serif.com/" style="fill-rule:evenodd;clip-rule:evenodd;stroke-miterlimit:10;">
    <g transform="matrix(1,0,0,1,-6944.55,-3249.43)">
        <g transform="matrix(2.28571,0,0,2.28571,373.321,3265.23)">
            <g transform="matrix(0.4375,0,0,0.4375,-163.328,-1428.54)">
                <path d="M7212.57,3381.1C7212.57,3425.91 7176.09,3462.25 7130.84,3462.25C7085.86,3462.25 7049.38,3425.91 7049.38,3381.1C7049.38,3336.02 7085.86,3299.68 7130.84,3299.68C7176.09,3299.68 7212.57,3336.02 7212.57,3381.1M7158.27,3470.99C7158.27,3516.08 7121.51,3552.42 7076.53,3552.42C7031.55,3552.42 6994.8,3516.08 6994.8,3470.99C6994.8,3426.18 7031.55,3389.84 7076.53,3389.84C7121.51,3389.84 7158.27,3426.18 7158.27,3470.99M7266.88,3470.99C7266.88,3516.08 7230.4,3552.42 7185.42,3552.42C7140.44,3552.42 7103.69,3516.08 7103.69,3470.99C7103.69,3426.18 7140.44,3389.84 7185.42,3389.84C7230.4,3389.84 7266.88,3426.18 7266.88,3470.99" style="fill:none;stroke:rgb(9,3,108);stroke-width:10px;"/>
            </g>
        </g>
    </g>
</svg>
