<?xml version="1.0" encoding="UTF-8" standalone="no"?>
<!DOCTYPE svg PUBLIC "-//W3C//DTD SVG 1.1//EN" "http://www.w3.org/Graphics/SVG/1.1/DTD/svg11.dtd">
<svg width="100%" height="100%" viewBox="0 0 362 361" version="1.1" xmlns="http://www.w3.org/2000/svg" xmlns:xlink="http://www.w3.org/1999/xlink" xml:space="preserve" xmlns:serif="http://www.serif.com/" style="fill-rule:evenodd;clip-rule:evenodd;stroke-miterlimit:10;">
    <g transform="matrix(1,0,0,1,-5301.62,-2343.61)">
        <g transform="matrix(2.28571,0,0,2.28571,-1275.07,2363.23)">
            <g transform="matrix(0.4375,0,0,0.4375,557.844,-1033.91)">
                <path d="M5471.09,2445.25C5471.09,2445.25 5450.57,2425.86 5447.68,2422.19C5444.52,2418.78 5443.47,2416.69 5443.73,2412.76C5444.52,2408.56 5447.94,2392.84 5444.26,2394.41L5430.32,2400.17L5416.37,2406.2C5412.69,2407.51 5426.89,2416.16 5430.32,2418.78C5433.21,2421.14 5433.73,2423.24 5434,2427.96C5434.52,2432.67 5434,2460.72 5434,2460.72M5493.98,2602.77C5493.98,2602.77 5514.5,2622.17 5517.4,2625.84C5520.29,2629.77 5521.61,2631.34 5521.34,2635.01C5520.82,2638.94 5517.13,2655.19 5520.82,2653.62L5534.76,2647.59L5548.7,2641.82C5552.39,2640.51 5538.18,2631.87 5534.76,2629.24C5531.87,2626.62 5531.34,2624.53 5530.81,2620.07C5530.55,2615.35 5530.81,2587.31 5530.81,2587.31M5561.6,2512.61C5561.6,2512.61 5581.06,2492.17 5584.75,2489.29C5588.17,2486.14 5590.27,2485.09 5593.96,2485.36C5597.9,2485.88 5614.21,2489.55 5612.64,2485.88L5606.58,2471.99L5600.8,2458.1C5599.48,2454.43 5590.8,2468.58 5588.17,2471.99C5585.54,2474.87 5583.43,2475.39 5578.96,2475.66C5574.22,2476.18 5546.07,2475.66 5546.07,2475.66M5403.48,2535.41C5403.48,2535.41 5384.01,2555.86 5380.33,2558.74C5376.91,2561.62 5374.8,2562.93 5370.86,2562.67C5367.17,2562.15 5350.86,2558.48 5351.91,2561.62L5357.97,2575.51L5363.75,2589.41C5365.07,2593.08 5374.01,2578.92 5376.38,2575.51C5379.01,2572.11 5381.12,2572.11 5385.59,2571.85C5390.32,2571.32 5418.48,2571.85 5418.48,2571.85M5530.55,2460.19C5530.55,2460.19 5530.03,2431.63 5530.55,2427.43C5530.81,2422.98 5531.34,2420.88 5534.23,2418.78C5537.13,2416.69 5551.86,2407.51 5548.18,2405.68L5534.23,2399.91L5520.29,2393.88C5516.61,2393.1 5520.29,2409.09 5520.29,2412.76C5520.82,2416.16 5519.5,2418.78 5516.61,2421.67C5513.71,2424.55 5493.46,2445.25 5493.46,2445.25M5434.52,2587.83C5434.52,2587.83 5435.05,2616.14 5434.52,2620.33C5434,2625.05 5433.73,2627.15 5430.84,2629.24C5427.68,2631.34 5412.95,2640.51 5416.9,2642.35L5430.84,2648.11L5444.52,2653.88C5447.94,2655.19 5443.73,2639.2 5443.73,2635.53C5443.73,2631.87 5444.52,2629.77 5447.68,2626.62C5450.57,2623.48 5470.83,2603.3 5470.83,2603.3M5546.6,2571.85C5546.6,2571.85 5575.01,2571.32 5579.22,2571.85C5583.96,2572.11 5586.06,2572.63 5588.17,2575.51C5590.27,2578.4 5599.48,2593.08 5601.32,2589.41L5612.9,2561.62C5614.21,2558.48 5598.16,2562.67 5594.48,2562.67C5591.06,2562.93 5588.69,2561.62 5585.54,2558.74C5582.38,2555.86 5562.12,2535.68 5562.12,2535.68M5418.48,2476.18C5418.48,2476.18 5389.8,2476.71 5385.59,2476.18C5381.38,2475.66 5379.01,2474.87 5376.91,2471.99C5374.8,2469.11 5365.6,2454.43 5363.75,2458.1L5357.97,2471.99L5352.44,2486.14C5351.12,2489.55 5367.17,2485.36 5370.86,2485.36C5374.8,2485.36 5376.91,2486.14 5379.8,2489.29C5383.22,2492.17 5403.48,2512.35 5403.48,2512.35M5504.77,2433.72C5490.04,2430.05 5474.51,2430.05 5459.78,2434.25M5562.39,2475.66C5553.97,2462.03 5543.18,2451.02 5530.55,2444.21M5572.91,2546.16C5576.86,2531.48 5576.86,2516.02 5572.65,2501.34M5530.81,2603.56C5544.76,2595.17 5555.81,2584.43 5562.39,2571.85M5460.31,2614.04C5475.04,2617.97 5490.56,2617.97 5505.3,2613.78M5402.43,2572.11C5410.85,2586 5421.9,2597.01 5434.52,2603.56M5391.9,2501.87C5388.22,2516.54 5388.22,2532.01 5392.43,2546.68M5434,2444.21C5420.32,2452.59 5409.27,2463.6 5402.43,2476.18M5431.89,2537.77L5449.26,2553.24C5452.15,2555.33 5455.57,2554.55 5456.89,2550.88L5461.89,2528.08C5462.41,2524.93 5458.99,2521.79 5456.36,2522.83L5434,2529.91C5430.32,2532.01 5429.53,2536.2 5431.89,2537.77ZM5469.78,2489.29L5485.04,2506.85C5487.67,2509.73 5491.35,2508.42 5492.67,2505.54L5500.3,2484.04C5501.35,2480.9 5498.45,2477.75 5495.03,2478.28L5472.94,2482.47C5469.52,2483 5467.67,2487.19 5469.78,2489.29ZM5508.72,2533.58L5504.51,2555.86C5503.45,2559.26 5506.87,2561.62 5510.29,2560.84L5531.87,2553.24C5535.02,2552.19 5535.55,2547.99 5532.92,2545.9L5516.08,2530.7C5513.71,2528.6 5509.5,2529.91 5508.72,2533.58Z" style="fill:none;stroke:rgb(9,3,108);stroke-width:10px;"/>
            </g>
        </g>
    </g>
</svg>
