<?xml version="1.0" encoding="UTF-8" standalone="no"?>
<!DOCTYPE svg PUBLIC "-//W3C//DTD SVG 1.1//EN" "http://www.w3.org/Graphics/SVG/1.1/DTD/svg11.dtd">
<svg width="100%" height="100%" viewBox="0 0 377 376" version="1.1" xmlns="http://www.w3.org/2000/svg" xmlns:xlink="http://www.w3.org/1999/xlink" xml:space="preserve" xmlns:serif="http://www.serif.com/" style="fill-rule:evenodd;clip-rule:evenodd;stroke-miterlimit:10;">
    <g transform="matrix(1,0,0,1,-6118.53,-2779.12)">
        <g transform="matrix(2.28571,0,0,2.28571,-450.679,2806.23)">
            <g transform="matrix(0.4375,0,0,0.4375,197.172,-1227.72)">
                <path d="M6172.11,2995.76C6187.15,3001.59 6202.74,3004.36 6219.16,3004.36C6252.57,3004.36 6283.75,2988 6307.41,2966.92M6418.76,3047.9C6412.91,3033.2 6404.56,3019.34 6393.43,3007.41C6371.16,2982.45 6337.75,2970.53 6306.57,2966.92M6304.62,2829.37C6296.27,2843.23 6290.43,2857.93 6286.81,2873.46C6280.13,2906.19 6290.98,2940.02 6306.57,2966.64M6373.66,2990.22C6350.56,3037.92 6314.09,3070.09 6212.2,3066.48M6246.44,3000.75C6209.98,2957.21 6210.81,2891.21 6224.45,2856.54M6285.69,2900.09C6336.36,2888.44 6383.13,2896.48 6444.93,2974.96M6444.93,2966.92C6444.93,3042.91 6383.13,3104.47 6306.85,3104.47C6230.85,3104.47 6168.78,3042.91 6168.78,2966.92C6168.78,2891.21 6230.85,2829.37 6306.85,2829.37C6383.13,2829.37 6444.93,2891.21 6444.93,2966.92" style="fill:none;stroke:rgb(9,3,108);stroke-width:10px;"/>
            </g>
        </g>
    </g>
</svg>
