<?xml version="1.0" encoding="UTF-8" standalone="no"?>
<!DOCTYPE svg PUBLIC "-//W3C//DTD SVG 1.1//EN" "http://www.w3.org/Graphics/SVG/1.1/DTD/svg11.dtd">
<svg width="100%" height="100%" viewBox="0 0 360 314" version="1.1" xmlns="http://www.w3.org/2000/svg" xmlns:xlink="http://www.w3.org/1999/xlink" xml:space="preserve" xmlns:serif="http://www.serif.com/" style="fill-rule:evenodd;clip-rule:evenodd;stroke-miterlimit:10;">
    <g transform="matrix(1,0,0,1,-392.906,-5101.11)">
        <g transform="matrix(2.28571,0,0,2.28571,-6184.57,5097.23)">
            <g transform="matrix(0.4375,0,0,0.4375,2705.75,-2230.04)">
                <path d="M587.288,5350.65C587.288,5358.47 581.01,5364.72 572.901,5364.72C565.053,5364.72 558.775,5358.47 558.775,5350.65C558.775,5342.83 565.053,5336.32 572.901,5336.32C581.01,5336.32 587.288,5342.83 587.288,5350.65M702.647,5199.24C627.834,5135.4 518.23,5135.4 443.155,5199.24M663.932,5245.11C611.615,5200.81 534.971,5200.81 482.654,5245.11M624.172,5290.97C594.874,5265.96 550.928,5265.96 521.63,5290.97" style="fill:none;stroke:rgb(9,3,108);stroke-width:10px;"/>
            </g>
        </g>
    </g>
</svg>
