<?xml version="1.0" encoding="UTF-8" standalone="no"?>
<!DOCTYPE svg PUBLIC "-//W3C//DTD SVG 1.1//EN" "http://www.w3.org/Graphics/SVG/1.1/DTD/svg11.dtd">
<svg width="100%" height="100%" viewBox="0 0 368 367" version="1.1" xmlns="http://www.w3.org/2000/svg" xmlns:xlink="http://www.w3.org/1999/xlink" xml:space="preserve" xmlns:serif="http://www.serif.com/" style="fill-rule:evenodd;clip-rule:evenodd;stroke-miterlimit:10;">
    <g transform="matrix(1,0,0,1,-801.057,-5992.53)">
        <g transform="matrix(2.28571,0,0,2.28571,-5772.57,6015.23)">
            <g transform="matrix(0.4375,0,0,0.4375,2525.5,-2631.66)">
                <path d="M1118.55,6175.9C1118.55,6249.43 1058.74,6309.01 984.928,6309.01C911.382,6309.01 851.306,6249.43 851.306,6175.9C851.306,6102.63 911.382,6042.78 984.928,6042.78C1058.74,6042.78 1118.55,6102.63 1118.55,6175.9M1025.07,6048.95L983.312,6073.38C981.156,6074.72 979.809,6076.87 979.54,6079.01L978.462,6084.11C978.193,6087.07 979.001,6089.75 981.695,6091.9L993.279,6101.29C994.626,6102.63 996.781,6102.9 998.398,6102.9C1002.17,6102.9 1005.67,6106.12 1006.48,6109.88L1007.83,6119C1008.37,6121.42 1007.56,6124.1 1005.67,6125.71L998.937,6132.96C996.781,6135.1 993.279,6136.18 990.316,6135.1L946.135,6121.95C942.363,6120.61 938.591,6122.22 936.436,6125.71L914.884,6166.24C912.998,6169.46 913.807,6173.48 916.501,6175.9L933.203,6191.46C934.55,6192.81 936.436,6193.61 938.591,6193.61L953.947,6194.42C958.796,6194.95 961.76,6198.71 961.76,6203L961.76,6205.96C961.76,6208.1 962.298,6209.98 963.376,6211.59L969.033,6218.57C969.842,6219.91 970.919,6220.99 970.919,6222.86L974.691,6255.34C975.23,6258.56 977.385,6260.97 980.348,6262.32L988.43,6265.27C991.932,6266.61 995.704,6265.27 997.859,6261.78L1014.29,6237.09C1015.1,6235.21 1016.99,6234.4 1018.6,6233.6L1025.61,6231.45C1027.76,6230.65 1029.38,6228.77 1030.19,6226.62L1031.26,6224.48C1032.34,6221.52 1032.07,6218.57 1029.92,6215.89L1027.76,6213.47C1025.07,6210.25 1025.07,6205.69 1028.03,6202.74L1044.2,6185.56C1047.43,6182.07 1046.62,6175.9 1042.85,6173.48L1034.23,6167.31L1023.72,6159.26C1021.57,6157.65 1020.49,6154.96 1020.76,6152.01L1020.76,6149.86C1021.3,6145.57 1024.8,6142.62 1029.11,6142.62L1042.31,6142.62C1044.2,6142.62 1045.27,6142.08 1046.62,6141.28L1065.21,6129.74C1066.56,6128.66 1067.36,6127.86 1067.9,6127.05L1088.38,6092.16" style="fill:none;stroke:rgb(9,3,108);stroke-width:10px;"/>
            </g>
        </g>
    </g>
</svg>
